<mxfile host="app.diagrams.net" modified="2023-10-29T12:10:07.173Z" agent="Mozilla/5.0 (Windows NT 10.0; Win64; x64) AppleWebKit/537.36 (KHTML, like Gecko) Chrome/118.0.0.0 Safari/537.36" etag="TjXeNeAjK_l828x5UyRT" version="22.0.8" type="device">
  <diagram id="A6lcj7jOunBQJeXEmPzk" name="Страница 1">
    <mxGraphModel dx="977" dy="563" grid="1" gridSize="10" guides="1" tooltips="1" connect="1" arrows="1" fold="1" page="1" pageScale="1" pageWidth="827" pageHeight="1169" math="0" shadow="0">
      <root>
        <mxCell id="0" />
        <mxCell id="1" parent="0" />
        <mxCell id="zlhoYKVswHlVtqf08jpZ-1" value="" style="rounded=0;whiteSpace=wrap;html=1;" parent="1" vertex="1">
          <mxGeometry x="50" y="370" width="250" height="300" as="geometry" />
        </mxCell>
        <mxCell id="zlhoYKVswHlVtqf08jpZ-2" value="" style="shape=image;verticalLabelPosition=bottom;labelBackgroundColor=default;verticalAlign=top;aspect=fixed;imageAspect=0;image=data:image/svg+xml,PHN2ZyB4bWxucz0iaHR0cDovL3d3dy53My5vcmcvMjAwMC9zdmciIGZpbGw9Im5vbmUiIHZpZXdCb3g9IjAgMCA0OCA1NiIgaGVpZ2h0PSI1NiIgd2lkdGg9IjQ4Ij4mI3hhOzxwYXRoIGZpbGw9InVybCgjcGFpbnQwX2xpbmVhcl8xNzkzMV84OTMpIiBkPSJNMTIuMDQ3OCA1NC45MjQ4TDExLjM4MzggNTAuNDY2M0w2LjkyNTI5IDUxLjEzMDRMNy42ODQxOCA1NS41ODg5TDEyLjA0NzggNTQuOTI0OFoiLz4mI3hhOzxwYXRoIGZpbGw9InVybCgjcGFpbnQxX2xpbmVhcl8xNzkzMV84OTMpIiBkPSJNNDYuOTU3IDQyLjQwMzJMNDYuMTk4MSAzOC4wMzk2TDI2Ljc1MTUgNDEuMDc1MUwyNy4zMjA2IDQ1LjQzODhMNDYuOTU3IDQyLjQwMzJaIi8+JiN4YTs8cGF0aCBmaWxsPSJ1cmwoI3BhaW50Ml9saW5lYXJfMTc5MzFfODkzKSIgZD0iTTIwLjM5NSA0Ni41NzcyTDI0Ljg1MzUgNDUuODE4M0wyNC4xODk1IDQxLjQ1NDZMMTkuNzMxIDQyLjExODZMMjAuMzk1IDQ2LjU3NzJaIi8+JiN4YTs8cGF0aCBmaWxsPSJ1cmwoI3BhaW50M19saW5lYXJfMTc5MzFfODkzKSIgZD0iTTE5LjA2NzQgNTMuNzg2NUwxOC4zMDg1IDQ5LjQyMjlMMTMuOTQ0OCA1MC4wODY5TDE0LjUxNCA1NC41NDU0TDE5LjA2NzQgNTMuNzg2NVoiLz4mI3hhOzxwYXRoIGZpbGw9InVybCgjcGFpbnQ0X2xpbmVhcl8xNzkzMV84OTMpIiBkPSJNNS44ODEzNSA0NC4yMDU1TDYuNTQ1MzkgNDguNjY0MUwxMS4wMDM5IDQ4TDEwLjMzOTkgNDMuNTQxNUw1Ljg4MTM1IDQ0LjIwNTVaIi8+JiN4YTs8cGF0aCBmaWxsPSJ1cmwoI3BhaW50NV9saW5lYXJfMTc5MzFfODkzKSIgZD0iTTI3LjY5OTcgNDcuOTA1MUwyOC40NTg2IDUyLjQ1ODVMNDguMDAwMSA0OS40MjI5TDQ3LjMzNjEgNDQuOTY0NEwyNy42OTk3IDQ3LjkwNTFaIi8+JiN4YTs8cGF0aCBmaWxsPSJ1cmwoI3BhaW50Nl9saW5lYXJfMTc5MzFfODkzKSIgZD0iTTIxLjUzMzMgNTMuNDA3TDI1Ljg5NjkgNTIuODM3OEwyNS4yMzI5IDQ4LjI4NDRMMjAuNzc0NCA0OS4wNDMzTDIxLjUzMzMgNTMuNDA3WiIvPiYjeGE7PHBhdGggZmlsbD0idXJsKCNwYWludDdfbGluZWFyXzE3OTMxXzg5MykiIGQ9Ik0xMi44MDYyIDQzLjE2MjFMMTMuNTY1IDQ3LjYyMDVMMTcuOTI4NyA0Ni45NTY2TDE3LjI2NDYgNDIuNDk4TDEyLjgwNjIgNDMuMTYyMVoiLz4mI3hhOzxwYXRoIGZpbGw9InVybCgjcGFpbnQ4X2xpbmVhcl8xNzkzMV84OTMpIiBkPSJNNy4zOTkyMSA0MS40NTQ2TDEuOTkyMDcgNS45NzYzMkwwIDYuMjYwODlMNS41MDE5NyA0MS43MzkyTDcuMzk5MjEgNDEuNDU0NloiLz4mI3hhOzxwYXRoIGZpbGw9InVybCgjcGFpbnQ5X2xpbmVhcl8xNzkzMV84OTMpIiBkPSJNOS45NjAzMiA0MS4wNzUxTDQuMDc4ODggMi45NDA2N0wyLjE4MTY0IDMuMzIwMTRMOC4wNjMwOCA0MS4zNTk3TDkuOTYwMzIgNDEuMDc1MVoiLz4mI3hhOzxwYXRoIGZpbGw9InVybCgjcGFpbnQxMF9saW5lYXJfMTc5MzFfODkzKSIgZD0iTTE0LjMyNDUgNDAuNDExMUw4LjE1ODQ3IDBMNi4yNjEyMyAwLjM3OTQxMkwxMi40MjcyIDQwLjYwMDhMMTQuMzI0NSA0MC40MTExWiIvPiYjeGE7PHBhdGggZmlsbD0idXJsKCNwYWludDExX2xpbmVhcl8xNzkzMV84OTMpIiBkPSJNMTYuODg1MiA0MC4wMzE1TDExLjE5MzUgMy4yMjUxTDkuMzkxMTEgMy41MDk2N0wxNS4wODI4IDQwLjIyMTJMMTYuODg1MiA0MC4wMzE1WiIvPiYjeGE7PHBhdGggZmlsbD0idXJsKCNwYWludDEyX2xpbmVhcl8xNzkzMV84OTMpIiBkPSJNMjEuMjQ5MSAzOS4yNzI4TDE2LjIyMTUgNi42NDAzOEwxNC4zMjQyIDYuOTI0OTVMMTkuMzUxOSAzOS42NTIzTDIxLjI0OTEgMzkuMjcyOFoiLz4mI3hhOzxwYXRoIGZpbGw9InVybCgjcGFpbnQxM19saW5lYXJfMTc5MzFfODkzKSIgZD0iTTIzLjgxMDQgMzguODkzNUwxOC41OTMgNS4wMjc4M0wxNi42OTU4IDUuMzEyNDFMMjIuMDA4MSAzOS4xNzgxTDIzLjgxMDQgMzguODkzNVoiLz4mI3hhOzxkZWZzPiYjeGE7PGxpbmVhckdyYWRpZW50IGdyYWRpZW50VW5pdHM9InVzZXJTcGFjZU9uVXNlIiB5Mj0iLTAuODAyNTAxIiB4Mj0iMS4yMzE5OCIgeTE9IjY2Ljg3NzIiIHgxPSIxMS42NDY5IiBpZD0icGFpbnQwX2xpbmVhcl8xNzkzMV84OTMiPiYjeGE7PHN0b3Agc3RvcC1jb2xvcj0iI0ZBRUQxRSIvPiYjeGE7PHN0b3Agc3RvcC1jb2xvcj0iI0YxNUIyQiIgb2Zmc2V0PSIxIi8+JiN4YTs8L2xpbmVhckdyYWRpZW50PiYjeGE7PGxpbmVhckdyYWRpZW50IGdyYWRpZW50VW5pdHM9InVzZXJTcGFjZU9uVXNlIiB5Mj0iLTUuMTYzOSIgeDI9IjI5LjU3NjgiIHkxPSI2Mi41MTU0IiB4MT0iMzkuOTkxNiIgaWQ9InBhaW50MV9saW5lYXJfMTc5MzFfODkzIj4mI3hhOzxzdG9wIHN0b3AtY29sb3I9IiNGQUVEMUUiLz4mI3hhOzxzdG9wIHN0b3AtY29sb3I9IiNGMTVCMkIiIG9mZnNldD0iMSIvPiYjeGE7PC9saW5lYXJHcmFkaWVudD4mI3hhOzxsaW5lYXJHcmFkaWVudCBncmFkaWVudFVuaXRzPSJ1c2VyU3BhY2VPblVzZSIgeTI9Ii0yLjkzNTE2IiB4Mj0iMTUuMDkxMyIgeTE9IjY0Ljc0NDUiIHgxPSIyNS41MDYzIiBpZD0icGFpbnQyX2xpbmVhcl8xNzkzMV84OTMiPiYjeGE7PHN0b3Agc3RvcC1jb2xvcj0iI0ZBRUQxRSIvPiYjeGE7PHN0b3Agc3RvcC1jb2xvcj0iI0YxNUIyQiIgb2Zmc2V0PSIxIi8+JiN4YTs8L2xpbmVhckdyYWRpZW50PiYjeGE7PGxpbmVhckdyYWRpZW50IGdyYWRpZW50VW5pdHM9InVzZXJTcGFjZU9uVXNlIiB5Mj0iLTEuODY5MjIiIHgyPSI4LjE2MzgiIHkxPSI2NS44MTA1IiB4MT0iMTguNTc4OCIgaWQ9InBhaW50M19saW5lYXJfMTc5MzFfODkzIj4mI3hhOzxzdG9wIHN0b3AtY29sb3I9IiNGQUVEMUUiLz4mI3hhOzxzdG9wIHN0b3AtY29sb3I9IiNGMTVCMkIiIG9mZnNldD0iMSIvPiYjeGE7PC9saW5lYXJHcmFkaWVudD4mI3hhOzxsaW5lYXJHcmFkaWVudCBncmFkaWVudFVuaXRzPSJ1c2VyU3BhY2VPblVzZSIgeTI9Ii0wLjgwMTI4IiB4Mj0iMS4yMjQ0OCIgeTE9IjY2Ljg3ODQiIHgxPSIxMS42Mzk0IiBpZD0icGFpbnQ0X2xpbmVhcl8xNzkzMV84OTMiPiYjeGE7PHN0b3Agc3RvcC1jb2xvcj0iI0ZBRUQxRSIvPiYjeGE7PHN0b3Agc3RvcC1jb2xvcj0iI0YxNUIyQiIgb2Zmc2V0PSIxIi8+JiN4YTs8L2xpbmVhckdyYWRpZW50PiYjeGE7PGxpbmVhckdyYWRpZW50IGdyYWRpZW50VW5pdHM9InVzZXJTcGFjZU9uVXNlIiB5Mj0iLTUuMTY1MjgiIHgyPSIyOS41ODMzIiB5MT0iNjIuNTE0MyIgeDE9IjM5Ljk5ODIiIGlkPSJwYWludDVfbGluZWFyXzE3OTMxXzg5MyI+JiN4YTs8c3RvcCBzdG9wLWNvbG9yPSIjRkFFRDFFIi8+JiN4YTs8c3RvcCBzdG9wLWNvbG9yPSIjRjE1QjJCIiBvZmZzZXQ9IjEiLz4mI3hhOzwvbGluZWFyR3JhZGllbnQ+JiN4YTs8bGluZWFyR3JhZGllbnQgZ3JhZGllbnRVbml0cz0idXNlclNwYWNlT25Vc2UiIHkyPSItMi45MzUzNyIgeDI9IjE1LjA5MSIgeTE9IjY0Ljc0NDMiIHgxPSIyNS41MDYiIGlkPSJwYWludDZfbGluZWFyXzE3OTMxXzg5MyI+JiN4YTs8c3RvcCBzdG9wLWNvbG9yPSIjRkFFRDFFIi8+JiN4YTs8c3RvcCBzdG9wLWNvbG9yPSIjRjE1QjJCIiBvZmZzZXQ9IjEiLz4mI3hhOzwvbGluZWFyR3JhZGllbnQ+JiN4YTs8bGluZWFyR3JhZGllbnQgZ3JhZGllbnRVbml0cz0idXNlclNwYWNlT25Vc2UiIHkyPSItMS44Njg2NyIgeDI9IjguMTY0MDciIHkxPSI2NS44MTAzIiB4MT0iMTguNTc4OCIgaWQ9InBhaW50N19saW5lYXJfMTc5MzFfODkzIj4mI3hhOzxzdG9wIHN0b3AtY29sb3I9IiNGQUVEMUUiLz4mI3hhOzxzdG9wIHN0b3AtY29sb3I9IiNGMTVCMkIiIG9mZnNldD0iMSIvPiYjeGE7PC9saW5lYXJHcmFkaWVudD4mI3hhOzxsaW5lYXJHcmFkaWVudCBncmFkaWVudFVuaXRzPSJ1c2VyU3BhY2VPblVzZSIgeTI9IjEuNTcxNjYiIHgyPSIwLjI4NDY5NiIgeTE9IjY1Ljc1OTciIHgxPSIxMC4xNjIzIiBpZD0icGFpbnQ4X2xpbmVhcl8xNzkzMV84OTMiPiYjeGE7PHN0b3Agc3RvcC1jb2xvcj0iI0ZBRUQxRSIvPiYjeGE7PHN0b3Agc3RvcC1jb2xvcj0iI0YxNUIyQiIgb2Zmc2V0PSIxIi8+JiN4YTs8L2xpbmVhckdyYWRpZW50PiYjeGE7PGxpbmVhckdyYWRpZW50IGdyYWRpZW50VW5pdHM9InVzZXJTcGFjZU9uVXNlIiB5Mj0iLTEuNzcyNDMiIHgyPSIyLjQwNzg1IiB5MT0iNjcuMTQzMSIgeDE9IjEzLjAxMjkiIGlkPSJwYWludDlfbGluZWFyXzE3OTMxXzg5MyI+JiN4YTs8c3RvcCBzdG9wLWNvbG9yPSIjRkFFRDFFIi8+JiN4YTs8c3RvcCBzdG9wLWNvbG9yPSIjRjE1QjJCIiBvZmZzZXQ9IjEiLz4mI3hhOzwvbGluZWFyR3JhZGllbnQ+JiN4YTs8bGluZWFyR3JhZGllbnQgZ3JhZGllbnRVbml0cz0idXNlclNwYWNlT25Vc2UiIHkyPSItNS4wMzY3IiB4Mj0iNi4zODk0MyIgeTE9IjY4LjAzMzEiIHgxPSIxNy42MzM4IiBpZD0icGFpbnQxMF9saW5lYXJfMTc5MzFfODkzIj4mI3hhOzxzdG9wIHN0b3AtY29sb3I9IiNGQUVEMUUiLz4mI3hhOzxzdG9wIHN0b3AtY29sb3I9IiNGMTVCMkIiIG9mZnNldD0iMSIvPiYjeGE7PC9saW5lYXJHcmFkaWVudD4mI3hhOzxsaW5lYXJHcmFkaWVudCBncmFkaWVudFVuaXRzPSJ1c2VyU3BhY2VPblVzZSIgeTI9Ii0xLjQwODMyIiB4Mj0iOS41NzkyNSIgeTE9IjY1LjIwOCIgeDE9IjE5LjgzMDUiIGlkPSJwYWludDExX2xpbmVhcl8xNzkzMV84OTMiPiYjeGE7PHN0b3Agc3RvcC1jb2xvcj0iI0ZBRUQxRSIvPiYjeGE7PHN0b3Agc3RvcC1jb2xvcj0iI0YxNUIyQiIgb2Zmc2V0PSIxIi8+JiN4YTs8L2xpbmVhckdyYWRpZW50PiYjeGE7PGxpbmVhckdyYWRpZW50IGdyYWRpZW50VW5pdHM9InVzZXJTcGFjZU9uVXNlIiB5Mj0iMi41NjI0NiIgeDI9IjE0LjYyODkiIHkxPSI2MS43MzkzIiB4MT0iMjMuNzM1MyIgaWQ9InBhaW50MTJfbGluZWFyXzE3OTMxXzg5MyI+JiN4YTs8c3RvcCBzdG9wLWNvbG9yPSIjRkFFRDFFIi8+JiN4YTs8c3RvcCBzdG9wLWNvbG9yPSIjRjE1QjJCIiBvZmZzZXQ9IjEiLz4mI3hhOzwvbGluZWFyR3JhZGllbnQ+JiN4YTs8bGluZWFyR3JhZGllbnQgZ3JhZGllbnRVbml0cz0idXNlclNwYWNlT25Vc2UiIHkyPSIwLjc1MTg1MSIgeDI9IjE2Ljk5MTEiIHkxPSI2Mi4xOTY3IiB4MT0iMjYuNDQ2NSIgaWQ9InBhaW50MTNfbGluZWFyXzE3OTMxXzg5MyI+JiN4YTs8c3RvcCBzdG9wLWNvbG9yPSIjRkFFRDFFIi8+JiN4YTs8c3RvcCBzdG9wLWNvbG9yPSIjRjE1QjJCIiBvZmZzZXQ9IjEiLz4mI3hhOzwvbGluZWFyR3JhZGllbnQ+JiN4YTs8L2RlZnM+JiN4YTs8L3N2Zz4=;" parent="1" vertex="1">
          <mxGeometry x="149" y="591.21" width="48" height="56" as="geometry" />
        </mxCell>
        <mxCell id="zlhoYKVswHlVtqf08jpZ-3" value="" style="shape=image;verticalLabelPosition=bottom;labelBackgroundColor=default;verticalAlign=top;aspect=fixed;imageAspect=0;image=data:image/svg+xml,PHN2ZyB4bWxucz0iaHR0cDovL3d3dy53My5vcmcvMjAwMC9zdmciIGZpbGw9Im5vbmUiIHZpZXdCb3g9IjAgMCAyNyAyNyIgaGVpZ2h0PSIyNyIgd2lkdGg9IjI3Ij4mI3hhOzxjaXJjbGUgZmlsbD0id2hpdGUiIHI9IjEyLjkxMyIgY3k9IjEzLjQ0NjIiIGN4PSIxMy40NDY2Ii8+JiN4YTs8cGF0aCBmaWxsPSIjREE0RTMxIiBkPSJNMTMuNSAwQzYuMDQ0NDIgMCAwIDYuMDQzNjIgMCAxMy41QzAgMjAuOTU2NCA2LjA0NDQyIDI3IDEzLjUgMjdDMjAuOTU1NiAyNyAyNyAyMC45NTU2IDI3IDEzLjVDMjcgNi4wNDQ0MyAyMC45NTU2IDAgMTMuNSAwWk0xMy41IDI1LjI2NjZDMTEuMzc4OCAyNS4yNjY2IDkuNjU5MTMgMjMuODQ5OCA5LjY1OTEzIDIyLjEwMThIMTcuMzQwOUMxNy4zNDA5IDIzLjg0ODkgMTUuNjIwNCAyNS4yNjY2IDEzLjUgMjUuMjY2NlpNMTkuODQ0MSAyMS4wNTQxSDcuMTU0MjhWMTguNzUySDE5LjgzNlYyMS4wNTQxSDE5Ljg0NDFaTTE5Ljc5ODkgMTcuNTY4N0g3LjE5MTQ0TDcuMDY2MjMgMTcuNDIzM0M1Ljc2NzM2IDE1Ljg0NTcgNS40NjEyMyAxNS4wMjI2IDUuMTY0NzggMTQuMTg0MkM1LjE1OTkzIDE0LjE1NjcgNi43Mzk5IDE0LjUwNzMgNy44NjAyNiAxNC43NTkzQzguMzMxMjUgMTQuODY0OSA4LjgwNDQzIDE0Ljk2MDUgOS4yNzk0OCAxNS4wNDZDOC40NzAxMSAxNC4wOTc3IDcuOTg5NSAxMi44OTE4IDcuOTg5NSAxMS42NTkxQzcuOTg5NSA4Ljk1MzE1IDEwLjA2NTQgNi41ODgwNSA5LjMxNTgzIDQuNjc2OUMxMC4wNDQ0IDQuNzM1ODYgMTAuODIzOSA2LjIxNDg2IDEwLjg3NjQgOC41Mjc0NkMxMS42NTE5IDcuNDU3MTkgMTEuOTc1IDUuNTAxNjIgMTEuOTc1IDQuMzAyOTFDMTEuOTc1IDMuMDYxMzkgMTIuNzkzMiAxLjYxOTU1IDEzLjYxMDcgMS41NzAyN0MxMi44ODEzIDIuNzcyMjEgMTMuNzk5NyAzLjgwMjkxIDE0LjYxNTUgNi4zNTg2NEMxNC45MjI1IDcuMzE5ODcgMTQuODgyMSA4LjkzNTM4IDE1LjExODcgOS45NTg4QzE1LjE5NzEgNy44MzAzNyAxNS41NjMgNC43MjQ1NiAxNi45MTM2IDMuNjUzNDdDMTYuMzE4MyA1LjAwMjQyIDE3LjAwMjQgNi42OTMwNSAxNy40NjkzIDcuNTA0ODVDMTguMjIzNyA4LjgxNTAyIDE4LjY4MDkgOS44MDY5NSAxOC42ODA5IDExLjY4NThDMTguNjgwOSAxMi45NDU5IDE4LjIxNjUgMTQuMTMgMTcuNDMyMSAxNS4wNTY1QzE4LjMyMzkgMTQuODg5MyAxOC45Mzk0IDE0LjczODMgMTguOTM5NCAxNC43MzgzTDIxLjgzNDQgMTQuMTcyOUMyMS44MzQ0IDE0LjE3MjkgMjEuNDE0NCAxNS45MDE1IDE5Ljc5NzMgMTcuNTY4N0gxOS43OTg5WiIvPiYjeGE7PC9zdmc+;" parent="1" vertex="1">
          <mxGeometry x="60" y="591.4300000000001" width="57" height="57" as="geometry" />
        </mxCell>
        <mxCell id="zlhoYKVswHlVtqf08jpZ-4" value="" style="shape=image;verticalLabelPosition=bottom;labelBackgroundColor=default;verticalAlign=top;aspect=fixed;imageAspect=0;image=data:image/svg+xml,PHN2ZyB4bWxuczp4bGluaz0iaHR0cDovL3d3dy53My5vcmcvMTk5OS94bGluayIgeG1sbnM9Imh0dHA6Ly93d3cudzMub3JnLzIwMDAvc3ZnIiB2aWV3Qm94PSIwIDAgMTIxLjg1IDk5LjE3Ij48ZGVmcz48c3R5bGU+LmNscy0xe2ZpbGw6dXJsKCNsaW5lYXItZ3JhZGllbnQpO308L3N0eWxlPjxsaW5lYXJHcmFkaWVudCBncmFkaWVudFVuaXRzPSJ1c2VyU3BhY2VPblVzZSIgeTI9IjU3IiB4Mj0iMjcuMiIgeTE9IjEzLjQiIHgxPSIxNjguNTUiIGlkPSJsaW5lYXItZ3JhZGllbnQiPjxzdG9wIHN0b3AtY29sb3I9IiNmZmYxMDAiIG9mZnNldD0iMCIvPjxzdG9wIHN0b3AtY29sb3I9IiNmMDVhMjgiIG9mZnNldD0iMSIvPjwvbGluZWFyR3JhZGllbnQ+PC9kZWZzPjxnIGRhdGEtbmFtZT0iTGF5ZXIgNiIgaWQ9IkxheWVyXzYiPjxwYXRoIGQ9Ik00LjY2LDI1SDIuMzdhMi4zNywyLjM3LDAsMCwwLDAsNC43NEg0LjY2YTIuMzcsMi4zNywwLDEsMCwwLTQuNzRaTTQ4LjQ4LDU5LjU3SDQ2LjE5YTIuMzcsMi4zNywwLDEsMCwwLDQuNzRoMi4yOWEyLjM3LDIuMzcsMCwxLDAsMC00Ljc0Wk00Ni41NiwzN2EyLjM3LDIuMzcsMCwwLDAtMi4zNy0yLjM3SDM2LjI3YTIuMzcsMi4zNywwLDAsMCwwLDQuNzRoNy45MkEyLjM3LDIuMzcsMCwwLDAsNDYuNTYsMzdaTTEyMS43MywyMi4xLDExOS4zMiw4LjU2QTkuODgsOS44OCwwLDAsMCwxMDkuMDcsMEgxNi4yNEE2LjI4LDYuMjgsMCwwLDAsOS45LDcuN2wyLjU0LDE0LjRhMy4zOCwzLjM4LDAsMCwwLC4wOC4zNHYwYy4zLDEuNzYtLjU5LDIuNDctMS4zOSwyLjczaDBhMi4zNywyLjM3LDAsMCwwLC43OSw0LjZIMTE1LjM5QTYuMjgsNi4yOCwwLDAsMCwxMjEuNzMsMjIuMVpNOTAuMTUsNzYuNDJjLTEtNS4yNS00LTcuMi03LjM5LTcuMkg1OC4yNGEyLjM5LDIuMzksMCwwLDAtMi4zNywyLjRBMi4zNywyLjM3LDAsMCwwLDU4LDc0aDBjLjc4LjE0LDEuNjIsMS4xNiwyLjE1LDMuNjhsMi41MiwxNGE5LjU5LDkuNTksMCwwLDAsOS4xOSw3LjU0bDE0LjYzLS4wN2E2LjI4LDYuMjgsMCwwLDAsNi40NC03LjYxWk01Ny43Myw2NC40OEg4NC4zNGEyLjI3LDIuMjcsMCwwLDAsLjU5LS4wOWMyLjQ2LS41MiwyLjU4LTIuNTIsMi4yNi00LjUxTDgzLjgsNDEuMjdjLS45My00Ljg0LTMuNzQtNi43NS03LjQzLTYuNzVINTJhMi4zNywyLjM3LDAsMCwwLS4yOCw0LjcyaDBjLjgxLjE1LDEuNywxLjI0LDIuMjIsNGwyLjU3LDE0LjI0djBBMS45MiwxLjkyLDAsMCwxLDU1LDU5Ljg3aDBhMi4zNiwyLjM2LDAsMCwwLC43OSw0LjU5aDEuOVoiIGNsYXNzPSJjbHMtMSIvPjwvZz48L3N2Zz4=;" parent="1" vertex="1">
          <mxGeometry x="210" y="590" width="72" height="58.43" as="geometry" />
        </mxCell>
        <mxCell id="zlhoYKVswHlVtqf08jpZ-6" style="edgeStyle=orthogonalEdgeStyle;rounded=0;orthogonalLoop=1;jettySize=auto;html=1;entryX=0.5;entryY=0;entryDx=0;entryDy=0;" parent="1" source="zlhoYKVswHlVtqf08jpZ-5" target="zlhoYKVswHlVtqf08jpZ-3" edge="1">
          <mxGeometry relative="1" as="geometry" />
        </mxCell>
        <mxCell id="zlhoYKVswHlVtqf08jpZ-7" style="edgeStyle=orthogonalEdgeStyle;rounded=0;orthogonalLoop=1;jettySize=auto;html=1;entryX=0.5;entryY=0;entryDx=0;entryDy=0;" parent="1" source="zlhoYKVswHlVtqf08jpZ-5" target="zlhoYKVswHlVtqf08jpZ-4" edge="1">
          <mxGeometry relative="1" as="geometry" />
        </mxCell>
        <mxCell id="zlhoYKVswHlVtqf08jpZ-12" style="edgeStyle=orthogonalEdgeStyle;rounded=0;orthogonalLoop=1;jettySize=auto;html=1;" parent="1" source="zlhoYKVswHlVtqf08jpZ-5" target="zlhoYKVswHlVtqf08jpZ-2" edge="1">
          <mxGeometry relative="1" as="geometry" />
        </mxCell>
        <mxCell id="zlhoYKVswHlVtqf08jpZ-5" value="" style="shape=image;verticalLabelPosition=bottom;labelBackgroundColor=default;verticalAlign=top;aspect=fixed;imageAspect=0;image=data:image/svg+xml,PHN2ZyB4bWxucz0iaHR0cDovL3d3dy53My5vcmcvMjAwMC9zdmciIGhlaWdodD0iMjUwMCIgd2lkdGg9IjIyNDkiIHZpZXdCb3g9IjguNSAxIDMzNC4xMDAwMDAwMDAwMDAxIDM2MyI+PGxpbmVhckdyYWRpZW50IHkyPSI5OSUiIHkxPSIzMCUiIHgyPSIxNzUuNSIgeDE9IjE3NS41IiBncmFkaWVudFVuaXRzPSJ1c2VyU3BhY2VPblVzZSIgaWQ9ImEiPjxzdG9wIHN0b3AtY29sb3I9IiNmMDVhMjgiIG9mZnNldD0iMCIvPjxzdG9wIHN0b3AtY29sb3I9IiNmYmNhMGEiIG9mZnNldD0iMSIvPjwvbGluZWFyR3JhZGllbnQ+PHBhdGggZmlsbD0idXJsKCNhKSIgZD0iTTM0MiAxNjEuMmMtLjYtNi4xLTEuNi0xMy4xLTMuNi0yMC45LTItNy43LTUtMTYuMi05LjQtMjVzLTEwLjEtMTcuOS0xNy41LTI2LjhjLTIuOS0zLjUtNi4xLTYuOS05LjUtMTAuMiA1LjEtMjAuMy02LjItMzcuOS02LjItMzcuOS0xOS41LTEuMi0zMS45IDYuMS0zNi41IDkuNC0uOC0uMy0xLjUtLjctMi4zLTEtMy4zLTEuMy02LjctMi42LTEwLjMtMy43LTMuNS0xLjEtNy4xLTIuMS0xMC44LTNzLTcuNC0xLjYtMTEuMi0yLjJjLS43LS4xLTEuMy0uMi0yLS4zQzIxNC4yIDEyLjQgMTg5LjggMSAxODkuOCAxYy0yNy4zIDE3LjMtMzIuNCA0MS41LTMyLjQgNDEuNXMtLjEuNS0uMyAxLjRjLTEuNS40LTMgLjktNC41IDEuMy0yLjEuNi00LjIgMS40LTYuMiAyLjItMi4xLjgtNC4xIDEuNi02LjIgMi41LTQuMSAxLjgtOC4yIDMuOC0xMi4yIDYtMy45IDIuMi03LjcgNC42LTExLjQgNy4xbC0xLS40Yy0zNy44LTE0LjQtNzEuMyAyLjktNzEuMyAyLjktMy4xIDQwLjIgMTUuMSA2NS41IDE4LjcgNzAuMS0uOSAyLjUtMS43IDUtMi41IDcuNS0yLjggOS4xLTQuOSAxOC40LTYuMiAyOC4xLS4yIDEuNC0uNCAyLjgtLjUgNC4yQzE4LjggMTkyLjcgOC41IDIyOCA4LjUgMjI4YzI5LjEgMzMuNSA2My4xIDM1LjYgNjMuMSAzNS42bC4xLS4xYzQuMyA3LjcgOS4zIDE1IDE0LjkgMjEuOSAyLjQgMi45IDQuOCA1LjYgNy40IDguMy0xMC42IDMwLjQgMS41IDU1LjYgMS41IDU1LjYgMzIuNCAxLjIgNTMuNy0xNC4yIDU4LjItMTcuNyAzLjIgMS4xIDYuNSAyLjEgOS44IDIuOSAxMCAyLjYgMjAuMiA0LjEgMzAuNCA0LjUgMi41LjEgNS4xLjIgNy42LjFoMy42bDEuNi0uMXYuMWMxNS4zIDIxLjggNDIuMSAyNC45IDQyLjEgMjQuOSAxOS4xLTIwLjEgMjAuMi00MC4xIDIwLjItNDQuNHYtLjMtLjYtLjljNC0yLjggNy44LTUuOCAxMS40LTkuMSA3LjYtNi45IDE0LjMtMTQuOCAxOS45LTIzLjNsMS41LTIuNGMyMS42IDEuMiAzNi45LTEzLjQgMzYuOS0xMy40LTMuNi0yMi41LTE2LjQtMzMuNS0xOS4xLTM1LjZzLS4xLS4xLS4zLS4yLS4yLS4yLS4yLS4yYy0uMS0uMS0uMy0uMi0uNS0uMy4xLTEuNC4yLTIuNy4zLTQuMS4yLTIuNC4yLTQuOS4yLTcuM3YtMy4yLS42bC0uMS0xLjUtLjEtMmMwLS43LS4xLTEuMy0uMi0xLjlzLS4xLTEuMy0uMi0xLjlsLS4yLTEuOS0uMy0xLjljLS40LTIuNS0uOC00LjktMS40LTcuNC0yLjMtOS43LTYuMS0xOC45LTExLTI3LjItNS04LjMtMTEuMi0xNS42LTE4LjMtMjEuOC03LTYuMi0xNC45LTExLjItMjMuMS0xNC45LTguMy0zLjctMTYuOS02LjEtMjUuNS03LjItNC4zLS42LTguNi0uOC0xMi45LS43aC0zLjJsLTEuNi4xYy0uNiAwLTEuMi4xLTEuNy4xLTIuMi4yLTQuNC41LTYuNS45LTguNiAxLjYtMTYuNyA0LjctMjMuOCA5cy0xMy4zIDkuNi0xOC4zIDE1LjYtOC45IDEyLjctMTEuNiAxOS42LTQuMiAxNC4xLTQuNiAyMWMtLjEgMS43LS4xIDMuNS0uMSA1LjJ2MS4zbC4xIDEuNGMuMS44LjEgMS43LjIgMi41LjMgMy41IDEgNi45IDEuOSAxMC4xIDEuOSA2LjUgNC45IDEyLjQgOC42IDE3LjRzOC4yIDkuMSAxMi45IDEyLjRjNC43IDMuMiA5LjggNS41IDE0LjggN3MxMCAyLjEgMTQuNyAyLjFoMi42Yy4zIDAgLjYgMCAuOS0uMS41IDAgMS0uMSAxLjUtLjEuMSAwIC4zIDAgLjQtLjFsLjUtLjFjLjMgMCAuNi0uMS45LS4xLjYtLjEgMS4xLS4yIDEuNy0uM3MxLjEtLjIgMS42LS40YzEuMS0uMiAyLjEtLjYgMy4xLS45IDItLjcgNC0xLjUgNS43LTIuNCAxLjgtLjkgMy40LTIgNS0zIC40LS4zLjktLjYgMS4zLTEgMS42LTEuMyAxLjktMy43LjYtNS4zLTEuMS0xLjQtMy4xLTEuOC00LjctLjlsLTEuMi42Yy0xLjQuNy0yLjggMS4zLTQuMyAxLjhzLTMuMS45LTQuNyAxLjJjLS44LjEtMS42LjItMi41LjMtLjQgMC0uOC4xLTEuMy4xaC0yLjRjLS41IDAtMSAwLTEuNS0uMUgyMTAuMmMtLjIgMC0uNSAwLS43LS4xLS41LS4xLS45LS4xLTEuNC0uMi0zLjctLjUtNy40LTEuNi0xMC45LTMuMi0zLjYtMS42LTctMy44LTEwLjEtNi42cy01LjgtNi4xLTcuOS05LjktMy42LTgtNC4zLTEyLjRjLS4zLTIuMi0uNS00LjUtLjQtNi43IDAtLjYuMS0xLjIuMS0xLjh2LS44YzAtLjMuMS0uNi4xLS45LjEtMS4yLjMtMi40LjUtMy42IDEuNy05LjYgNi41LTE5IDEzLjktMjYuMSAxLjktMS44IDMuOS0zLjQgNi00LjlzNC40LTIuOCA2LjgtMy45IDQuOC0yIDcuNC0yLjdjMi41LS43IDUuMS0xLjEgNy44LTEuNCAxLjMtLjEgMi42LS4yIDQtLjJoMy4xbDEuMS4xYzIuOS4yIDUuNy42IDguNSAxLjMgNS42IDEuMiAxMS4xIDMuMyAxNi4yIDYuMSAxMC4yIDUuNyAxOC45IDE0LjUgMjQuMiAyNS4xIDIuNyA1LjMgNC42IDExIDUuNSAxNi45LjIgMS41LjQgMyAuNSA0LjVsLjEgMS4xLjEgMS4xVjIxNy44YzAgLjctLjEgMS45LS4xIDIuNi0uMSAxLjYtLjMgMy4zLS41IDQuOXMtLjUgMy4yLS44IDQuOC0uNyAzLjItMS4xIDQuN2MtLjggMy4xLTEuOCA2LjItMyA5LjMtMi40IDYtNS42IDExLjgtOS40IDE3LjEtNy43IDEwLjYtMTguMiAxOS4yLTMwLjIgMjQuNy02IDIuNy0xMi4zIDQuNy0xOC44IDUuNy0zLjIuNi02LjUuOS05LjggMWgtNWMtMS44IDAtMy41LS4xLTUuMy0uMy03LS41LTEzLjktMS44LTIwLjctMy43LTYuNy0xLjktMTMuMi00LjYtMTkuNC03LjgtMTIuMy02LjYtMjMuNC0xNS42LTMyLTI2LjUtNC4zLTUuNC04LjEtMTEuMy0xMS4yLTE3LjRzLTUuNi0xMi42LTcuNC0xOS4xYy0xLjgtNi42LTIuOS0xMy4zLTMuNC0yMC4xbC0uMS0xLjN2LTUuNy0uNy0yLjVjLjEtMy4zLjQtNi44LjgtMTAuMnMxLTYuOSAxLjctMTAuMyAxLjUtNi44IDIuNS0xMC4yYzEuOS02LjcgNC4zLTEzLjIgNy4xLTE5LjMgNS43LTEyLjIgMTMuMS0yMy4xIDIyLTMxLjggMi4yLTIuMiA0LjUtNC4yIDYuOS02LjIgMi40LTEuOSA0LjktMy43IDcuNS01LjQgMi41LTEuNyA1LjItMy4yIDcuOS00LjYgMS4zLS43IDIuNy0xLjQgNC4xLTJsMi4xLS45IDIuMS0uOWMyLjgtMS4yIDUuNy0yLjIgOC43LTMuMS43LS4yIDEuNS0uNCAyLjItLjcuNy0uMiAxLjUtLjQgMi4yLS42IDEuNS0uNCAzLS44IDQuNS0xLjEuNy0uMiAxLjUtLjMgMi4zLS41czEuNS0uMyAyLjMtLjVjLjgtLjEgMS41LS4zIDIuMy0uNGwxLjEtLjIgMS4yLS4yYy44LS4xIDEuNS0uMiAyLjMtLjMuOS0uMSAxLjctLjIgMi42LS4zLjctLjEgMS45LS4yIDIuNi0uMy41LS4xIDEuMS0uMSAxLjYtLjJsMS4xLS4xLjUtLjFoLjZjLjktLjEgMS43LS4xIDIuNi0uMmwxLjMtLjFoMWMuNyAwIDEuNS0uMSAyLjItLjEgMi45LS4xIDUuOS0uMSA4LjggMCA1LjguMiAxMS41LjkgMTcgMS45IDExLjEgMi4xIDIxLjUgNS42IDMxIDEwLjMgOS41IDQuNiAxNy45IDEwLjMgMjUuMyAxNi41LjUuNC45LjggMS40IDEuMi40LjQuOS44IDEuMyAxLjIuOS44IDEuNyAxLjYgMi42IDIuNHMxLjcgMS42IDIuNSAyLjQgMS42IDEuNiAyLjQgMi41YzMuMSAzLjMgNiA2LjYgOC42IDEwIDUuMiA2LjcgOS40IDEzLjUgMTIuNyAxOS45bC42IDEuMi42IDEuMmMuNC44LjggMS42IDEuMSAyLjQuNC44LjcgMS41IDEuMSAyLjMuMy44LjcgMS41IDEgMi4zIDEuMiAzIDIuNCA1LjkgMy4zIDguNiAxLjUgNC40IDIuNiA4LjMgMy41IDExLjcuMyAxLjQgMS42IDIuMyAzIDIuMSAxLjUtLjEgMi42LTEuMyAyLjYtMi44LjEtMy42IDAtNy45LS41LTEyLjh6Ii8+PC9zdmc+;" parent="1" vertex="1">
          <mxGeometry x="137" y="480" width="63" height="70" as="geometry" />
        </mxCell>
        <mxCell id="zlhoYKVswHlVtqf08jpZ-11" style="edgeStyle=orthogonalEdgeStyle;rounded=0;orthogonalLoop=1;jettySize=auto;html=1;" parent="1" source="zlhoYKVswHlVtqf08jpZ-9" target="zlhoYKVswHlVtqf08jpZ-4" edge="1">
          <mxGeometry relative="1" as="geometry" />
        </mxCell>
        <mxCell id="zlhoYKVswHlVtqf08jpZ-13" style="edgeStyle=orthogonalEdgeStyle;rounded=0;orthogonalLoop=1;jettySize=auto;html=1;entryX=0.5;entryY=0;entryDx=0;entryDy=0;" parent="1" source="zlhoYKVswHlVtqf08jpZ-9" target="zlhoYKVswHlVtqf08jpZ-3" edge="1">
          <mxGeometry relative="1" as="geometry" />
        </mxCell>
        <mxCell id="zlhoYKVswHlVtqf08jpZ-9" value="" style="shape=image;verticalLabelPosition=bottom;labelBackgroundColor=default;verticalAlign=top;aspect=fixed;imageAspect=0;image=data:image/png,iVBORw0KGgoAAAANSUhEUgAAAgAAAAIACAYAAAD0eNT6AAAACXBIWXMAAA7EAAAOxAGVKw4bAAAgAElEQVR42u3dfbSddX3n/fdv55iHfWIGGRaTwZ00ZVGGUcbSlqLjjQ+jKEpAgXJy9sFiglaUsepwOy1V67BYiEV7W25KGVorcgKWs5ODQiUnCCrDMBnbUsrKMNbFMAyT5mwZJnfukIZk54GT/Zs/9g6NEJLzsPf1+H6t5eqyyLn2+V17n+/n+l6/67tBkiRJkiRJkiQVUHAJJCl9rbHafALLgVOBpcBCYArYDjwT4ZnBenOXKyUDgCTlvugvW0iI7wJGgHd2C//AEf6nbWAn8DgwDuE71frkdldQBgBJypE962rzQ6QOfA44bRY/Ygfwx8CN1XrTICADgCRl/qq/UXsD8CfA2T34cU3gqhjCdwaHJ9uurgwAkpQxe8eWEUO8ELgdOK6HP7oN/EGshM8NrpqccqVlAJCkbBX/jwC3AvP7dJi7YoiXDw7/9IArLgOAJGWn+P8JR97g10uNWImXDa76qZ0AHVPFJZCk/kmw+APUQzvcuWf96wdceRkAJCklrUbtNxIs/j8bAta9fr5nQAYASUqn+N+acPH/hxAQw+2GAB2NewAkqVjF/3B3Ebi8Otx0Y6AMAJLULwlv+JtJCPhodbi5zzMkA4AklaP4GwJkAJCkkhZ/Q4AMAJJU0uJ/eAhwT4AAnwKQpLIUf4BLifh0gOwASFKJiv/PdAIcGywDgCSVq/gf0mhX4mWLHRtcWt4CkKQZKkDxB6hXOhMDHRtsAJAkHUtK4337FgJCdGxwWXkLQJJmVvyzMOGv13w6wA6AJKlkxR+6Twe01tUWeqbtAEiSKMyGv5l0AhwWZACQJIt/iYq/IcAAIEkqafE3BBgAJMniX9Lif3gIcGNggbkJUJIs/kfi2GA7AJJk8S+xRgzxssFhJwbaAZCkgrL4H1E9xHDn7vVODDQASFIBFWzCX89DQHdssLcDDACSVLjiX9QhP73sBLgnoEDcAyDJ4m/xnwmfDrADIEkW/xJybLAdAEnKJ3f796wT4LAgA4AkWfwNATIASJLFv0whwD0BOeQeAEkWf82FEwPtAEiSxb/MnYAY4uWDwz+1E2AAkCSLf8k0YiVeNrjKscF54C0ASYUWQ1xj8U9MPbTDnXscG2wHQJLS1GrU3gvcB3h/OulOQIirvR1gAJCkNIr/ScDfAEtdjVS4JyDjvAUgqai+ZvFP1aUhhttb62p2X+wASFJiV/9vAf4T3vfPRCfAYUF2ACQpKVdb/LPTCSBym98dYAdAkvp99b8U+Dvc+GcnQHYAJJXKByz+me4EeG4MAJLUW3vHVgC825XIdAhwbLABQJJ6K3IQ4AxXItshIMRgCDAASFIPhVgBVrgQuQgBa3c7MdAAIEk9chze/8+LeqUd7tyzzhBgAJCkOTcAXIO8hYAQw53eDjAASNJcOXY2nyHAiYEGAEmavRhoATtdidy5lMjtDgsyAEjSbLWBp1yG3IYAJwYaACRp5qr1JsCjroQhQAYASeXzgEtgCJABQFLphB8A21yHQoQANwYaACRpeqr1yX3AN1yJQoQAJwYaACRp+iLhJmCHK5H/EBBiWOuwIAOAJE3LYH1yG3CtK1EI9RDDnY4NNgBI0vS6ACH8e+BBV6IYIaA7NtjbAT0UXAJJRdVq1E4E/iNwmqtRCHfFEC8fHP6pEx/tAEjSq6vWm9tiDO/H4UBFcaljgw0AkjQtgyOTWwwBxQoBjg3uDW8BSCqFPWPLTg4h3g+c6moUwl0EPlodbu5zKQwAkmQIMATIACBJRwwBK0KIDxgCChUCLq8ON90YaACQpGmFgO8Dp7gaxQgBPh1gAJCk6YaA5SHEHxoCDAEGAEmyE6B8a8RKvGxw1U+nXAoDgCQZAgwBOgLnAEgqte6cgPcAT7sahVAPjg02AEjSDEOAw4KKEgJi8KuEj8FbAJLU5SOCheMjgnYAJGnanQDHBheHY4PtAEjSjDoBTgwsXifAiYEGAEmaVgjwdoAhwAAgSSUOAT4iWKwQ4J6ALvcASNKr8BHBwrmUiE8H2AGQpGl3AhwbXLBOgGODDQCSNN0Q4O2AYmm0K/GyxSWeGGgAkCQ7AaUNATHEywaHyxkC3AMgSdM0ODK51T0BhVIPsbxjgw0AkjSzEODY4OKFgNtb62qlCwEGAEmaXQg41xBQGKWcGGgAkKTZhwDHBhcrBNxWphDgJkBJmgPHBhdOaSYGGgAkae4hwLHBhgADgCSVOAQ4J6BYIaDQY4PdAyBJPeDY4MIp/NhgOwCSZCdAr66ww4LsAEiSnQC9unqI4c7d618/YAdAkjSdToBjg4vXCVhdpC8QsgMgSf3pBGx1YmDhOgGF2hNgB0CS+tsJ8BHBYinM0wF2ACSpv50AJwYWS2HGBtsBkJRZH1zzHabiwRpwBvAGYBlwHNAGdgD/E3iCwBMTo0M7Mt4JcGJg8ToBuR4WZACQlDkrV4+fANSBD3WL/7GutnYBm4DbIW6YWLsqk3+UDQGGAAOAJB3BeWvGF4fIp4GrgBNm+WOeAq4hcPfE6FDmnt12T0AhQ0Au9wQYACRl5ar/LcBtdFr9vbABuHJi7VAzoyHAYUEFCgExxMvz9oigAUBSylf96wkxfBi4Faj2+Mc3gV+bWDv0aAZDgHMCDAEGAEmlLv6fAG4G+jVpbSdwwcTaoU12AtRnjViJlw2uysfYYB8DlJTeFUin+N/Sx+IPnacG7lu5evzsrP3+jg0unHpohzv35GRssB0ASWld+V9Bp+2f1IWInQAl1wnIwdhgOwCS0ij+n0i4+OelE+CwoKJ0AnIwNtgOgKQ0in8/7/nnvRPgI4LFkelHBO0ASCpT8c9DJ8CxwcWR6bHBdgAklan456UT4MTA4nUCMjcx0AAgqYzFPw8hwNsBhgADgCSLf4lDgE8HFCsEZGZPgHsAJJW5+INzApScS4lk5ukAOwCSylz889IJcGxwwToBWRgbbACQ1K/ifwv56zJ6O0BJabQr8bLFKY4NNgBIsvjbCVBKISCGeNngcDohwD0Akiz+PyvLewK2uiegUOohhjvT2hNgAJBk8c9XCHBscPFCwO2tdbXEQ4ABQFKviv/NBfubkvUQcK4hoDBSmRhoAJDUq+I/UMBf0bHBSjIE3JZkCHAToCSL/7E5NlhJSWxioAFAksU//yHAscGGAAOAJIt/iUOAcwKKFQL6OjbYPQCSLP7T59hgJaXvY4PtAEiy+NsJUHb1bViQHQBJ07taiOEKOs/5D7gadgKUmHqI4c7d61/f88+dHQBJ073yL8qQn7J0AhwbXLxOwOpefoGQH2ZJFv9idgK2OjGwcJ2Anu4JsAMg6VjF33v++e4E+IhgsfTs6QATvSSLf7E7AU4MLJaejQ22AyDJ4l+OToATA4vXCZjTsCADgCSLvyFAJQwBBgBJFv9yhQD3BBQvBMxqT4ABQJLFv5whwGFBBQoBMcTLZ/qIoAFAsvhb/MsZApwTUPIQYACQLP4WfzsBhoBiaMRKvGxw1fTGBvsYoFRihw35sfj3j2ODlZR6aIc790xzbLAdAKm8V/5XALd6IWAnwE5AATsB0xgb7AdfKmfx/4TF307AEToBDgsqSicghtv3rF82YACQ9PLif7Off0PAEULAuYaAwrg0tOPv7Vm3rGIAkCz+bvgzBEwnBDg2uDj+7xDjxa/2D90DIFn8lQ4nBioJTeCXqvXmdjsAksVfdgKO1Ql4xtsBhVEDrrIDIFn8ZSdgJp0Anw4ohh0Q/lm1PrndDoBk8ZedgOl0ApwTUAzHwyv3AhgAJIu/DAHHCgHvNgTk3pABQCpP8XfCnyGgVyFgq52A3PvlPY3aEgOAVI7i7+fbEGAnQC+9twKcbACQLP4yBNgJKJcKBgDJ4i9DwBw7AY4NzqcTDABSMYu/430NAUmGAOcE5M+AAUAqZvF3w58hIOkQ4NjgfNlnAJAs/jIE9CIEPGMIyJXnDACSxV+GgF6GAG8HZN/Uy8+RAUCy+MsQMNcQcGhPgE8HZPnqP7LVACBZ/GUI6EcI8BHB7Hq4OtI8YACQLP4yBBgCymXs5f8PA4CUEyGGK3C8rwwBmrknieGhV/xNcV2k3Fz5O+RHL5flrxJeHkL8IX6VcBasrtabd9gBkCz+shOQRCdgqxMDM2FTDDSO9A/sAEjZL/7e81eeOwErQogPAKd6mlJ5X/zLar355JH+oVcUksVfdgL62QlwYmA6DgCXv1rxNwBIFn8ZApIIAU4MTNYUcGWI4d6j/Y+8BSBZ/FUsWb4dcHII8X68HdDv4v/xEMM3F41MYgCQLP4yBGQlBLgnIAPF3wAgWfxlCEgrBHwfHxHsdfG/slpvfmO6/4IBQLL4yxCQRghwTkCKxR/cBChZ/FVkeZgT4MTAFIq/AUBK2WFDfiz+KmMIcGzw3Iv/x2dT/MFbAFKaV/5XALcaxJUQ9wQUsPhPd8OfHQApO8X/ExZ/2Ql4RSfAOQEJFX8DgJRe8b/Zz58MAa8IAecaApIp/gYAKb3i7z1/GQKOHAKcGJhA8Qf3AEgWf5WVEwNLXPwNAJLFX4YAJwaWsPgbACSLv+TTASUs/gYAyeIvGQKyXfyvnO1z/gYAyeIv5T0ElHFscF+LP/gUgNRzF665xwl/yiPHBpeo+BsApD54MU5d2C3+fr5kCOhdCNgSY3h3CULAnMb7GgCklKxcM34KsNbPlgwBdgJmW/xDDN9M4mD+kZJ65PzV4xUitwJLXA0ZAvraCSji2OC+7fY3AEh9FuEDwDmuhAwBiYSAIo0NTrz4g08BSD1x3prxSoj8Z+AtroYKxomBBSz+dgCkXiXpyBnAWa6E7AQk2gl4JuffHZBa8TcASL0z5OdJhoDUQkAebwekWvzBWwDSnJ23Zn0lxPAXdgBUAk4M7F3xvzKJR/3sAEj9zdGLgdNcB9kJSLUTsCUnjwhmovgbAKRelP/IifjonwwBhoAcFX8DgNSTBMBSF0GGAENAnoq/AUDqgQhVV0GGgMyFgCyNDU5svK8BQEq0AUDLVZAhIHMhYGtGJgYmOt7XACAl2wLY5iLIEODEwKMV/7Qe9TMASP2s/4HngN2uhAwBmQ0BaQwLynTxNwBIvYkAu4EnXQcZApwYmJfibwCQemDj6Ko28JArIRkC8lL8DQBS74wDbZdBeikEZG4y5mFjg/vVsTsAfCwPxd8AIPVIDGwGHnMlpJdCwLdXrh6vZTAEbAHeATzY4x/9HHBBtd4czUPxNwBIPbJxdGgK+H1XQnpJDbh15Zrxgay9sGq9uS2GsBL4DLBjjj9uCmgAv1KtNx/M0wkyAEg9EuA7wMOuhPSS84lcksUXNjg8OVWtN/8wEv45cAPM+HHeA8C9wNuq9eZItd58Nod/syT1yso146cS+RtgsashAfAUxF+cWLtqX5ZfZKuxbCHEc4Bz6Xyz56l0bmUcXvC3AJuBHwLfrdabz+X5xAz43pR6mqifinA5sA47bBKdQhrOB+7O8ous1if3ARuADa1GDaASIlVgfuxcKu8khnZgHotGthTl75WkXnrfmjHmxYHfBG4yBEgAbJxYO7TSZTAASIV33pr1hBg+DXwNO23SLgI/PzE6tMOlyA6vTqR+XO6MriKG+IfAZ+nsEpbKbAmRN7kMBgDJECCVjwHAACAZAqQS+nmXwAAgGQKk8jneJTAASGUPAX5ngKw38oRIJQwBVxkCVEI7XQIDgGQI6MwgNwSoTCZdAgOAZAgI8Y+6IUAqi5+4BAYAyRDwDyHgU3YCVAL76MzQlwFA0mEhwD0BKrrNA2Fe02UwAEj62RBwaGOgjwiqqP7sz0cvdhUMAJJeJQQ4J0BFtB1ouAwGAEmGAJXLjRNrh7a7DAYASYYAlcdPYuAPXQYDgCRDgMqjBXx04+jQbpfCACBp5iHApwOUR1PAlRNrh/7SpTAASJpdCPARQeVNG/hUDPEOlyLbgksgZdd5a9YTYvhN4GZXQzkp/p+MIf7xxtFVroYBQFKPQsBN2LVTtov/lRNrh77uUuSDf0ykjHvZdwd4O0BZNNW98rf4GwAk9SkEuCdAWSz+n7Ltnz/zXAIpH/775nF+4ZeG/ioQdgLvMcDL4i8DgFS+EPD3hgBZ/GUAkAwBksVfBgDJECBZ/GUAkAwBksVfL+McACnnunMCPg3caAhQHznkxwAgKaMhwGFBsvjLACCVOAQ4NlgWfxkAJDsBhTAFPAc0u//3WWA78P8Du4Dd3f+8/CuU5wNVYEn3P/8YOBFYCtSAk7r/3a6Jxd8AIMkQkHLBeQb4MfAE8LfAkyHwTIR9AaY2jA715EAr14wDDARYHOEUIqcBbwTOAE7vhoMyBwM3/BkAJOU0BHwa+BowkOGX2gIeB34E/CcCjwXYvmF0aCqtF3Thmnt4kan5RJYCbwHeBrwdOK3bUbD4ywAgFbR4LgwxvAl4K/DPuleCVeAAnbbzfwMej4FHN44O7TAEzOoK/wfA/cCmdji44/7ReqbfE+9fs65SiZWlwDuB9wPv6r4vLP4yAEh5duGae3gxTr0B+BhwCZ37w8eys1vIbq2E8Mh9o5dMZe33ykgIaANPAfcC3ybwxMTo0IE8v19WrhmvEjkLGALOB5Zb/GUAkPL3x3wpkeuBS4GFsyxwjwBXT6wdetQQ8JJtwN3AnSGExzZkMCD1MAycDazuhoElFn8ZAKSs//FePX4ecBudXeFztQ+4nsANEynew045BEwBjwK3xMCGjaNDu0oWJk8kUgc+TmfPQF42EVr8DQBSOZy3Zn2lWxB/vw8F8W7gsom1Q/syGgL6MTFwH/Ad4KbXhIFH7x29qOzvr4EQwznAVXT2C2R5I6bF3wAglar4/w5wfR8PswEYKkEIaAHfBG6cWDv0jO+uI3QFVo+fCXwWuJjsPUXgc/4GAMniX7IQMNc5AfuAbwBfmVg71PSdNY0gsGb8dCJfpLPJNAu3BtrAlTHEr1v8DQBSGYr/54HrEjzsBmB4Yu1QK6MhYKZjg9tAI8AXN3jFP5eOwO8B56R95T+xduiPPSPl5fhLla34X5vwoc8H1q1cPV7N0npsHF1FDPGPgE91i8F0/Aj4vwh8yOI/exNrhx4jcC7wQeDpFF7CFN22v2fDDoBUpuKfVuj9LjCS0U7AsfYEbAM+B/GOibWrpnxH9TAdrhmvxsi/Ba6mM2wqieLvhj8ZAGTxNwQc9RHBNnBXDHx24+jQNt9N/bNy9fhpwC10nhiw+CsR3gKQxT85HwDGMno74A/p7FQ/dIW/FbioEsJqi3//TawdejJ0Rgx/is6ESYu/7ABIBSn+eeoE/MsY+IyFP9VuwJ8CZ1v8ZQCQilP8D8nk0wHvWzPGAAOVDaNDbd9JKYaANeMLiVwD/FvmNkTI4i8DgCz+GQ0BmZsToMy8lwkxnE9nVPWJFn8ZAKSjF/+khvwYApRMN2D1+MnAOPDLFn/1kpsAZfFP1/nA+MrV4ws9izqSibVDzxDjO4D10/xX2hZ/GQBUluJPTou/IUDTCwF3rNodQxwBbuDog5uc7a9p8xaAinDln/R4337J5MZAZcvK1eNX0JkZMHCE4n/lxNqhr7tKsgOgshT/awvyK2VybLCyJYb4dWCEzjcxHnJovK/FX3YAVKriX7Qgm8k5AcqOC9fcw4tx6r10NgdW8Z6/DACy+BsCVB4rV4+/F1geQ/yGxV8GAFn8DQGSZACQxd8QIEkGAFn888inAyQZAFTa4p/n5/x7FQJKPzGwNbZsPiEuBpZ3/1MDTgBeBywGDp+lMAXspvPtev8f8BydbzncQmRnYGDfopEtfsBkAJAs/oaATBX7xusrEE4A3gK8mc4o3NO6RX8uX5DTBrYBTwObgb8GfgRsqdabU77NZACQLP6GgAQ9f88KFuw/OB/iW4ELgHcBp8+x2M/EM8AjwEQkPEgIuwaHt/qOkwFAsvgbAvph79iKSgxTZwMfAi6m09JP2z7gQeDPYgzfHRyZ9MuaZACQEir+RRnv288QkOuNga1G7QTgI8DHgFMy/FJ3AN8Cbt2/YODJ1120xXefDABSH4t/GXf7z1QuHxFsjdVOIXAV8GE6G/fyYqrbFfhKiGxaNNJs+xaUAUCy+BsCjl34TybwOeBSOuNr86oNPARcF+LAIz5JoLzyj6ws/vn2AeDTmS78jdrxrUbtKwT+C/AbOS/+h/5ungP8MIapb7catdN8G8oOgGTxT9oW4M0Ta4e2Ze2F7RmrDYTAKuD36DyzX1S7gf8Xwleq9cndviVlAJAs/v02BVw0sXZoQwav+pfT+c7680p0Xn8CXFmtNx/xrak8GHAJlGLxx+I/J3eEwMZMXQqvf32l0g6rgJvJxuN8SXoD8P1Wo/YHMXDt4HDTRwdlB0B6lSt/n/OfvWcJ/NLEaHZa/611tSqRrwFXGOjYBFxWrTe3+FaVAUCy+PfS6om1Q3dkpvh3Wv7jwFmempc8B1wWYvjBopFJV0OZY9tVFv/8eSSGeFcWXsjz96yg1ai9BfgLi/8rLAUmYohX/P23f87VkAFApS/+n7f4z8kU8NmNo6sy8aU1C/ZPfQD4PnCSp+aI5gO3vubFg9fvHVvmnisZAFTq4n+tqzEn32qHg49l4YW0GrVL6bT9F3tajvl39vMxxJv2jNUMAcoM9wAo6eJv6JxDzQXeOLF2aEsGiv8ngJu6V7iavjtiDB8bHJk84FLIDoAs/pqur4dAFor/pRb/WftwCPFGbwfIDoAs/pr+1X/gFyZGh55NufifT6ftv9BTMic37F8w8Dm/WVB2AGTx17Gv/iHt4n8m8GcW/5747QX7p37TZZAdAFn8dTT7YuAXNo4ONVMs/ifRedRvuaejZw4AF1TrzQddCtkBkMVfR3JXusV/2UJgncW/5+YDf7a3UTvZpZABQEUo/r8DXOd7q2em6MzVT6n4Lwfi9cDZnoq+OCHCWKuxrOpSyACgvBd/h/z01qaJtUOb0zt8+3zg33ga+uosiNe9MG6DRQYA5a/4Y/Hvm1vSu/qvnQj8iX8nEvHpeQfb57gMMgAob1f+v2vx74tnY2BDGgfeO1arADfiiN+kDAC3thq1JS6FDADKS/F3vG//NDaODqXynfIx8D6g7ilI1CnANS6DDADKU/H3fdR7U3SeuU9cq7FsMfA1z2sq/nWrUTvDZVASHEcpi382/aQd2ilt/ov/Gjgt4+vTBp4DngB+DPwP4FkirQg7A1QJLAZOBH4eeANwBrAi43/3FgJf2Tu27P2LRibbfgxkAJDFv3zG7x8dTrwA7GnUlgK/ldE1mQI2A98GNkJ4qlqfnPYtkr1jywZiiDXgHODXgLcDWXz87pwY4nuB7/kxUD85CVAW/2wWul+aWDv046QP3GrUrgc+n7H12A2sB24Jkc2LRppzDkZ7x2rEEJZD/DBwJdnb7PiXEN5WrU9O+XGQAUAW//J4Mob4LzaOrkr0j3+rc/X/t8DxGVmHfcC3gOur9eaWfh1kT6O2JMAn6HQ+TsjI796mMyZ4ox8H9Yt/yDXd4u+Ev+R8L+ni33VFhor/Y8A7qvXmx/pZ/AEG681d1XrzqxF+EbirW3yz8Lf56j3rlvlpkAFAqRd/n/NPzkTSB9zT2fn/8Qz87lPAV2PgbdV689EkDzxYbz7brsTLgA8BOzOwFm8NMb7Fj4P6xU2Asvhny04CjyV90EC8kPTvg+8CLq/Wm99J6wUsXvXTNtBoNWqHNhu+IeW/z1cCf+nHQnYAZPEvvscnRofSuPpM++p/W4R3p1n8D1etN5+MIfwr4Ecpv5SLW43aCX4sZABQksX/8xb/VPzHpA/YatROA9JsNW8Dzh2sNx/L0okYHJ7cFmNYmXIIWAxc4sdCBgAlWfwd75uOTSkccxXp3Q7cDXywWm9uzuLJGByZ3Al8EPhJii/jQ34sZABQksXf90byWnQm2yVtKKXftw18rF2Jmb7HXa03twMXAdtTeglvaTVqNT8eMgDI4l9cz4TAjkQTR6N2KultdPv3+xcMNBav+mnmT0y13nwK+BjpPCI4AJznx0MGAFn8i+uJDaNDSReY96Z0zp8khKtfd9GW3Jyc/QsG7gVGUzr8yhfGl/sJkQFAFv+C+i8pHPPcFI45BXyyOjzZytPJ6YaVq+l8CVHS3jkwxXw/IjIAqFfFH4t/piS60eyF8eUV4OwUfs/v7l8w8FAeT1B3P8B1KRx6SQztX/YjIgOAennl73jf7HgyyYPNO9g+HTgu4d/xAJFr89T6f4XIN4GnUzjyW/2IyACgXhR/h/xkyy4C2xI+5pkp/J4PVkeaT+T5RFVHmvuAm1M49Jv9mMgAIIt/8TwXiUnfE/+VFH7PW4txusJdJP99AW9qNWr+zZYBQLMu/k74y6Znk/wGwL1jNYDTE/4dmzHwUBFOVrU+uR34XsKHPRmo+lGRAUCzLf5O+MtoAEjyYDEwAJyS8O/43cHh5r4CnbPxhI83n8jJflRkANBsi7/n3ABAiFSBpQn/jvcX7Jw9QmeUcYInzgAgA4As/kXzvxPtAEAt4fdDC3isSCesXYnbSf47ApwGJAOALP4Fk+gIYELiV/9b25XKtiKdsO4I46RDzT/1oyIDgCz+xbIr4eMl/R3zTy5etbVdwPP2twU/bzIAyOKvPtud8PGSHgD0TEHP25aCnzcZAGTxVz/FQNIzAJYkfLz/XdBT91zBz5sKbMAlKFzx/x3SmVUuP/tHs6ug67ir4OdNdgCUo+LvkB9lUcvfSzIAqPfFH4u/Mm6xv5dkAFDvr/x/1+KvGZpK+HgGgN444FtXBgA53ldzkfS966I+v35Swsfb7VtXBgCLv7v9CyTExK8kdyR8vKKOsD254OdNBgBZ/NVnSX/L2/aEj3fannXLivhefWPBz5sMALL4q8+SHfASE39+fXmIcWmRTtju9a8HODPhw/4vPyoyAFj8PXfFcnySBwvQBJIczbsQOKtQfzzbYSlwWsKH3epHRQYAi7+K5Z8k2wBgHwl/BTGwsmDn7EUejuwAABMXSURBVO0kfesm8rQfFRkAylf8D03485wVU6Lt8dB5DDDpYvK+VqNWLdA5G0r4ePsIiX/3gAwAykDx9zn/YqslebBFI02AH6fwO763CCer1agtTeF3eZpO50YyAFj8VSAnrVwznvSc979J4fe8cu9YrQjn68Mk/8U8T1TrzbYfFRkALP4qlqUk/yjgoyn8nu+Kye+c7+3V/1htMfDJFA79V35MZAAoR/H/vMW/VBaT8FS5A/MHniT5wTIDBK57/p4V+T1TgSuA5Skc+Ud+TGQAKEfxd7xv2cRkHyk77uItbeCRFH7T9y7YP3V+Lq/+G7WTgC+kcOidIVY2+yGRAaAcxd9zUz5vSOGYD6T0d+emvY3akjydnG7X4mskPLOh66EXX5P4FzjJACCLvxLyiykc80FIpbCcHOHGPN0KWLB/6teBVSkdfmLJJc4AkgHA4q+iOuP8hJ8EqNabz5D844CHrFmwf+oj3ZG6mdZq1E4Hbknp83kA2OjHQwYAi7+Ka3mMnJDCcdel+Pfnlko7vCvjxf8k4B6Sf+zvkE3VevM5Px4yABSr+GPx12EWAmekcNz13avMtH7nb7catbOzeEL2jC1bCkwAp6T4Mu70oyEDQDGv/B3vq8O9LekDdm8DbErxdz4OuK/VqL1r79iKLF35Lw8h3p9SKDtkF3CvHwsZAIpS/FevwyE/ehVvP2/N+jSO+ycp/97HAffFMPXhPY1lqb6Q5+9ZQatROxP4DykXf4D11Xpzpx8LGQAK4II1dxOofKR75S+93JsCIfHHzCJ8l/S/arYK3B6It7bW1Ran8QL2jv1cZcH+qSu6xf/klNdjCrjVj4QMAAXRjvFM0ttNrOxbQuStSR90sN7c131fZuFv0ieI/HWrUUt0c2CrUVsRw8H76HRDFmdgLR6u1puP+5GQAaAAVq4eXwj8KZ2NT9KreX86hw3fALZnZA1OA77fatTGW41aXwcktRq1E1qN2vXA3wLnZeVaAfh9Pwrq6yfeJUg0AHwCW3o6tqcJvHFidCjxnfmtRu1a4N9lbD0O0LlFcUs7sGnxcHPOg4t2r389lXY4Dfg4sIbOHoQs2USc947qyN/57X8yABTk6v+/ku7jRMqHNvDmibVDjyV94D2N2vGhcyW8NKPr8jSdXfETMbB5cLi5a9q/27pl80OMpwHnAL8GnAUMZPD3nALeU603H/ajoH4acAkS806Lv6ap0i1QiQeAwXpzR7cdfnNG1+VU4LeB3w6Rna1G7Uk6kwz/B/AsncfmWsB8OoN7TgR+HngDMZ7e/e9Zv/W5IcTwiB8D2QEoTgfgNuAjroSm6SlCfOPE6KrE5/S3GssWQvwL0n8EroxawK9W682fuBRKIlGrz85bs36g2wGQpusUYjgrjQNX65P7gM+C3z6Xgj+w+MsAUCQxnAic5EJohp/Ny9J7y4aHgVFPQ6J+HANfcRlkACiQ0Lnv6KN/mqlLVq4ZT+ULaAaHJ9vA1cAWT0MiDgBXDg43d7sUMgAUywkugWb1volcnNbBq/XmDuCjeCsgCV/dv2Bgk8sgA4DrLB1yZZoHD3HgIeCrnoa+2hRi5brXXbTFlZCFqYBaLoFm6cyVq8ffmtbBF41sIcR51wAPeir64lkIw4tGth5wKWQAKOyH3DaqZv0ZvSrNF7Bo5O+mYuBDdIbwqHf2AcPV+uSzLoUMAAUVAs8BO1wJzdKFK1ePpzpEanC4uR24iOx8V0DetYGPV+tN7/vLAFBkG0aHWoDf6qW5fE7PSvtFVOvNHwNDgDvV5178v7h/wcAdLoUMAOVwn0ugWRaLa2KIjSy8mO58+g/RaV9rdv6fEMMNbvqTAaAsAvfSmVMuzbT4f3nj6KrMfCtctd78LnC5IWBW5/OPYgxfWDQy6bf8yQBQFhOjQ88Cd7kSynPxPywENIARvB0wk/P51RjDVYMjk24IlgGghL4C7HQZlOfif1gIuBf4IG4MPJYp4HMhhi9Y/GUAKGsXYO3QFuBaV0J5L/6HhYCHgHfjI4KvpgWs3r9g4Ku2/WUAKLsY/wj4jguhvBf/w0LAEwTeBjzkKfwZW4F/Va0373LDnwwAYuKOVVMxhMsBn//Vy+Wu+L8UAoabz8UQz6UzNtgrXfhBDPxqtd581KWQAUAv2Th6yS4CKw0BOswX8lr8Dxkc/ulUDOFqYCWd6ZdltA+4+uC8yrmDw81tvq2VZcElSM/KNeNLiEwAZ7sapS/+N+S5+L/cnnW1E0LkRuDSEl1oPEpnut9m39KyA6Cjmhgd2kXgAjsBFv8iFf9ON6C5PUZWAxcATxX8HO4EPhvhHRZ/2QHQTDsBxxH5c+DtrkZpHNrw96WNo6sK/Yu2xmqLCfwm8FvA8QX61Q7Qme1xTbXe3OpbWgYAGQI03eL/5aJd+R81CDRqS7sh4DeAJTn+VaaADcC1IbJ50UjTd7QMADIEyOI/jSBwEvDJbhA4MU8vHbgX+FqI4fFFI5O+m2UAUE9DwPFE7jEEWPyLbk+jtiRAHfgYcAYwkNGXugX4FnDb/gUDW3ymXwYA2QmQxb8H9o6tqMQwdQad7xa4GFhB+huUtwMbgTEID1Xrkwc8UzIAyBAgi3+/ugLrlg+E2H4TcB7wHuBMoJrAoaeAJ4EfAPdHwqbB+mTLMyIDgNIMAffhnIC8+6LFf3a6TxCcCZwF/ApwOnAysHCOgWwr8BPgceCviTxaHWk+54rLAKAshQCHBeVbIZ/zT7dLsGwgtGONwHLgJDobCY8D/hGv3EewE3gB2AY8R6RJCFuqXt1LBgBDgCz+kgwAMgTI4i+pFBwFnBOHjQ1+xNWw+EuSAaBcIWAngQ8aAjKrTWfDn8VfUuZ5CyCHfEQws8XfR/0k2QFQ3zsBF9kJsPhLkh0AOwGy+EuSAcAQIIu/JBkAyhACnBho8ZckA4AhQH3meF9JBgBlJgQ4LCgZX+gWf1dCUm75FECBdIcFrQQ2uRp9Lf43WPwl2QGQnYDyFX/b/pLsACiznQDHBveOE/4k2QFQrjoBPiLYm+Lvbn9JBgAZAiz+kpR/3gIoOMcGW/wlyQ6AnQA7ARZ/STIAGAJk8ZdkAFCZQoATAy3+kgwAKmEIcE7AkTneV5IBQIaAknHIjyQDgI6t1aidROde+puBU4ATDv0jYCvwX4FHQqxsXjSydcoQYPGXJANATu0dq1Vi4H3AZ7rFf+Ex/pU28AxwG/CNar25PYMhoOx7Aiz+kgwAOrLn71nBgv1TbwJu6hb+2cxP2AZc0yZ8Y3F9MlMdgZI+HXBow9+X/GIfSQYAvcIL65dX5rXbHwFuBBb34EduiHD5YMa6ASULAe72l2QAcAle3e71yyqVdrwG+F16OzVxcwy8f3C4+ZwhwOIvSQaAchT/Q56IgXMzGAKOJ3JPQUOAxV+SDACpFv/DQ8B7Boeb2+wEWPwlKUl+GdDLvDC+PKniD/CmEPn+nnW1E7O0Bt0vEPogxfkCIYu/JNkBeHV//+2f4zUvHrwO+HzC4SjLnYAiPCLohD9JsgNwZM/fsyKt4n94J2BpBjsBK4FNOT61X7D4S5IdgFct/gv2T6VV/F/eCcjixsC8Tgx0yI8k2QHIfPE/1Am4P4OdgF057ARY/CXJAJCL4n/IGd0QcFIGQ8AF5GNjoMVfko6htLcAXhhfXpl3sH1txor/4TbHwMrB4eazWXpRGX9E0N3+kmQAOFrxX1aZdzCxR/3mGgKcGGjxlyQDwFwlOOSn6CEgSxMDLf6SZAAoVPE/JKtPB2ShE2DxlyQDwKvLUdv/aCHAscEWf0kyAEy/+C+vzDvYznPxz0MISHpioMVfkuag8I8BPn/PCrq7/X+3AL9vlr874AKSnRNg8ZckOwCvXvwz+Jx/rzoBZZ4YeGi8r59gSbIDUJrif6gT8EAJJwa2+YchP356JckOQKmK/+E2R3jPYL25PUsv6rw1dy8JMd4OXNzDH7sP+GSk/c2Na4f95EqSHYCf9fff/rmyFH+AMwLcvruxbCBLL2rj6CW7iHEYuArY2YMf+TjwtkoIFn9JsgPwSjkY79svV1brzT/O4gtbuXp8BXA1cCmwZIb/+tPA14DRibVD+/y4SpIB4BVyPOSnF7YBb6xm7FbAzwSBNeMnEbkQuAD4ZeB44OWdi33As8DDwDjwsIVfkjISAPaOraAdpk4MnT/ipwP/FFgM7AAmgc0Qnti/YN7u1120xeKfnM9V680b8vBCz18zXo2RpcBJQJXO5r7tEbYR4raNo6um/GhKUkYCQGts2QAhvhf4JPDO7h/uo12Rfhe46WAl/Pi1qyYt/v33dIiVf75oZKvFU5I09wCwd6xGDJwO3MrMn+8+AHwrwtX92KleoAl/vdAG3lytNx/zbS1JOpbK0QvsMmLgI8BfMbvhLvOBjwT461ajdlYvX/iuuy3+RziXb3cZJElzCgCdEbrxd4A/5ejt/ulYATzQatR6MiHu+XtWMDBVmPG+vfQvXAJJ0pwCwIL9U78OXN/DAnsccN9cQ0CJhvzMxnKXQJI06wDQatROA27pQ4GdUwiw+B9T1SWQJM0qAOwdq1WA32fmQ1v6GgIs/pIk9TEAxMBZwPv6fNwZhYBddy+vWPynZbtLIEmaVQAAPsorJ7SlFgJeGF9eGZhqX2Pxn5anXQJJ0owDQGts2ULgvASPf9QQsHv9Mh/1m5m/cgkkSTPvAIR4MpD0d8wfMQQ44W/G9gGPuAySpJkHADg1pWL7MyHA4j8rD1frzWddBknSdLz8Xv+JKb6WQyHgg7Tjuy3+M9IGbnYZJEmzDQADKb+e44Dvd1+HxX/6HgmR77kMkqTZBoBdGXhN8z0tM7Ib+MyikWbbpZAkTdfLr7KfcUlypQ1ctX/BwBMuhSRpLgHgqe4VpfJR/L90sFL55usu2uJqSJJmHwD2LxjYDvh98jkp/u1KuPa1q7ba+pckzS0AdK8k17os+Sj+i1dNWvwlSXMPAF3fAba4NBZ/SVKJAkC13twFfLFbbJSt4v/lg/MqFn9JUl86AMQQGsDdLk+2iv+Lr5n3xdcOec9fkjR34dX+wZ6xZceFEB8AznKZ0i/++xcMfNHd/pKkvgcAgD3raieEyP3AmS6VxV+SVJIAYAiw+EuSShoAuiHg+BB5wBBg8ZcklSgAGAISL/5fOjivcq0b/iRJ/TLtb9wbHG7uiIH346TABIp/sPhLkrIRALohYHs3BDzq0vWn+Lcr4drXDvmcvySpv8Js/qXuxsAJfESw58XfIT+SpMx1AF7WCbjATkDviv/BeRZ/SVLGA0A3BGwzBPSk+H+5s+HP4i9JSk6Y6w/Ys652Yojch7cDZlX8fdRPkpTLANANAe4JsPhLksoWAA4LAU4MtPhLksoUALohwGFBFn9JUtkCgCHg2MX/xdfM++I/+rW/czUkSamq9PoHdicGnosTA19e/L90cF7lGou/JKmQAeCwEODEwMOKf2fCn+N9JUnZEPr5w306wAl/kqQSdQAO6wSUeWKgxV+SVM4A0A0BZZwY+NJX+lr8JUlZFJI6UIkmBraBL08NVK5Zcon3/CVJJQ8A3RBQ9D0BPucvSTIAHCUEFHFioMVfkmQAKFkIsPhLkgwA0wwBRZkYaPGXJBkAShYC2sCXpgYq17rhT5KUJ5U0D37YxMA8jg1+6VE/i78kyQAw8xCwPYdjgx3vK0nKtZCVF5KjRwSd8CdJsgPQ405A1icGWvwlSQaAPoSArI8NngJ+aPGXJBkAyhUC5gN/3mrUzvatI0nKs5DVF5bxPQE7gQuq9eYm30KSJANAf0JAVicGGgIkSQYAQ4AkSQaAXoeALE8MNARIkgwAhgBJkrKvkpcXmvGxwccB9/l0gCTJANCfEJDlscGGAElSboQ8vmgfEZQkqYQBoBsCTgyR+zIcAs6t1puP+haTJBkAyhUCtkT41cF6c7tvM0lS1lTy/OIzPjZ4RYCvvLB+me8ySZIBoE8hYGVGQ8Cvz2vH032bSZIMAP0JAdu7ISBrjwjOBz7z/D0rfKdJkgwAfQwB52YwBHxgwf6Di32rSZIMAP0LATsyGAJOhPgm32qSJANA+ULAGb7VJEkGgGRCQJYmBvoogCTJAJBQCNieoacDjvetJkkyACQbArIwJ2C3bzVJkgEg2RCQhWFB/8u3miTJAFC+EPBj32qSJANAeiEgjT0BrQiP+1aTJBkA0gsBaUwMfLgSB7b5VpMkGQDSDwHvTzAE3LJoZIvvNEmSASAjISCJYUGbiOFB32aSpKwJZf7l96yrHR8iDwBn9uHHt4A3V+tNNwBKkuwAZKwTsKNPtwPawKdCdPe/JMkAkNUQsL3HY4PbwBcOzgvfXDTS9B0mSTIAZDoExHAusL5bwGdrF7B6/4KBG147NOnCSpIyK7gE/2DPumUDIcY6cB2wYgb/6hTwPeC3qvXmk66kJMkAkEOtRm0JcDGwms4GwcVH+J+1geeAjcBtIfLoopFm29WTJBkAcu75e1awYP/UCcCpwMnAku7V/jbgKWJ4pjoyuc+VkiRJkiRJkiRJkiRlwP8BXmtTNYoCPXYAAAAASUVORK5CYII=;" parent="1" vertex="1">
          <mxGeometry x="137" y="390" width="72" height="72" as="geometry" />
        </mxCell>
        <mxCell id="zlhoYKVswHlVtqf08jpZ-16" value="" style="shape=image;verticalLabelPosition=bottom;labelBackgroundColor=default;verticalAlign=top;aspect=fixed;imageAspect=0;image=data:image/svg+xml,PHN2ZyB4bWxucz0iaHR0cDovL3d3dy53My5vcmcvMjAwMC9zdmciIHByZXNlcnZlQXNwZWN0UmF0aW89InhNaW5ZTWluIG1lZXQiIHZpZXdCb3g9IjAgMC44NzcwMDY1MzA3NjE3MTg4IDI1NS45NjAwMDY3MTM4NjcyIDI1NC45MTM5NzA5NDcyNjU2MiIgaGVpZ2h0PSIyNDg5LjM5NDI0NzUzMTg5MSIgd2lkdGg9IjI0OTkuNjA5NDQwNTY1MTA5MyI+PHBhdGggZmlsbD0iI0ZGRiIgZD0iTTI1NS45NiAxMzQuMzkzYzAtMjEuNTIxLTEzLjM3My00MC4xMTctMzMuMjIzLTQ3LjQzYTc1LjIzOSA3NS4yMzkgMCAwIDAgMS4yNTMtMTMuNzkxYzAtMzkuOTA5LTMyLjM4Ni03Mi4yOTUtNzIuMjk1LTcyLjI5NS0yMy4xOTMgMC00NC45MjMgMTEuMDc0LTU4LjUwNSAzMC4wODgtNi42ODYtNS4yMjQtMTQuODM1LTcuOTQtMjMuNDAyLTcuOTQtMjEuMTA0IDAtMzguNDQ2IDE3LjEzMy0zOC40NDYgMzguNDQ2IDAgNC41OTcuODM2IDkuMTk0IDIuMjk4IDEzLjM3M0MxMy41ODIgODEuNzM5IDAgMTAwLjk2MiAwIDEyMi4yNzRjMCAyMS41MjIgMTMuMzczIDQwLjMyNyAzMy40MzEgNDcuNjQtLjgzNSA0LjM4OC0xLjI1MyA4Ljk4NS0xLjI1MyAxMy43OSAwIDM5LjcgMzIuMzg2IDcyLjA4NyA3Mi4wODYgNzIuMDg3IDIzLjQwMiAwIDQ0LjkyNC0xMS4yODMgNTguNTA1LTMwLjA4OCA2LjY4NiA1LjIyMyAxNS4wNDQgOC4xNDkgMjMuNjExIDguMTQ5IDIxLjEwNCAwIDM4LjQ0Ni0xNy4xMzQgMzguNDQ2LTM4LjQ0NiAwLTQuNTk3LS44MzYtOS4xOTQtMi4yOTgtMTMuMzczIDE5LjY0LTcuMTA0IDMzLjQzMS0yNi4zMjcgMzMuNDMxLTQ3LjY0eiIvPjxwYXRoIGZpbGw9IiNGNEJEMTkiIGQ9Ik0xMDAuMDg1IDExMC4zNjRsNTcuMDQzIDI2LjExOSA1Ny42NjktNTAuNTY1YTY0LjMxMiA2NC4zMTIgMCAwIDAgMS4yNTMtMTIuNzQ2YzAtMzUuNTItMjguODM0LTY0LjM1NS02NC4zNTUtNjQuMzU1LTIxLjMxMyAwLTQxLjE2MiAxMC40NDctNTMuMDcyIDI3Ljk5OGwtOS42MTIgNDkuNzMgMTEuMDc0IDIzLjgyeiIvPjxwYXRoIGZpbGw9IiMzQ0JFQjEiIGQ9Ik00MC45NTMgMTcwLjc1Yy0uODM1IDQuMTc5LTEuMjUzIDguNTY3LTEuMjUzIDEyLjk1NSAwIDM1LjUyIDI5LjA0MyA2NC41NjQgNjQuNTY0IDY0LjU2NCAyMS41MjIgMCA0MS4zNzItMTAuNjU2IDUzLjQ5LTI4LjIwOGw5LjQwMy00OS43MjktMTIuNzQ2LTI0LjIzOC01Ny4yNTEtMjYuMTE4LTU2LjIwNyA1MC43NzR6Ii8+PHBhdGggZmlsbD0iI0U5NDc4QyIgZD0iTTQwLjUzNiA3MS45MThsMzkuMDczIDkuMTk0IDguNzc1LTQ0LjUwNmMtNS40MzItNC4xNzktMTEuOTEtNi4yNjgtMTguODA1LTYuMjY4LTE2LjkyNSAwLTMwLjkyNCAxMy43OS0zMC45MjQgMzAuOTI0IDAgMy41NTIuNjI3IDcuMzEzIDEuODggMTAuNjU2eiIvPjxwYXRoIGZpbGw9IiMyQzQ1OEYiIGQ9Ik0zNy4xOTIgODEuMzJjLTE3LjU1MSA1LjY0Mi0yOS42NyAyMi41NjctMjkuNjcgNDAuOTU0IDAgMTcuOTcgMTEuMDc0IDM0LjA1OSAyNy43OSA0MC4zMjdsNTQuOTUzLTQ5LjczLTEwLjAzLTIxLjUyLTQzLjA0My0xMC4wM3oiLz48cGF0aCBmaWxsPSIjOTVDNjNEIiBkPSJNMTY3Ljc4NCAyMTkuODUyYzUuNDMyIDQuMTggMTEuOTEgNi40NzggMTguNTk2IDYuNDc4IDE2LjkyNSAwIDMwLjkyNC0xMy43OSAzMC45MjQtMzAuOTI0IDAtMy43NjEtLjYyNy03LjMxNC0xLjg4LTEwLjY1N2wtMzkuMDczLTkuMTkzLTguNTY3IDQ0LjI5NnoiLz48cGF0aCBmaWxsPSIjMTc2NjU1IiBkPSJNMTc1LjcyNCAxNjUuMzE3bDQzLjA0MyAxMC4wM2MxNy41NTEtNS44NSAyOS42Ny0yMi41NjYgMjkuNjctNDAuOTU0IDAtMTcuOTctMTEuMDc0LTMzLjg0OS0yNy43OS00MC4zMjZsLTU2LjQxNSA0OS4zMTEgMTEuNDkyIDIxLjk0eiIvPjwvc3ZnPg==;" parent="1" vertex="1">
          <mxGeometry x="344" y="580" width="80.31" height="80" as="geometry" />
        </mxCell>
        <mxCell id="zlhoYKVswHlVtqf08jpZ-18" style="edgeStyle=orthogonalEdgeStyle;rounded=0;orthogonalLoop=1;jettySize=auto;html=1;" parent="1" source="zlhoYKVswHlVtqf08jpZ-17" target="zlhoYKVswHlVtqf08jpZ-16" edge="1">
          <mxGeometry relative="1" as="geometry" />
        </mxCell>
        <mxCell id="zlhoYKVswHlVtqf08jpZ-17" value="" style="shape=image;verticalLabelPosition=bottom;labelBackgroundColor=default;verticalAlign=top;aspect=fixed;imageAspect=0;image=data:image/svg+xml,PHN2ZyB4bWxucz0iaHR0cDovL3d3dy53My5vcmcvMjAwMC9zdmciIGhlaWdodD0iMjUwMCIgd2lkdGg9IjI1MDAiIHZpZXdCb3g9IjAgMCA4MCA4MCIgaWQ9IkxheWVyXzEiPjxzdHlsZT4uc3Qwe2ZpbGw6I2U5NDc4Yn0uc3Qxe2ZpbGw6IzNlYmViMH0uc3Qye2ZpbGw6IzM3YTU5NX0uc3Qze2ZpbGw6IzM1MzUzNX0uc3Q0e2ZpbGw6bm9uZX08L3N0eWxlPjxwYXRoIGQ9Ik0xOS42IDMzLjFjNy4zIDAgMTQuMiAxLjkgMjAuMiA1LjFsMjEuNC0yNS43SDE4Ljh2NTEtMzAuNGguOHoiIGNsYXNzPSJzdDAiLz48cGF0aCBkPSJNMzkuOCAzOC4ybC0yMSAyNS4zdjRoNDIuM2MtMi40LTEyLjYtMTAuNC0yMy4zLTIxLjMtMjkuM3oiIGNsYXNzPSJzdDEiLz48cGF0aCBkPSJNMzkuOCAzOC4ybC0yMSAyNS4zdjRoNy41bDIwLjQtMjQuNnMtMS40LTEuMS0zLjMtMi41Yy0xLjQtMS0zLjYtMi4yLTMuNi0yLjJ6IiBjbGFzcz0ic3QyIi8+PHBhdGggZD0iTTE5LjYgMzMuMWgtLjh2MzAuNGwyMS0yNS4zYy02LTMuMi0xMi45LTUuMS0yMC4yLTUuMXoiIGNsYXNzPSJzdDMiLz48cGF0aCBkPSJNMCAwaDgwdjgwSDB6IiBjbGFzcz0ic3Q0Ii8+PC9zdmc+;" parent="1" vertex="1">
          <mxGeometry x="329.15000000000003" y="420" width="110" height="110" as="geometry" />
        </mxCell>
        <mxCell id="zlhoYKVswHlVtqf08jpZ-19" value="" style="shape=image;verticalLabelPosition=bottom;labelBackgroundColor=#ffffff;verticalAlign=top;aspect=fixed;imageAspect=0;image=data:image/svg+xml,PHN2ZyB4bWxuczpkYz0iaHR0cDovL3B1cmwub3JnL2RjL2VsZW1lbnRzLzEuMS8iIHhtbG5zOmNjPSJodHRwOi8vY3JlYXRpdmVjb21tb25zLm9yZy9ucyMiIHhtbG5zOnJkZj0iaHR0cDovL3d3dy53My5vcmcvMTk5OS8wMi8yMi1yZGYtc3ludGF4LW5zIyIgeG1sbnM6c3ZnPSJodHRwOi8vd3d3LnczLm9yZy8yMDAwL3N2ZyIgeG1sbnM9Imh0dHA6Ly93d3cudzMub3JnLzIwMDAvc3ZnIiB4bWxuczp4bGluaz0iaHR0cDovL3d3dy53My5vcmcvMTk5OS94bGluayIgeG1sbnM6c29kaXBvZGk9Imh0dHA6Ly9zb2RpcG9kaS5zb3VyY2Vmb3JnZS5uZXQvRFREL3NvZGlwb2RpLTAuZHRkIiB4bWxuczppbmtzY2FwZT0iaHR0cDovL3d3dy5pbmtzY2FwZS5vcmcvbmFtZXNwYWNlcy9pbmtzY2FwZSIgdmVyc2lvbj0iMS4xIiBpZD0iTGF5ZXJfMSIgeD0iMHB4IiB5PSIwcHgiIHZpZXdCb3g9IjAgMCA0Mi43NyA0NC4xMTAwMDEiIHhtbDpzcGFjZT0icHJlc2VydmUiIHNvZGlwb2RpOmRvY25hbWU9InNhcF9zZV9wb3N0cmVzcWwuc3ZnIiB3aWR0aD0iNDIuNzciIGhlaWdodD0iNDQuMTEwMDAxIiBpbmtzY2FwZTp2ZXJzaW9uPSIwLjkyLjMgKDI0MDU1NDYsIDIwMTgtMDMtMTEpIj48bWV0YWRhdGEgaWQ9Im1ldGFkYXRhNjA0NDkiPjxyZGY6UkRGPjxjYzpXb3JrIHJkZjphYm91dD0iIj48ZGM6Zm9ybWF0PmltYWdlL3N2Zyt4bWw8L2RjOmZvcm1hdD48ZGM6dHlwZSByZGY6cmVzb3VyY2U9Imh0dHA6Ly9wdXJsLm9yZy9kYy9kY21pdHlwZS9TdGlsbEltYWdlIi8+PGRjOnRpdGxlLz48L2NjOldvcms+PC9yZGY6UkRGPjwvbWV0YWRhdGE+PGRlZnMgaWQ9ImRlZnM2MDQ0NyIvPjxzb2RpcG9kaTpuYW1lZHZpZXcgcGFnZWNvbG9yPSIjZmZmZmZmIiBib3JkZXJjb2xvcj0iIzY2NjY2NiIgYm9yZGVyb3BhY2l0eT0iMSIgb2JqZWN0dG9sZXJhbmNlPSIxMCIgZ3JpZHRvbGVyYW5jZT0iMTAiIGd1aWRldG9sZXJhbmNlPSIxMCIgaW5rc2NhcGU6cGFnZW9wYWNpdHk9IjAiIGlua3NjYXBlOnBhZ2VzaGFkb3c9IjIiIGlua3NjYXBlOndpbmRvdy13aWR0aD0iMTkyMCIgaW5rc2NhcGU6d2luZG93LWhlaWdodD0iMTAxNyIgaWQ9Im5hbWVkdmlldzYwNDQ1IiBzaG93Z3JpZD0iZmFsc2UiIGZpdC1tYXJnaW4tdG9wPSIwIiBmaXQtbWFyZ2luLWxlZnQ9IjAiIGZpdC1tYXJnaW4tcmlnaHQ9IjAiIGZpdC1tYXJnaW4tYm90dG9tPSIwIiBpbmtzY2FwZTp6b29tPSIxLjAzMDMwMyIgaW5rc2NhcGU6Y3g9Ii0xOC4xNzUiIGlua3NjYXBlOmN5PSItMTc3LjIyIiBpbmtzY2FwZTp3aW5kb3cteD0iLTgiIGlua3NjYXBlOndpbmRvdy15PSItOCIgaW5rc2NhcGU6d2luZG93LW1heGltaXplZD0iMSIgaW5rc2NhcGU6Y3VycmVudC1sYXllcj0iTGF5ZXJfMSIvPiYjeGE7JiN4YTs8ZyBpZD0iZzYwNDQyIiB0cmFuc2Zvcm09InRyYW5zbGF0ZSgtMzE1LjU1LC0xOTkuNDIpIj4mI3hhOwk8ZGVmcyBpZD0iZGVmczYwNDAxIj4mI3hhOwkJPHJlY3QgaWQ9IlNWR0lEXzNfIiB4PSIzMTUuNSIgeT0iMTk5LjQyIiB3aWR0aD0iNDIuOTU5OTk5IiBoZWlnaHQ9IjQ0LjM2MDAwMSIvPiYjeGE7CTwvZGVmcz4mI3hhOwk8Y2xpcFBhdGggaWQ9IlNWR0lEXzRfIj4mI3hhOwkJPHVzZSB4bGluazpocmVmPSIjU1ZHSURfM18iIHN0eWxlPSJvdmVyZmxvdzp2aXNpYmxlIiBpZD0idXNlNjA0MDMiIHg9IjAiIHk9IjAiIHdpZHRoPSIxMDAlIiBoZWlnaHQ9IjEwMCUiLz4mI3hhOwk8L2NsaXBQYXRoPiYjeGE7CTxnIGNsaXAtcGF0aD0idXJsKCNTVkdJRF80XykiIGlkPSJnNjA0NDAiPiYjeGE7CQk8ZGVmcyBpZD0iZGVmczYwNDA3Ij4mI3hhOwkJCTxyZWN0IGlkPSJTVkdJRF81XyIgeD0iMzE1LjUiIHk9IjE5OS40MiIgd2lkdGg9IjQyLjk1OTk5OSIgaGVpZ2h0PSI0NC4zNjAwMDEiLz4mI3hhOwkJPC9kZWZzPiYjeGE7CQk8Y2xpcFBhdGggaWQ9IlNWR0lEXzZfIj4mI3hhOwkJCTx1c2UgeGxpbms6aHJlZj0iI1NWR0lEXzVfIiBzdHlsZT0ib3ZlcmZsb3c6dmlzaWJsZSIgaWQ9InVzZTYwNDA5IiB4PSIwIiB5PSIwIiB3aWR0aD0iMTAwJSIgaGVpZ2h0PSIxMDAlIi8+JiN4YTsJCTwvY2xpcFBhdGg+JiN4YTsJCTxwYXRoIGQ9Im0gMzQ3LjUxLDIzMS41MyBjIDAuMjgsLTIuMzQgMC4yLC0yLjY4IDEuOTQsLTIuMzEgbCAwLjQ0LDAuMDQgYyAxLjM0LDAuMDYgMy4wOSwtMC4yMSA0LjEyLC0wLjcgMi4yMiwtMS4wMyAzLjUzLC0yLjc0IDEuMzQsLTIuMjkgLTQuOTgsMS4wMiAtNS4zMiwtMC42NiAtNS4zMiwtMC42NiA1LjI2LC03LjgxIDcuNDYsLTE3LjcxIDUuNTYsLTIwLjE0IC01LjE4LC02LjYxIC0xNC4xNCwtMy40OSAtMTQuMjksLTMuNCBsIC0wLjA1LDAuMDEgYyAtMC45OSwtMC4yIC0yLjA5LC0wLjMzIC0zLjMyLC0wLjM0IC0yLjI2LC0wLjA0IC0zLjk2LDAuNTkgLTUuMjYsMS41NyAwLDAgLTE1Ljk4LC02LjU4IC0xNS4yNCw4LjI4IDAuMTYsMy4xNiA0LjUzLDIzLjkzIDkuNzUsMTcuNjYgMS45MSwtMi4yOSAzLjc2LC00LjI0IDMuNzYsLTQuMjQgMC45MiwwLjYxIDIuMDEsMC45MiAzLjE2LDAuODEgbCAwLjA5LC0wLjA4IGMgLTAuMDIsMC4yOSAtMC4wMSwwLjU2IDAuMDQsMC45IC0xLjM0LDEuNSAtMC45NCwxLjc2IC0zLjY0LDIuMzIgLTIuNzIsMC41NiAtMS4xMiwxLjU2IC0wLjA4LDEuODIgMS4yNywwLjMxIDQuMTksMC43NyA2LjE3LC0yIGwgLTAuMDgsMC4zMSBjIDAuNTIsMC40MiAwLjQ5LDMuMDMgMC41Niw0LjkgMC4wOCwxLjg3IDAuMiwzLjYxIDAuNTgsNC42NCAwLjM4LDEuMDIgMC44MywzLjY3IDQuMzYsMi45MSAyLjk0LC0wLjYzIDUuMiwtMS41NCA1LjQxLC0xMC4wMSIgY2xpcC1wYXRoPSJ1cmwoI1NWR0lEXzZfKSIgaWQ9InBhdGg2MDQxMiIgaW5rc2NhcGU6Y29ubmVjdG9yLWN1cnZhdHVyZT0iMCIvPiYjeGE7CQk8cG9seWdvbiBwb2ludHM9IjM0NS43MiwyMzAuOSAzNDUuNzIsMjMwLjkxIDM0NS43NCwyMzAuNzIgMzQ1Ljc0LDIzMC43MSAzNDUuNzYsMjMwLjUzIDM0NS43OSwyMzAuMzUgMzQ1Ljc5LDIzMC4zNCAzNDUuODEsMjMwLjE5IDM0NS44MSwyMzAuMTUgMzQ1LjgzLDIzMCAzNDUuODQsMjI5Ljk4IDM0NS44NiwyMjkuODUgMzQ1Ljg2LDIyOS44MSAzNDUuODksMjI5LjY5IDM0NS44OSwyMjkuNjQgMzQ1LjkyLDIyOS41MiAzNDUuOTMsMjI5LjQ2IDM0NS45NiwyMjkuMzUgMzQ1Ljk4LDIyOS4yNyAzNDYuMDEsMjI5LjE3IDM0Ni4wNCwyMjkuMDggMzQ2LjA3LDIyOC45OSAzNDYuMTEsMjI4Ljg4IDM0Ni4xNCwyMjguNzkgMzQ2LjIsMjI4LjY3IDM0Ni4yMywyMjguNiAzNDYuMzIsMjI4LjQ0IDM0Ni4zNiwyMjguMzggMzQ2LjQ3LDIyOC4yMiAzNDYuNTIsMjI4LjE2IDM0Ni42NywyMjcuOTkgMzQ2LjcyLDIyNy45NCAzNDYuODksMjI3Ljc5IDM0Ni45NSwyMjcuNzUgMzQ3LjE2LDIyNy42IDM0Ny4yMiwyMjcuNTcgMzQ3LjQxLDIyNy40OCAzNDcuNDcsMjI3LjQ1IDM0Ny42OSwyMjcuMzcgMzQ3Ljc2LDIyNy4zNSAzNDcuOTMsMjI3LjMxIDM0OC4wMSwyMjcuMjkgMzQ4LjE3LDIyNy4yNyAzNDguMjYsMjI3LjI2IDM0OC4zOSwyMjcuMjUgMzQ4LjQ5LDIyNy4yNSAzNDguNiwyMjcuMjUgMzQ4LjcsMjI3LjI1IDM0OC44LDIyNy4yNiAzNDguOTEsMjI3LjI2IDM0OC45NiwyMjcuMjcgMzQ5LjA4LDIyNy4yOCAzNDkuMTUsMjI3LjI5IDM0OS4yOCwyMjcuMzEgMzQ5LjMyLDIyNy4zMiAzNDkuNDYsMjI3LjM0IDM0OS41LDIyNy4zNSAzNDkuNjUsMjI3LjM4IDM0OS42NiwyMjcuMzggMzQ5LjgyLDIyNy40MSAzNDkuNjIsMjI3LjM4IDM1MC4wNiwyMjcuNDMgMzQ5Ljk0LDIyNy40MiAzNTAuMiwyMjcuNDMgMzUwLjE0LDIyNy40MiAzNTAuNCwyMjcuNDIgMzUwLjM2LDIyNy40MiAzNTAuNjIsMjI3LjQyIDM1MC41OCwyMjcuNDIgMzUwLjg1LDIyNy40IDM1MC44LDIyNy40MSAzNTEuMDgsMjI3LjM5IDM1MS4wNCwyMjcuMzkgMzUxLjMyLDIyNy4zNiAzNTEuMjcsMjI3LjM3IDM1MS41NSwyMjcuMzMgMzUxLjUxLDIyNy4zNCAzNTEuNzgsMjI3LjI5IDM1MS43NCwyMjcuMyAzNTIuMDEsMjI3LjI1IDM1MS45NiwyMjcuMjYgMzUyLjIzLDIyNy4yMSAzNTIuMTgsMjI3LjIyIDM1Mi40NCwyMjcuMTYgMzUyLjQsMjI3LjE3IDM1Mi42NSwyMjcuMSAzNTIuNTksMjI3LjEyIDM1Mi44MywyMjcuMDUgMzUyLjc3LDIyNy4wNyAzNTMsMjI2Ljk5IDM1Mi45MiwyMjcuMDIgMzUzLjE0LDIyNi45MyAzNTMuMDcsMjI2Ljk2IDM1My4yNywyMjYuODggMzUzLjIxLDIyNi45IDM1My40MSwyMjYuODEgMzUzLjM3LDIyNi44MyAzNTMuNTcsMjI2LjczIDM1My41MywyMjYuNzUgMzUzLjcyLDIyNi42NCAzNTMuNjgsMjI2LjY3IDM1My44NiwyMjYuNTYgMzUzLjgzLDIyNi41OCAzNTQsMjI2LjQ3IDM1My45NywyMjYuNDkgMzU0LjE0LDIyNi4zOCAzNTQuMSwyMjYuNDEgMzU0LjI2LDIyNi4zIDM1NC4yMiwyMjYuMzMgMzU0LjM3LDIyNi4yMiAzNTQuMzMsMjI2LjI1IDM1NC40OCwyMjYuMTQgMzU0LjQ0LDIyNi4xNyAzNTQuNTgsMjI2LjA2IDM1NC41MiwyMjYuMSAzNTQuNjUsMjI1Ljk5IDM1NC42MSwyMjYuMDMgMzU0LjcyLDIyNS45MiAzNTQuNjYsMjI1Ljk4IDM1NC43NywyMjUuODcgMzU0LjcxLDIyNS45NCAzNTQuOCwyMjUuODMgMzU0Ljc1LDIyNS45IDM1NC44MywyMjUuOCAzNTQuNzUsMjI1LjkgMzU0LjgyLDIyNS44IDM1NC43NSwyMjUuOTEgMzU0LjgsMjI1LjgyIDM1NC43MiwyMjUuOTcgMzU0Ljc2LDIyNS44OSAzNTQuNjgsMjI2LjA5IDM1NC43MSwyMjYuMDEgMzU0LjYzLDIyNi4yOCAzNTQuNjUsMjI2LjIgMzU0LjYyLDIyNi41NCAzNTQuNjIsMjI2LjQ3IDM1NC42OCwyMjYuOTQgMzU0LjY2LDIyNi44OCAzNTQuODUsMjI3LjMzIDM1NC44MiwyMjcuMjggMzU1LjEzLDIyNy42OCAzNTUuMDgsMjI3LjY0IDM1NS40NCwyMjcuOSAzNTUuMzcsMjI3Ljg3IDM1NS42OSwyMjguMDEgMzU1LjYxLDIyNy45OSAzNTUuOCwyMjguMDQgMzU1Ljc2LDIyOC4wMyAzNTUuODksMjI4LjA2IDM1NS44NCwyMjguMDUgMzU1LjkzLDIyOC4wNiAzNTUuODgsMjI4LjA2IDM1NS45NiwyMjguMDYgMzU1LjksMjI4LjA2IDM1NS45OSwyMjguMDYgMzU1LjkyLDIyOC4wNiAzNTYsMjI4LjA2IDM1NS45MywyMjguMDYgMzU1Ljk4LDIyOC4wNiAzNTUuOTEsMjI4LjA3IDM1NS45NywyMjguMDYgMzU1Ljg5LDIyOC4wNyAzNTUuOTQsMjI4LjA2IDM1NS44NiwyMjguMDcgMzU1LjkxLDIyOC4wNyAzNTUuODIsMjI4LjA4IDM1NS44NywyMjguMDcgMzU1Ljc4LDIyOC4wOSAzNTUuOCwyMjguMDggMzU1LjcsMjI4LjEgMzU1LjcxLDIyOC4xIDM1NS40OCwyMjguMTUgMzU1LjQ2LDIyOC4xNSAzNTUuMjQsMjI4LjE5IDM1NS4yMSwyMjguMiAzNTUsMjI4LjIzIDM1NC45OCwyMjguMjQgMzU0Ljc3LDIyOC4yNyAzNTQuNzUsMjI4LjI4IDM1NC41NCwyMjguMzEgMzU0LjUyLDIyOC4zMSAzNTQuMzIsMjI4LjM0IDM1NC4zLDIyOC4zNCAzNTQuMTEsMjI4LjM3IDM1NC4wOCwyMjguMzcgMzUzLjksMjI4LjM5IDM1My44NywyMjguMzkgMzUzLjY5LDIyOC40MSAzNTMuNjcsMjI4LjQxIDM1My41LDIyOC40MyAzNTMuNDcsMjI4LjQzIDM1My4zLDIyOC40NCAzNTMuMjcsMjI4LjQ0IDM1My4xMSwyMjguNDUgMzUzLjA4LDIyOC40NSAzNTIuOTIsMjI4LjQ2IDM1Mi45LDIyOC40NiAzNTIuNzUsMjI4LjQ2IDM1Mi43MiwyMjguNDYgMzUyLjU4LDIyOC40NyAzNTIuNTQsMjI4LjQ3IDM1Mi40LDIyOC40NiAzNTIuMzcsMjI4LjQ2IDM1Mi4yMywyMjguNDYgMzUyLjIsMjI4LjQ2IDM1Mi4wNywyMjguNDUgMzUyLjAzLDIyOC40NSAzNTEuOTEsMjI4LjQ0IDM1MS44NywyMjguNDQgMzUxLjc1LDIyOC40MyAzNTEuNzEsMjI4LjQzIDM1MS41OSwyMjguNDEgMzUxLjU2LDIyOC40MSAzNTEuNDUsMjI4LjQgMzUxLjQxLDIyOC4zOSAzNTEuMzEsMjI4LjM3IDM1MS4yNywyMjguMzcgMzUxLjE3LDIyOC4zNSAzNTEuMSwyMjguMzQgMzUwLjkxLDIyOC4zIDM1MC44MiwyMjguMjggMzUwLjY1LDIyOC4yMyAzNTAuNTYsMjI4LjIxIDM1MC40MSwyMjguMTYgMzUwLjMsMjI4LjEyIDM1MC4xNiwyMjguMDcgMzUwLjA2LDIyOC4wMyAzNDkuOTQsMjI3Ljk3IDM0OS44NCwyMjcuOTIgMzQ5LjczLDIyNy44NyAzNDkuNjIsMjI3LjgxIDM0OS41MiwyMjcuNzUgMzQ5LjQzLDIyNy42OCAzNDkuMzQsMjI3LjYyIDM0OS4yNCwyMjcuNTUgMzQ5LjE3LDIyNy40OSAzNDkuMDcsMjI3LjQxIDM0OS4wMSwyMjcuMzUgMzQ4LjkyLDIyNy4yNiAzNDguODYsMjI3LjIgMzQ4Ljc4LDIyNy4xIDM0OC43MywyMjcuMDUgMzQ4LjY2LDIyNi45NiAzNDguNjMsMjI2LjkxIDM0OC41NiwyMjYuODEgMzQ4LjUzLDIyNi43NyAzNDguNDcsMjI2LjY2IDM0OC40NCwyMjYuNjIgMzQ4LjM5LDIyNi41IDM0OC4zNywyMjYuNDcgMzQ4LjM0LDIyNi4zOCAzNDguMzIsMjI2LjM1IDM0OC4yOSwyMjYuMjUgMzQ4LjI4LDIyNi4yMyAzNDguMjcsMjI2LjIgMzQ4LjI3LDIyNi4xOSAzNDguMjEsMjI1Ljk0IDM0OC4yLDIyNS45MyAzNDguNDgsMjI0LjYxIDM0OC45NywyMjMuODcgMzQ4Ljk0LDIyMy45MSAzNDkuNDEsMjIzLjE2IDM0OS4zOSwyMjMuMiAzNDkuODMsMjIyLjQ0IDM0OS44MSwyMjIuNDggMzUwLjI0LDIyMS43MSAzNTAuMjIsMjIxLjc1IDM1MC42MywyMjAuOTggMzUwLjYyLDIyMS4wMSAzNTEuMDEsMjIwLjI0IDM1MC45OSwyMjAuMjcgMzUxLjM2LDIxOS41IDM1MS4zNSwyMTkuNTMgMzUxLjcsMjE4Ljc2IDM1MS42OSwyMTguNzkgMzUyLjAyLDIxOC4wMiAzNTIsMjE4LjA1IDM1Mi4zMiwyMTcuMjggMzUyLjMxLDIxNy4zMiAzNTIuNiwyMTYuNTUgMzUyLjU5LDIxNi41OSAzNTIuODYsMjE1LjgzIDM1Mi44NSwyMTUuODcgMzUzLjEsMjE1LjEyIDM1My4wOSwyMTUuMTYgMzUzLjMyLDIxNC40MiAzNTMuMzEsMjE0LjQ1IDM1My41MywyMTMuNzMgMzUzLjUxLDIxMy43NyAzNTMuNzEsMjEzLjA1IDM1My43LDIxMy4wOSAzNTMuODcsMjEyLjQgMzUzLjg2LDIxMi40NCAzNTQuMDEsMjExLjc2IDM1NCwyMTEuODEgMzU0LjEzLDIxMS4xNSAzNTQuMTIsMjExLjIgMzU0LjIyLDIxMC41NiAzNTQuMjIsMjEwLjYxIDM1NC4zLDIxMCAzNTQuMywyMTAuMDUgMzU0LjM2LDIwOS40NiAzNTQuMzUsMjA5LjUzIDM1NC4zOSwyMDguOTYgMzU0LjM5LDIwOS4wMyAzNTQuNDEsMjA4LjQ5IDM1NC40MSwyMDguNTcgMzU0LjQxLDIwOC4wNyAzNTQuNDEsMjA4LjE1IDM1NC4zOCwyMDcuNjggMzU0LjM5LDIwNy43OCAzNTQuMzQsMjA3LjM0IDM1NC4zNiwyMDcuNDYgMzU0LjI5LDIwNy4wNSAzNTQuMzIsMjA3LjE5IDM1NC4yMiwyMDYuODIgMzU0LjI3LDIwNi45OCAzNTQuMTUsMjA2LjY1IDM1NC4yMywyMDYuODQgMzU0LjA5LDIwNi41NSAzNTQuMjEsMjA2Ljc2IDM1NC4wNSwyMDYuNTIgMzU0LjE1LDIwNi42NSAzNTMuOSwyMDYuMzUgMzUzLjk0LDIwNi40IDM1My42OSwyMDYuMTEgMzUzLjczLDIwNi4xNiAzNTMuNDgsMjA1Ljg4IDM1My41MiwyMDUuOTIgMzUzLjI2LDIwNS42NiAzNTMuMzEsMjA1LjcxIDM1My4wNCwyMDUuNDYgMzUzLjA5LDIwNS41IDM1Mi44MiwyMDUuMjYgMzUyLjg3LDIwNS4zIDM1Mi42LDIwNS4wOCAzNTIuNjUsMjA1LjEyIDM1Mi4zNywyMDQuOTEgMzUyLjQyLDIwNC45NSAzNTIuMTQsMjA0Ljc1IDM1Mi4xOSwyMDQuNzggMzUxLjkxLDIwNC41OSAzNTEuOTgsMjA0LjY0IDM1MS40MSwyMDQuMyAzNTEuNTEsMjA0LjM2IDM1MC45MywyMDQuMDYgMzUxLjAzLDIwNC4xMSAzNTAuNDUsMjAzLjg1IDM1MC41NSwyMDMuODkgMzQ5Ljk2LDIwMy42NyAzNTAuMDUsMjAzLjcgMzQ5LjQ2LDIwMy41MiAzNDkuNTUsMjAzLjU0IDM0OC45NiwyMDMuMzkgMzQ5LjA1LDIwMy40MSAzNDguNDYsMjAzLjMgMzQ4LjU1LDIwMy4zMSAzNDcuOTcsMjAzLjIyIDM0OC4wNSwyMDMuMjMgMzQ3LjQ4LDIwMy4xNyAzNDcuNTUsMjAzLjE4IDM0Ni45OCwyMDMuMTQgMzQ3LjA1LDIwMy4xNCAzNDYuNSwyMDMuMTIgMzQ2LjU3LDIwMy4xMiAzNDYuMDMsMjAzLjEzIDM0Ni4wOSwyMDMuMTMgMzQ1LjU3LDIwMy4xNSAzNDUuNjMsMjAzLjE0IDM0NS4xMywyMDMuMTggMzQ1LjE4LDIwMy4xNyAzNDQuNzEsMjAzLjIyIDM0NC43NiwyMDMuMjIgMzQ0LjMsMjAzLjI3IDM0NC4zNSwyMDMuMjcgMzQzLjkyLDIwMy4zMyAzNDMuOTYsMjAzLjMzIDM0My41NiwyMDMuNCAzNDMuNjEsMjAzLjM5IDM0My4yNCwyMDMuNDYgMzQzLjI3LDIwMy40NiAzNDIuOTQsMjAzLjUzIDM0Mi45NywyMDMuNTIgMzQyLjY3LDIwMy42IDM0Mi43MSwyMDMuNTkgMzQyLjQ1LDIwMy42NiAzNDIuNDgsMjAzLjY1IDM0Mi4yNiwyMDMuNzEgMzQyLjI5LDIwMy43IDM0Mi4xMSwyMDMuNzYgMzQyLjE0LDIwMy43NSAzNDIuMDEsMjAzLjc5IDM0Mi4wNSwyMDMuNzggMzQyLDIwMy43OSAzNDIuMDEsMjAzLjc5IDM0MS45OCwyMDMuOCAzNDIuMDMsMjAzLjc4IDM0MiwyMDMuNzkgMzQyLjA3LDIwMy43NyAzNDIuMDUsMjAzLjc3IDM0MS41MywyMDMuOTIgMzQxLjQ4LDIwMy45MiAzNDAuOSwyMDMuOTEgMzQwLjUzLDIwMy44MyAzNDAuNTcsMjAzLjg0IDM0MC4xOSwyMDMuNzggMzQwLjIzLDIwMy43OCAzMzkuODMsMjAzLjczIDMzOS44OCwyMDMuNzMgMzM5LjQ3LDIwMy42OCAzMzkuNTEsMjAzLjY5IDMzOS4wOSwyMDMuNjUgMzM5LjEzLDIwMy42NSAzMzguNywyMDMuNjIgMzM4Ljc1LDIwMy42MyAzMzguMywyMDMuNiAzMzguMzQsMjAzLjYxIDMzNy44OCwyMDMuNTkgMzM3LjkzLDIwMy41OSAzMzcuNTIsMjAzLjYgMzM3LjU5LDIwMy41OSAzMzcuMTksMjAzLjYxIDMzNy4yNSwyMDMuNjEgMzM2Ljg2LDIwMy42NCAzMzYuOTMsMjAzLjYzIDMzNi41NiwyMDMuNjcgMzM2LjYzLDIwMy42NiAzMzYuMjcsMjAzLjcyIDMzNi4zNCwyMDMuNzEgMzM1Ljk4LDIwMy43OCAzMzYuMDYsMjAzLjc2IDMzNS43MSwyMDMuODUgMzM1Ljc5LDIwMy44MyAzMzUuNDYsMjAzLjkyIDMzNS41NCwyMDMuOSAzMzUuMjIsMjA0LjAxIDMzNS4yOSwyMDMuOTggMzM0Ljk4LDIwNC4xIDMzNS4wNSwyMDQuMDcgMzM0Ljc1LDIwNC4yIDMzNC44MywyMDQuMTcgMzM0LjU0LDIwNC4zMSAzMzQuNjEsMjA0LjI4IDMzNC4zMywyMDQuNDMgMzM0LjQsMjA0LjM5IDMzNC4xMywyMDQuNTUgMzM0LjIsMjA0LjUxIDMzMy45NCwyMDQuNjggMzM0LDIwNC42NCAzMzMuNzUsMjA0LjgyIDMzMi4wMiwyMDUuMDUgMzMyLjAxLDIwNS4wNSAzMzEuOTUsMjA1LjAyIDMzMS45MSwyMDUuMDEgMzMxLjkzLDIwNS4wMiAzMzEuODgsMjA1IDMzMS45LDIwNS4wMSAzMzEuODIsMjA0Ljk4IDMzMS44NCwyMDQuOTggMzMxLjc1LDIwNC45NSAzMzEuNjMsMjA0LjkgMzMxLjY1LDIwNC45MSAzMzEuNTEsMjA0Ljg2IDMzMS41MiwyMDQuODcgMzMxLjM3LDIwNC44MSAzMzEuMzgsMjA0LjgyIDMzMS4yMSwyMDQuNzYgMzMxLjIzLDIwNC43NiAzMzEuMDQsMjA0LjcgMzMxLjA1LDIwNC43IDMzMC44NSwyMDQuNjQgMzMwLjg3LDIwNC42NCAzMzAuNjUsMjA0LjU4IDMzMC42NiwyMDQuNTggMzMwLjQzLDIwNC41MSAzMzAuNDUsMjA0LjUyIDMzMC4yLDIwNC40NSAzMzAuMjIsMjA0LjQ1IDMyOS45NiwyMDQuMzggMzI5Ljk4LDIwNC4zOCAzMjkuNzEsMjA0LjMxIDMyOS43NCwyMDQuMzIgMzI5LjE2LDIwNC4xOCAzMjkuMjEsMjA0LjE5IDMyOC41OSwyMDQuMDUgMzI4LjY0LDIwNC4wNiAzMjcuOTksMjAzLjk0IDMyOC4wNSwyMDMuOTUgMzI3LjM3LDIwMy44NSAzMjcuNDQsMjAzLjg2IDMyNi43MywyMDMuNzggMzI2LjgxLDIwMy43OCAzMjYuMDksMjAzLjczIDMyNi4xOCwyMDMuNzQgMzI1LjQ1LDIwMy43MiAzMjUuNTUsMjAzLjcyIDMyNC44MSwyMDMuNzQgMzI0LjksMjAzLjczIDMyNC41MywyMDMuNzYgMzI0LjU5LDIwMy43NSAzMjQuMjIsMjAzLjc5IDMyNC4yOSwyMDMuNzggMzIzLjkyLDIwMy44MyAzMjMuOTksMjAzLjgyIDMyMy42MywyMDMuODggMzIzLjcsMjAzLjg3IDMyMy4zNCwyMDMuOTQgMzIzLjQyLDIwMy45MyAzMjMuMDcsMjA0LjAyIDMyMy4xNCwyMDQgMzIyLjc5LDIwNC4xIDMyMi44NywyMDQuMDcgMzIyLjUzLDIwNC4xOSAzMjIuNjIsMjA0LjE2IDMyMi4yOCwyMDQuMyAzMjIuMzcsMjA0LjI2IDMyMi4wNCwyMDQuNDEgMzIyLjEzLDIwNC4zNyAzMjEuODEsMjA0LjU0IDMyMS45LDIwNC40OSAzMjEuNTksMjA0LjY4IDMyMS42OCwyMDQuNjIgMzIxLjM4LDIwNC44MiAzMjEuNDcsMjA0Ljc2IDMyMS4xOCwyMDQuOTkgMzIxLjI2LDIwNC45MSAzMjAuOTgsMjA1LjE2IDMyMS4wNiwyMDUuMDggMzIwLjgsMjA1LjM1IDMyMC44OCwyMDUuMjYgMzIwLjYyLDIwNS41NSAzMjAuNywyMDUuNDYgMzIwLjQ1LDIwNS43NyAzMjAuNTIsMjA1LjY4IDMyMC4yOSwyMDYuMDEgMzIwLjM2LDIwNS45MiAzMjAuMTQsMjA2LjI3IDMyMC4yLDIwNi4xNyAzMjAsMjA2LjU1IDMyMC4wNSwyMDYuNDUgMzE5Ljg3LDIwNi44NiAzMTkuOTEsMjA2Ljc2IDMxOS43NCwyMDcuMTkgMzE5Ljc4LDIwNy4wOSAzMTkuNjMsMjA3LjU1IDMxOS42NSwyMDcuNDYgMzE5LjUzLDIwNy45NCAzMTkuNTUsMjA3Ljg0IDMxOS40NCwyMDguMzUgMzE5LjQ2LDIwOC4yNyAzMTkuMzcsMjA4LjggMzE5LjM4LDIwOC43MiAzMTkuMzEsMjA5LjI4IDMxOS4zMiwyMDkuMiAzMTkuMjcsMjA5LjggMzE5LjI4LDIwOS43MiAzMTkuMjUsMjEwLjM0IDMxOS4yNSwyMTAuMjcgMzE5LjI1LDIxMC45MiAzMTkuMjUsMjEwLjg2IDMxOS4yOCwyMTEuNTQgMzE5LjI3LDIxMS40OCAzMTkuMjgsMjExLjY0IDMxOS4yOCwyMTEuNTkgMzE5LjMsMjExLjc4IDMxOS4yOSwyMTEuNzUgMzE5LjMyLDIxMS45NiAzMTkuMzEsMjExLjkzIDMxOS4zNCwyMTIuMTYgMzE5LjM0LDIxMi4xNCAzMTkuMzcsMjEyLjQgMzE5LjM3LDIxMi4zNyAzMTkuNDEsMjEyLjY0IDMxOS40MSwyMTIuNjMgMzE5LjQ1LDIxMi45MyAzMTkuNDUsMjEyLjkxIDMxOS41LDIxMy4yMyAzMTkuNSwyMTMuMjEgMzE5LjU2LDIxMy41NCAzMTkuNTYsMjEzLjUzIDMxOS42MiwyMTMuODggMzE5LjYxLDIxMy44NiAzMTkuNjgsMjE0LjIyIDMxOS42OCwyMTQuMjEgMzE5Ljc1LDIxNC41OSAzMTkuNzUsMjE0LjU4IDMxOS44MywyMTQuOTcgMzE5LjgzLDIxNC45NiAzMTkuOTEsMjE1LjM2IDMxOS45MSwyMTUuMzQgMzIwLjA5LDIxNi4xOCAzMjAuMDksMjE2LjE2IDMyMC4yOSwyMTcuMDQgMzIwLjI4LDIxNy4wMSAzMjAuNTEsMjE3LjkyIDMyMC41LDIxNy45IDMyMC43NCwyMTguODMgMzIwLjczLDIxOC44IDMyMC45OSwyMTkuNzQgMzIwLjk4LDIxOS43MiAzMjEuMjYsMjIwLjY2IDMyMS4yNSwyMjAuNjMgMzIxLjU0LDIyMS41NyAzMjEuNTMsMjIxLjU0IDMyMS44NCwyMjIuNDggMzIxLjgzLDIyMi40NCAzMjIuMTUsMjIzLjM1IDMyMi4xMywyMjMuMzEgMzIyLjQ3LDIyNC4xOSAzMjIuNDUsMjI0LjE1IDMyMi44MSwyMjUgMzIyLjc5LDIyNC45NSAzMjIuOTcsMjI1LjM2IDMyMi45NSwyMjUuMzMgMzIzLjE0LDIyNS43MyAzMjMuMTIsMjI1LjcgMzIzLjMxLDIyNi4wOCAzMjMuMjksMjI2LjA0IDMyMy40OCwyMjYuNDEgMzIzLjQ2LDIyNi4zNyAzMjMuNjYsMjI2LjczIDMyMy42NCwyMjYuNjkgMzIzLjgzLDIyNy4wMyAzMjMuOCwyMjYuOTggMzI0LDIyNy4zIDMyMy45NywyMjcuMjUgMzI0LjE3LDIyNy41NSAzMjQuMTMsMjI3LjQ5IDMyNC4zNCwyMjcuNzggMzI0LjI5LDIyNy43MiAzMjQuNSwyMjcuOTggMzI0LjQ1LDIyNy45MSAzMjQuNjYsMjI4LjE2IDMyNC41OSwyMjguMDggMzI0LjgsMjI4LjMgMzI0LjcyLDIyOC4yMyAzMjQuOTQsMjI4LjQyIDMyNC44NCwyMjguMzQgMzI1LjA2LDIyOC41MSAzMjQuOTQsMjI4LjQyIDMyNS4xNiwyMjguNTcgMzI1LjAyLDIyOC40OCAzMjUuMjQsMjI4LjYxIDMyNS4wNiwyMjguNTIgMzI1LjI5LDIyOC42MiAzMjUuMSwyMjguNTUgMzI1LjMyLDIyOC42MSAzMjUuMDksMjI4LjU2IDMyNS4zMiwyMjguNiAzMjUuMDgsMjI4LjU4IDMyNS4zMSwyMjguNTggMzI1LjA3LDIyOC41OSAzMjUuMywyMjguNTcgMzI1LjA2LDIyOC42MSAzMjUuMjksMjI4LjU1IDMyNS4wNiwyMjguNjMgMzI1LjMsMjI4LjUzIDMyNS4xMSwyMjguNjIgMzI1LjM0LDIyOC41IDMyNS4xNywyMjguNiAzMjUuNDEsMjI4LjQ0IDMyNS4yNywyMjguNTQgMzI1LjUxLDIyOC4zNCAzMjUuNCwyMjguNDQgMzI1LjY0LDIyOC4yMSAzMjUuNTUsMjI4LjMxIDMyNS43OSwyMjguMDMgMzI1Ljc2LDIyOC4wNyAzMjYuMTEsMjI3LjY1IDMyNi4xMiwyMjcuNjQgMzI2LjQ4LDIyNy4yMiAzMjYuNDgsMjI3LjIxIDMyNi44MywyMjYuODEgMzI2LjgzLDIyNi44MSAzMjcuMTcsMjI2LjQyIDMyNy4xOCwyMjYuNDEgMzI3LjM0LDIyNi4yMyAzMjcuMzUsMjI2LjIyIDMyNy41MSwyMjYuMDQgMzI3LjY2LDIyNS44NiAzMjcuODIsMjI1LjY4IDMyNy44MywyMjUuNjggMzI3Ljk3LDIyNS41MSAzMjguMTIsMjI1LjM1IDMyOC4yNiwyMjUuMiAzMjguMjcsMjI1LjE5IDMyOC40LDIyNS4wNCAzMjguNTMsMjI0LjkgMzI4LjY1LDIyNC43NiAzMjguNzcsMjI0LjYzIDMyOC43NywyMjQuNjMgMzI4Ljg4LDIyNC41MSAzMjguOTksMjI0LjQgMzI4Ljk5LDIyNC4zOSAzMjkuMDksMjI0LjI5IDMyOS4wOCwyMjQuMjkgMzI5LjE3LDIyNC4yIDMyOS4xOCwyMjQuMTkgMzI5LjI2LDIyNC4xIDMyOS4zMywyMjQuMDMgMzI5LjQsMjIzLjk2IDMyOS40NSwyMjMuOSAzMjkuNSwyMjMuODUgMzI5LjU0LDIyMy44MSAzMjkuNTcsMjIzLjc4IDMyOS42LDIyMy43NCAzMjkuNjIsMjIzLjcyIDMyOS41MywyMjMuODEgMzI5LjU0LDIyMy44MSAzMzEuOTMsMjIzLjQ3IDMzMi4xLDIyMy41OCAzMzIuMDQsMjIzLjU0IDMzMi4yMiwyMjMuNjQgMzMyLjE1LDIyMy42IDMzMi4zMywyMjMuNyAzMzIuMjcsMjIzLjY3IDMzMi40NSwyMjMuNzYgMzMyLjM4LDIyMy43MiAzMzIuNTcsMjIzLjgxIDMzMi41LDIyMy43OCAzMzIuNjksMjIzLjg1IDMzMi42MiwyMjMuODIgMzMyLjgxLDIyMy44OSAzMzIuNzMsMjIzLjg3IDMzMi45MywyMjMuOTIgMzMyLjg2LDIyMy45IDMzMy4wNiwyMjMuOTUgMzMyLjk4LDIyMy45MyAzMzMuMTgsMjIzLjk3IDMzMy4xLDIyMy45NiAzMzMuMywyMjMuOTkgMzMzLjIyLDIyMy45OCAzMzMuNDMsMjI0IDMzMy4zNSwyMjMuOTkgMzMzLjU2LDIyNC4wMSAzMzMuNDcsMjI0IDMzMy42OSwyMjQuMDEgMzMzLjYsMjI0LjAxIDMzMy44MSwyMjQgMzMzLjczLDIyNCAzMzMuOTUsMjIzLjk5IDMzMi44OCwyMjQuNDMgMzMyLjk2LDIyNC4zNiAzMzYuMDIsMjI1Ljg1IDMzNi4wMSwyMjYuMDcgMzM2LjAyLDIyNS45NSAzMzYuMDIsMjI2LjE3IDMzNi4wMSwyMjYuMDYgMzM2LjAzLDIyNi4yOSAzMzYuMDIsMjI2LjIyIDMzNi4wNCwyMjYuMzMgMzM2LjAzLDIyNi4yOSAzMzYuMDUsMjI2LjQxIDMzNS42LDIyNy44OCAzMzUuNDgsMjI4LjAyIDMzNS41LDIyOCAzMzUuMzgsMjI4LjEyIDMzNS40LDIyOC4xMSAzMzUuMywyMjguMjMgMzM1LjMxLDIyOC4yMiAzMzUuMjEsMjI4LjM0IDMzNS4yMiwyMjguMzIgMzM1LjEzLDIyOC40MyAzMzUuMTUsMjI4LjQyIDMzNS4wNiwyMjguNTIgMzM1LjA2LDIyOC41MiAzMzQuOTksMjI4LjYyIDMzNC45OCwyMjguNjMgMzM0LjkxLDIyOC43MiAzMzQuOSwyMjguNzMgMzM0LjgzLDIyOC44MiAzMzQuODIsMjI4LjgzIDMzNC43NSwyMjguOTEgMzM0LjcyLDIyOC45NSAzMzQuNTgsMjI5LjExIDMzNC41MSwyMjkuMTkgMzM0LjM3LDIyOS4zMyAzMzQuMjYsMjI5LjQzIDMzNC4xMiwyMjkuNTYgMzM0LjAyLDIyOS42NCAzMzMuOTQsMjI5LjcgMzMzLjg2LDIyOS43NiAzMzMuNzgsMjI5LjgxIDMzMy43MiwyMjkuODYgMzMzLjYzLDIyOS45MSAzMzMuNTQsMjI5Ljk2IDMzMy40NCwyMzAuMDEgMzMzLjM4LDIzMC4wNSAzMzMuMjgsMjMwLjEgMzMzLjIxLDIzMC4xMyAzMzMuMSwyMzAuMTggMzMzLjAzLDIzMC4yMSAzMzIuOTEsMjMwLjI2IDMzMi44NiwyMzAuMjggMzMyLjczLDIzMC4zMyAzMzIuNjgsMjMwLjM0IDMzMi41NCwyMzAuMzkgMzMyLjQ5LDIzMC40IDMzMi4zNCwyMzAuNDUgMzMyLjMsMjMwLjQ2IDMzMi4xMywyMzAuNTEgMzMyLjEsMjMwLjUyIDMzMS45MiwyMzAuNTcgMzMxLjg5LDIzMC41NyAzMzEuNjksMjMwLjYyIDMzMS42OCwyMzAuNjIgMzMxLjQ2LDIzMC42NyAzMzEuNDQsMjMwLjY4IDMzMS4yMSwyMzAuNzMgMzMxLjIsMjMwLjczIDMzMS4wOCwyMzAuNzYgMzMwLjk1LDIzMC43OCAzMzAuOTcsMjMwLjc4IDMzMC44NCwyMzAuODEgMzMwLjg2LDIzMC44IDMzMC43NCwyMzAuODMgMzMwLjc3LDIzMC44MiAzMzAuNjYsMjMwLjg1IDMzMC43MSwyMzAuODQgMzMwLjYxLDIzMC44NyAzMzAuNjIsMjMwLjg2IDMzMC41MiwyMzAuODkgMzMwLjU3LDIzMC44OCAzMzAuNDgsMjMwLjkgMzMwLjUxLDIzMC44OSAzMzAuNDIsMjMwLjkyIDMzMC40NywyMzAuOTEgMzMwLjM5LDIzMC45NCAzMzAuNDMsMjMwLjkyIDMzMC4zNSwyMzAuOTUgMzMwLjQxLDIzMC45MyAzMzAuMzQsMjMwLjk2IDMzMC4zOCwyMzAuOTQgMzMwLjMxLDIzMC45NyAzMzAuMzgsMjMwLjk0IDMzMC4zMiwyMzAuOTcgMzMwLjM3LDIzMC45NCAzMzAuMzIsMjMwLjk3IDMzMC40LDIzMC45MiAzMzAuMzUsMjMwLjk2IDMzMC40MSwyMzAuOTEgMzMwLjM2LDIzMC45NSAzMzAuNDMsMjMwLjkgMzMwLjM5LDIzMC45MyAzMzAuNSwyMzAuODQgMzMwLjQ2LDIzMC44OCAzMzAuNTQsMjMwLjggMzMwLjUxLDIzMC44MyAzMzAuNjMsMjMwLjcgMzMwLjU3LDIzMC43NiAzMzAuNzUsMjMwLjUxIDMzMC43MSwyMzAuNTcgMzMwLjg2LDIzMC4yNSAzMzAuODMsMjMwLjMyIDMzMC45MiwyMjkuOTUgMzMwLjkxLDIzMC4wMSAzMzAuOTIsMjI5LjY1IDMzMC45MywyMjkuNzIgMzMwLjg2LDIyOS4zNyAzMzAuODgsMjI5LjQ0IDMzMC43OSwyMjkuMTcgMzMwLjgyLDIyOS4yMyAzMzAuNywyMjkuMDEgMzMwLjc0LDIyOS4wOCAzMzAuNjIsMjI4LjkxIDMzMC42NywyMjguOTcgMzMwLjU2LDIyOC44NCAzMzAuNjIsMjI4LjkxIDMzMC41MSwyMjguOCAzMzAuNTgsMjI4Ljg3IDMzMC41LDIyOC44IDMzMC41OCwyMjguODYgMzMwLjQ5LDIyOC43OSAzMzAuNTcsMjI4Ljg1IDMzMC41LDIyOC44IDMzMC41OCwyMjguODUgMzMwLjUyLDIyOC44MiAzMzAuNjEsMjI4Ljg3IDMzMC41MiwyMjguODIgMzMwLjcyLDIyOC45MiAzMzAuNjEsMjI4Ljg3IDMzMC44MSwyMjguOTUgMzMwLjcxLDIyOC45MiAzMzAuOTIsMjI4Ljk5IDMzMC44MSwyMjguOTUgMzMxLjAxLDIyOS4wMSAzMzAuOTMsMjI4Ljk5IDMzMS4wNSwyMjkuMDIgMzMxLjAzLDIyOS4wMiAzMzEuMTcsMjI5LjA1IDMzMS4xMywyMjkuMDQgMzMxLjI3LDIyOS4wNyAzMzEuMjUsMjI5LjA2IDMzMS40LDIyOS4wOSAzMzEuMzYsMjI5LjA4IDMzMS41MSwyMjkuMTEgMzMxLjQ4LDIyOS4xIDMzMS42NCwyMjkuMTMgMzMxLjYsMjI5LjEyIDMzMS43NywyMjkuMTQgMzMxLjczLDIyOS4xNCAzMzEuOTEsMjI5LjE2IDMzMS44NiwyMjkuMTUgMzMyLjA0LDIyOS4xNyAzMzEuOTksMjI5LjE2IDMzMi4xOCwyMjkuMTcgMzMyLjEzLDIyOS4xNyAzMzIuMzMsMjI5LjE4IDMzMi4yNywyMjkuMTggMzMyLjQ2LDIyOS4xNyAzMzIuNDEsMjI5LjE3IDMzMi42MSwyMjkuMTcgMzMyLjU1LDIyOS4xNyAzMzIuNzUsMjI5LjE1IDMzMi42OCwyMjkuMTYgMzMyLjg5LDIyOS4xNCAzMzIuODMsMjI5LjE1IDMzMy4wNCwyMjkuMTEgMzMyLjk3LDIyOS4xMyAzMzMuMTgsMjI5LjA5IDMzMy4xMSwyMjkuMSAzMzMuMzIsMjI5LjA1IDMzMy4yNCwyMjkuMDcgMzMzLjQ2LDIyOS4wMSAzMzMuMzgsMjI5LjAzIDMzMy42LDIyOC45NiAzMzMuNTIsMjI4Ljk5IDMzMy43NCwyMjguOTEgMzMzLjY2LDIyOC45NCAzMzMuODcsMjI4Ljg1IDMzMy43OCwyMjguODkgMzM0LDIyOC43OCAzMzMuOTIsMjI4LjgyIDMzNC4xNCwyMjguNyAzMzQuMDUsMjI4Ljc1IDMzNC4yNywyMjguNjIgMzM0LjE5LDIyOC42NyAzMzQuNCwyMjguNTIgMzM0LjMyLDIyOC41NyAzMzQuNTMsMjI4LjQxIDMzNC40NiwyMjguNDcgMzM0LjY2LDIyOC4yOSAzMzQuNTksMjI4LjM2IDMzNC43OSwyMjguMTYgMzM0LjczLDIyOC4yMyAzMzQuOTIsMjI4LjAyIDMzNC44OCwyMjguMDcgMzM0Ljk4LDIyNy45NSAzMzQuOTUsMjI3Ljk4IDMzNS4wNSwyMjcuODcgMzM1LjAxLDIyNy45MSAzMzUuMTEsMjI3Ljc5IDMzNS4wOCwyMjcuODIgMzM1LjE3LDIyNy42OSAzMzguNDYsMjI5LjIzIDMzOC4zOSwyMjkuNTQgMzM3Ljg4LDIyNy43NyAzMzcuOTIsMjI3LjgyIDMzOC4xMSwyMjguMDMgMzM4LjE2LDIyOC4wOSAzMzguMjcsMjI4LjI2IDMzOC4zMSwyMjguMzMgMzM4LjM5LDIyOC40OCAzMzguNDMsMjI4LjU2IDMzOC40OSwyMjguNyAzMzguNTMsMjI4Ljc5IDMzOC41NSwyMjguODcgMzM4LjU5LDIyOC45NyAzMzguNjEsMjI5LjA2IDMzOC42NSwyMjkuMTcgMzM4LjY2LDIyOS4yNSAzMzguNjksMjI5LjM3IDMzOC43LDIyOS40MiAzMzguNzMsMjI5LjU1IDMzOC43NCwyMjkuNjEgMzM4Ljc2LDIyOS43NCAzMzguNzcsMjI5Ljc4IDMzOC43OSwyMjkuOTIgMzM4Ljc5LDIyOS45NiAzMzguODEsMjMwLjExIDMzOC44MiwyMzAuMTQgMzM4LjgzLDIzMC4yOSAzMzguODQsMjMwLjMyIDMzOC44NSwyMzAuNDggMzM4Ljg1LDIzMC41MSAzMzguODcsMjMwLjY4IDMzOC44NywyMzAuNjkgMzM4Ljg4LDIzMC44NyAzMzguODksMjMwLjg5IDMzOC45MSwyMzEuMjUgMzM4LjkxLDIzMS4yOCAzMzguOTMsMjMxLjY1IDMzOC45MywyMzEuNjcgMzM4Ljk0LDIzMi4wNSAzMzguOTQsMjMyLjA2IDMzOC45NiwyMzIuNDQgMzM4Ljk3LDIzMi44MyAzMzguOTcsMjMyLjg0IDMzOC45OCwyMzMuMjIgMzM4Ljk4LDIzMy4yMSAzMzguOTksMjMzLjU4IDMzOC45OSwyMzMuNTcgMzM5LDIzMy45MyAzMzksMjMzLjkyIDMzOS4wMiwyMzQuMjcgMzM5LjAyLDIzNC4yNiAzMzkuMDMsMjM0LjYgMzM5LjA1LDIzNC45MyAzMzkuMDUsMjM0LjkyIDMzOS4wNywyMzUuMjUgMzM5LjA3LDIzNS4yNCAzMzkuMDksMjM1LjU2IDMzOS4wOSwyMzUuNTUgMzM5LjEyLDIzNS44NyAzMzkuMTIsMjM1Ljg1IDMzOS4xNCwyMzYuMTYgMzM5LjE0LDIzNi4xNCAzMzkuMTcsMjM2LjQ0IDMzOS4xNywyMzYuNDEgMzM5LjIsMjM2LjcxIDMzOS4yLDIzNi42NyAzMzkuMjQsMjM2Ljk2IDMzOS4yMywyMzYuOTIgMzM5LjI4LDIzNy4xOSAzMzkuMjcsMjM3LjE0IDMzOS4zMiwyMzcuNCAzMzkuMzEsMjM3LjM1IDMzOS4zNiwyMzcuNiAzMzkuMzQsMjM3LjU0IDMzOS40LDIzNy43NyAzMzkuMzgsMjM3LjcgMzM5LjQ1LDIzNy45MiAzMzkuNDIsMjM3Ljg0IDMzOS40OSwyMzguMDQgMzM5LjQ4LDIzOC4wMSAzMzkuNTIsMjM4LjExIDMzOS41MiwyMzguMTQgMzM5LjU2LDIzOC4yNSAzMzkuNTcsMjM4LjI2IDMzOS42LDIzOC4zOCAzMzkuNjEsMjM4LjM5IDMzOS42NSwyMzguNTEgMzM5LjY0LDIzOC41IDMzOS42OSwyMzguNjMgMzM5LjY4LDIzOC42MSAzMzkuNzMsMjM4Ljc1IDMzOS43MiwyMzguNzIgMzM5Ljc3LDIzOC44NiAzMzkuNzUsMjM4LjgyIDMzOS44MSwyMzguOTYgMzM5Ljc5LDIzOC45MiAzMzkuODUsMjM5LjA3IDMzOS44MywyMzkuMDIgMzM5Ljg5LDIzOS4xNiAzMzkuODcsMjM5LjExIDMzOS45NCwyMzkuMjYgMzM5LjkxLDIzOS4xOSAzMzkuOTgsMjM5LjM0IDMzOS45NSwyMzkuMjYgMzQwLjAzLDIzOS40MSAzMzkuOTgsMjM5LjM0IDM0MC4wOCwyMzkuNDggMzQwLjAyLDIzOS40IDM0MC4xMiwyMzkuNTMgMzQwLjA2LDIzOS40NiAzNDAuMTcsMjM5LjU5IDM0MC4xLDIzOS41IDM0MC4yMSwyMzkuNjMgMzQwLjEzLDIzOS41NCAzNDAuMjUsMjM5LjY2IDM0MC4xNiwyMzkuNTggMzQwLjMsMjM5LjcgMzQwLjE5LDIzOS42MiAzNDAuMzQsMjM5LjcyIDM0MC4yMywyMzkuNjQgMzQwLjM5LDIzOS43NCAzNDAuMjYsMjM5LjY3IDM0MC40NCwyMzkuNzYgMzQwLjMxLDIzOS43IDM0MC40OSwyMzkuNzggMzQwLjM2LDIzOS43MyAzNDAuNTYsMjM5LjggMzQwLjQyLDIzOS43NiAzNDAuNjQsMjM5LjgxIDM0MC41LDIzOS43OCAzNDAuNzIsMjM5LjgyIDM0MC42LDIzOS44IDM0MC44NCwyMzkuODMgMzQwLjcyLDIzOS44MiAzNDAuOTgsMjM5LjgzIDM0MC44NiwyMzkuODMgMzQxLjEzLDIzOS44MiAzNDEuMDUsMjM5LjgzIDM0MS4xOSwyMzkuODIgMzQxLjE0LDIzOS44MiAzNDEuMjksMjM5LjgxIDM0MS4yMywyMzkuODEgMzQxLjM4LDIzOS43OSAzNDEuMzQsMjM5LjggMzQxLjUsMjM5Ljc4IDM0MS40NCwyMzkuNzggMzQxLjYsMjM5Ljc2IDM0MS41NiwyMzkuNzYgMzQxLjczLDIzOS43MyAzNDEuNjksMjM5Ljc0IDM0MS45NywyMzkuNjggMzQxLjk0LDIzOS42OCAzNDIuMjIsMjM5LjYyIDM0Mi4xOCwyMzkuNjMgMzQyLjQ0LDIzOS41NiAzNDIuNDEsMjM5LjU3IDM0Mi42NywyMzkuNSAzNDIuNiwyMzkuNTIgMzQyLjg2LDIzOS40MyAzNDIuOCwyMzkuNDUgMzQzLjA2LDIzOS4zNiAzNDIuOTgsMjM5LjM5IDM0My4yMywyMzkuMjkgMzQzLjE1LDIzOS4zMyAzNDMuMzksMjM5LjIyIDM0My4zLDIzOS4yNiAzNDMuNTMsMjM5LjE0IDM0My40NCwyMzkuMTkgMzQzLjY3LDIzOS4wNiAzNDMuNTcsMjM5LjEyIDM0My43OSwyMzguOTcgMzQzLjcsMjM5LjAzIDM0My45MiwyMzguODcgMzQzLjg0LDIzOC45MyAzNDMuOTQsMjM4Ljg0IDM0My45LDIzOC44OCAzNDQsMjM4Ljc4IDM0My45NiwyMzguODMgMzQ0LjA2LDIzOC43MyAzNDQuMDEsMjM4Ljc3IDM0NC4xMSwyMzguNjcgMzQ0LjA3LDIzOC43MSAzNDQuMTcsMjM4LjYgMzQ0LjEyLDIzOC42NiAzNDQuMjIsMjM4LjU0IDM0NC4xOSwyMzguNTggMzQ0LjI4LDIzOC40NiAzNDQuMjQsMjM4LjUxIDM0NC4zMywyMzguMzkgMzQ0LjMsMjM4LjQzIDM0NC4zOSwyMzguMyAzNDQuMzYsMjM4LjM1IDM0NC40NCwyMzguMjIgMzQ0LjQxLDIzOC4yNyAzNDQuNSwyMzguMTIgMzQ0LjQ3LDIzOC4xNyAzNDQuNTYsMjM4LjAyIDM0NC41MywyMzguMDYgMzQ0LjYxLDIzNy45MSAzNDQuNTksMjM3Ljk1IDM0NC42NywyMzcuNzkgMzQ0LjY0LDIzNy44NCAzNDQuNzIsMjM3LjY3IDM0NC43LDIzNy43MSAzNDQuNzgsMjM3LjUzIDM0NC43NiwyMzcuNTggMzQ0LjgzLDIzNy40IDM0NC44MiwyMzcuNDMgMzQ0Ljg5LDIzNy4yNCAzNDQuODcsMjM3LjI5IDM0NC45NCwyMzcuMDkgMzQ0LjkzLDIzNy4xMiAzNDQuOTksMjM2LjkyIDM0NC45OCwyMzYuOTYgMzQ1LjA0LDIzNi43NSAzNDUuMDMsMjM2Ljc4IDM0NS4wOSwyMzYuNTYgMzQ1LjA4LDIzNi41OSAzNDUuMTQsMjM2LjM2IDM0NS4xMywyMzYuNCAzNDUuMTksMjM2LjE2IDM0NS4xOCwyMzYuMTkgMzQ1LjIzLDIzNS45NSAzNDUuMjMsMjM1Ljk4IDM0NS4yOCwyMzUuNzIgMzQ1LjI3LDIzNS43NSAzNDUuMzIsMjM1LjQ5IDM0NS4zMiwyMzUuNTIgMzQ1LjM2LDIzNS4yNSAzNDUuMzYsMjM1LjI3IDM0NS40LDIzNC45OSAzNDUuNCwyMzUuMDEgMzQ1LjQzLDIzNC43MiAzNDUuNDMsMjM0Ljc1IDM0NS40NywyMzQuNDUgMzQ1LjQ3LDIzNC40NyAzNDUuNSwyMzQuMTYgMzQ1LjUsMjM0LjE5IDM0NS41MywyMzMuODcgMzQ1LjUzLDIzMy44OSAzNDUuNTYsMjMzLjU2IDM0NS41NSwyMzMuNTggMzQ1LjU4LDIzMy4yNCAzNDUuNTgsMjMzLjI2IDM0NS42LDIzMi45MSAzNDUuNiwyMzIuOTMgMzQ1LjYyLDIzMi41NyAzNDUuNjIsMjMyLjU5IDM0NS42NCwyMzIuMjIgMzQ1LjY0LDIzMi4yNCAzNDUuNjUsMjMxLjg2IDM0NS42NSwyMzEuODcgMzQ1LjY2LDIzMS40OCAzNDkuMzYsMjMxLjU5IDM0OS4zNSwyMzEuOTggMzQ5LjM1LDIzMS45OSAzNDkuMzQsMjMyLjM3IDM0OS4zNCwyMzIuMzkgMzQ5LjMyLDIzMi43NiAzNDkuMzIsMjMyLjc4IDM0OS4zLDIzMy4xNCAzNDkuMywyMzMuMTYgMzQ5LjI3LDIzMy41IDM0OS4yNywyMzMuNTIgMzQ5LjI0LDIzMy44NiAzNDkuMjQsMjMzLjg4IDM0OS4yMSwyMzQuMjEgMzQ5LjIxLDIzNC4yMyAzNDkuMTgsMjM0LjU1IDM0OS4xOCwyMzQuNTcgMzQ5LjE0LDIzNC44OCAzNDkuMTQsMjM0LjkgMzQ5LjExLDIzNS4yIDM0OS4xLDIzNS4yMyAzNDkuMDYsMjM1LjUyIDM0OS4wNiwyMzUuNTQgMzQ5LjAyLDIzNS44MiAzNDkuMDEsMjM1Ljg1IDM0OC45NywyMzYuMTIgMzQ4Ljk2LDIzNi4xNSAzNDguOTIsMjM2LjQxIDM0OC45MSwyMzYuNDQgMzQ4Ljg2LDIzNi42OSAzNDguODUsMjM2LjcyIDM0OC44LDIzNi45NyAzNDguNzksMjM3IDM0OC43NCwyMzcuMjQgMzQ4LjczLDIzNy4yNyAzNDguNjcsMjM3LjUgMzQ4LjY3LDIzNy41MyAzNDguNjEsMjM3Ljc1IDM0OC42LDIzNy43OSAzNDguNTMsMjM4IDM0OC41MiwyMzguMDQgMzQ4LjQ1LDIzOC4yNSAzNDguNDQsMjM4LjI4IDM0OC4zOCwyMzguNDggMzQ4LjM2LDIzOC41MiAzNDguMjksMjM4LjcxIDM0OC4yOCwyMzguNzQgMzQ4LjIxLDIzOC45MyAzNDguMTksMjM4Ljk3IDM0OC4xMSwyMzkuMTUgMzQ4LjEsMjM5LjE5IDM0OC4wMiwyMzkuMzYgMzQ4LDIzOS40MSAzNDcuOTIsMjM5LjU3IDM0Ny45LDIzOS42MSAzNDcuODIsMjM5Ljc3IDM0Ny43OSwyMzkuODIgMzQ3LjcxLDIzOS45NiAzNDcuNjksMjQwLjAxIDM0Ny42LDI0MC4xNSAzNDcuNTcsMjQwLjIgMzQ3LjQ4LDI0MC4zNCAzNDcuNDUsMjQwLjM5IDM0Ny4zNiwyNDAuNTIgMzQ3LjMzLDI0MC41NiAzNDcuMjQsMjQwLjY5IDM0Ny4yLDI0MC43NCAzNDcuMSwyNDAuODYgMzQ3LjA3LDI0MC45IDM0Ni45OCwyNDEuMDEgMzQ2LjkzLDI0MS4wNyAzNDYuODQsMjQxLjE4IDM0Ni44LDI0MS4yMiAzNDYuNywyNDEuMzIgMzQ2LjY2LDI0MS4zNyAzNDYuNTYsMjQxLjQ3IDM0Ni41MSwyNDEuNTEgMzQ2LjQxLDI0MS42IDM0Ni4zNiwyNDEuNjQgMzQ2LjI2LDI0MS43MyAzNDYuMTgsMjQxLjc5IDM0NS45NywyNDEuOTYgMzQ1Ljg4LDI0Mi4wMyAzNDUuNjYsMjQyLjE4IDM0NS41NiwyNDIuMjQgMzQ1LjMzLDI0Mi4zNyAzNDUuMjQsMjQyLjQyIDM0NS4wMSwyNDIuNTQgMzQ0LjkyLDI0Mi41OSAzNDQuNjgsMjQyLjcgMzQ0LjYsMjQyLjczIDM0NC4zNiwyNDIuODMgMzQ0LjI5LDI0Mi44NiAzNDQuMDMsMjQyLjk1IDM0My45OCwyNDIuOTYgMzQzLjcyLDI0My4wNCAzNDMuNjYsMjQzLjA2IDM0My40LDI0My4xNCAzNDMuMzYsMjQzLjE1IDM0My4xLDI0My4yMSAzNDMuMDYsMjQzLjIyIDM0Mi43OSwyNDMuMjkgMzQyLjc3LDI0My4yOSAzNDIuNDksMjQzLjM1IDM0Mi40NSwyNDMuMzYgMzQyLjI5LDI0My4zOSAzNDIuMjUsMjQzLjQgMzQyLjA5LDI0My40MyAzNDIuMDQsMjQzLjQ0IDM0MS44OSwyNDMuNDYgMzQxLjg1LDI0My40NyAzNDEuNywyNDMuNDggMzQxLjY0LDI0My40OSAzNDEuNSwyNDMuNTEgMzQxLjQ1LDI0My41MSAzNDEuMywyNDMuNTIgMzQxLjIyLDI0My41MiAzNDAuOTUsMjQzLjUzIDM0MC44NCwyNDMuNTMgMzQwLjU4LDI0My41MiAzNDAuNDYsMjQzLjUxIDM0MC4yMiwyNDMuNDkgMzQwLjEsMjQzLjQ3IDMzOS44NywyNDMuNDMgMzM5Ljc0LDI0My40IDMzOS41MywyNDMuMzUgMzM5LjM5LDI0My4zMSAzMzkuMiwyNDMuMjQgMzM5LjA2LDI0My4xOSAzMzguODgsMjQzLjEyIDMzOC43NSwyNDMuMDYgMzM4LjU4LDI0Mi45NyAzMzguNDYsMjQyLjkgMzM4LjMsMjQyLjgxIDMzOC4xOCwyNDIuNzMgMzM4LjAzLDI0Mi42MiAzMzcuOTMsMjQyLjU0IDMzNy43OSwyNDIuNDMgMzM3LjcsMjQyLjM0IDMzNy41NywyNDIuMjIgMzM3LjQ5LDI0Mi4xNCAzMzcuMzcsMjQyLjAxIDMzNy4yOSwyNDEuOTIgMzM3LjE5LDI0MS43OSAzMzcuMTMsMjQxLjcxIDMzNy4wMywyNDEuNTggMzM2Ljk3LDI0MS41IDMzNi44OCwyNDEuMzYgMzM2Ljg0LDI0MS4yOCAzMzYuNzYsMjQxLjE0IDMzNi43MSwyNDEuMDcgMzM2LjY0LDI0MC45MyAzMzYuNjEsMjQwLjg2IDMzNi41NCwyNDAuNzIgMzM2LjUxLDI0MC42NyAzMzYuNDUsMjQwLjUyIDMzNi40MywyNDAuNDcgMzM2LjM3LDI0MC4zMyAzMzYuMzUsMjQwLjI5IDMzNi4zLDI0MC4xNSAzMzYuMjgsMjQwLjExIDMzNi4yNCwyMzkuOTcgMzM2LjIzLDIzOS45NSAzMzYuMTgsMjM5LjgxIDMzNi4xNywyMzkuOCAzMzYuMTMsMjM5LjY3IDMzNi4xMywyMzkuNjYgMzM2LjA5LDIzOS41MyAzMzYuMDksMjM5LjU0IDMzNi4wNSwyMzkuNDMgMzM2LjA2LDIzOS40NCAzMzYuMDIsMjM5LjMzIDMzNi4wMywyMzkuMzUgMzM1Ljk5LDIzOS4yNSAzMzUuOTgsMjM5LjIzIDMzNS45MSwyMzkuMDMgMzM1Ljg5LDIzOC45NSAzMzUuODMsMjM4LjczIDMzNS44MSwyMzguNjYgMzM1Ljc1LDIzOC40MyAzMzUuNzQsMjM4LjM3IDMzNS42OCwyMzguMTIgMzM1LjY3LDIzOC4wNyAzMzUuNjMsMjM3LjgxIDMzNS42MiwyMzcuNzcgMzM1LjU4LDIzNy41IDMzNS41NywyMzcuNDYgMzM1LjUzLDIzNy4xNyAzMzUuNTMsMjM3LjE0IDMzNS40OSwyMzYuODUgMzM1LjQ5LDIzNi44MiAzMzUuNDYsMjM2LjUyIDMzNS40NiwyMzYuNDkgMzM1LjQzLDIzNi4xOCAzMzUuNDMsMjM2LjE2IDMzNS40LDIzNS44NCAzMzUuNCwyMzUuODIgMzM1LjM4LDIzNS40OSAzMzUuMzgsMjM1LjQ4IDMzNS4zNiwyMzUuMTQgMzM1LjM1LDIzNS4xMyAzMzUuMzQsMjM0Ljc4IDMzNS4zMiwyMzQuNDQgMzM1LjMyLDIzNC40MyAzMzUuMywyMzQuMDggMzM1LjMsMjM0LjA3IDMzNS4yOSwyMzMuNzEgMzM1LjI5LDIzMy43IDMzNS4yOCwyMzMuMzMgMzM1LjI4LDIzMy4zMiAzMzUuMjcsMjMyLjk0IDMzNS4yNywyMzIuOTUgMzM1LjI2LDIzMi41NyAzMzUuMjQsMjMyLjE4IDMzNS4yNCwyMzIuMTkgMzM1LjIzLDIzMS44MSAzMzUuMjMsMjMxLjgzIDMzNS4yMSwyMzEuNDYgMzM1LjIxLDIzMS40OCAzMzUuMTksMjMxLjEyIDMzNS4xOSwyMzEuMTUgMzM1LjE4LDIzMC45OCAzMzUuMTgsMjMwLjk5IDMzNS4xNywyMzAuODIgMzM1LjE3LDIzMC44NSAzMzUuMTUsMjMwLjY5IDMzNS4xNSwyMzAuNzEgMzM1LjE0LDIzMC41NSAzMzUuMTQsMjMwLjU4IDMzNS4xMiwyMzAuNDMgMzM1LjEzLDIzMC40NyAzMzUuMTEsMjMwLjMyIDMzNS4xMSwyMzAuMzYgMzM1LjA5LDIzMC4yMiAzMzUuMSwyMzAuMjggMzM1LjA3LDIzMC4xNSAzMzUuMDgsMjMwLjE5IDMzNS4wNSwyMzAuMDcgMzM1LjA3LDIzMC4xNSAzMzUuMDQsMjMwLjA0IDMzNS4wNywyMzAuMTMgMzM1LjA0LDIzMC4wMyAzMzUuMDYsMjMwLjEgMzM1LjAzLDIzMC4wMSAzMzUuMDksMjMwLjE1IDMzNS4wNSwyMzAuMDcgMzM1LjEzLDIzMC4yMiAzMzUuMDksMjMwLjE1IDMzNS4yLDIzMC4zMiAzMzUuMTYsMjMwLjI3IDMzNS4zNSwyMzAuNDggMzM1LjMsMjMwLjQzIDMzNC43OSwyMjguNjYgMzM0Ljg3LDIyOC4zNSAzMzguMTYsMjI5Ljg4IDMzOC4wNywyMzAuMDEgMzM4LjA0LDIzMC4wNCAzMzcuOTQsMjMwLjE3IDMzNy45MSwyMzAuMjEgMzM3LjgyLDIzMC4zMyAzMzcuNzksMjMwLjM2IDMzNy42OSwyMzAuNDcgMzM3LjY1LDIzMC41MiAzMzcuNDUsMjMwLjc0IDMzNy4zOCwyMzAuODEgMzM3LjE4LDIzMSAzMzcuMTEsMjMxLjA3IDMzNi45LDIzMS4yNSAzMzYuODMsMjMxLjMxIDMzNi42MiwyMzEuNDggMzM2LjU0LDIzMS41NCAzMzYuMzMsMjMxLjY5IDMzNi4yNSwyMzEuNzQgMzM2LjA0LDIzMS44OCAzMzUuOTUsMjMxLjkzIDMzNS43NCwyMzIuMDUgMzM1LjY2LDIzMi4wOSAzMzUuNDQsMjMyLjIgMzM1LjM1LDIzMi4yNCAzMzUuMTQsMjMyLjMzIDMzNS4wNiwyMzIuMzcgMzM0Ljg0LDIzMi40NSAzMzQuNzYsMjMyLjQ4IDMzNC41NCwyMzIuNTUgMzM0LjQ2LDIzMi41NyAzMzQuMjUsMjMyLjY0IDMzNC4xNywyMzIuNjYgMzMzLjk1LDIzMi43MSAzMzMuODgsMjMyLjcyIDMzMy42NiwyMzIuNzYgMzMzLjU5LDIzMi43OCAzMzMuMzgsMjMyLjgxIDMzMy4zMSwyMzIuODIgMzMzLjEsMjMyLjg0IDMzMy4wMywyMzIuODUgMzMyLjgzLDIzMi44NiAzMzIuNzYsMjMyLjg3IDMzMi41NiwyMzIuODcgMzMyLjUsMjMyLjg4IDMzMi4zMSwyMzIuODggMzMyLjI0LDIzMi44OCAzMzIuMDUsMjMyLjg3IDMzMiwyMzIuODcgMzMxLjgxLDIzMi44NiAzMzEuNzYsMjMyLjg2IDMzMS41OCwyMzIuODUgMzMxLjUzLDIzMi44NCAzMzEuMzUsMjMyLjgyIDMzMS4zMSwyMzIuODIgMzMxLjE0LDIzMi44IDMzMS4xLDIzMi43OSAzMzAuOTMsMjMyLjc3IDMzMC44OSwyMzIuNzYgMzMwLjc0LDIzMi43MyAzMzAuNjksMjMyLjczIDMzMC41NCwyMzIuNyAzMzAuNTIsMjMyLjY5IDMzMC4zOCwyMzIuNjYgMzMwLjM0LDIzMi42NSAzMzAuMjEsMjMyLjYyIDMzMC4xOSwyMzIuNjIgMzMwLjA2LDIzMi41OSAzMjkuOTksMjMyLjU3IDMyOS43OSwyMzIuNTEgMzI5LjY4LDIzMi40OCAzMjkuNDcsMjMyLjQgMzI5LjM3LDIzMi4zNiAzMjkuMTcsMjMyLjI4IDMyOS4wNiwyMzIuMjMgMzI4Ljg2LDIzMi4xMyAzMjguNzcsMjMyLjA4IDMyOC42NywyMzIuMDMgMzI4LjYxLDIzMS45OSAzMjguNTIsMjMxLjkzIDMyOC40NCwyMzEuODggMzI4LjM2LDIzMS44MiAzMjguMjcsMjMxLjc2IDMyOC4yLDIzMS43IDMyOC4xMiwyMzEuNjMgMzI4LjA1LDIzMS41NyAzMjcuOTQsMjMxLjQ2IDMyNy44OCwyMzEuNCAzMjcuNzcsMjMxLjI3IDMyNy43MiwyMzEuMjEgMzI3LjYsMjMxLjA0IDMyNy41NiwyMzAuOTcgMzI3LjQ0LDIzMC43NSAzMjcuNDEsMjMwLjY4IDMyNy4zMSwyMzAuNDIgMzI3LjMsMjMwLjM1IDMyNy4yMywyMzAgMzI3LjIzLDIyOS45MyAzMjcuMjQsMjI5LjU3IDMyNy4yNSwyMjkuNSAzMjcuMzMsMjI5LjEzIDMyNy4zNSwyMjkuMDYgMzI3LjUsMjI4Ljc0IDMyNy41NCwyMjguNjcgMzI3LjcyLDIyOC40MSAzMjcuNzcsMjI4LjM1IDMyNy44OSwyMjguMjEgMzI3LjkyLDIyOC4xOCAzMjguMDEsMjI4LjEgMzI4LjA1LDIyOC4wNyAzMjguMTUsMjI3Ljk4IDMyOC4yLDIyNy45NSAzMjguMjcsMjI3LjkgMzI4LjMxLDIyNy44NiAzMjguMzgsMjI3LjgyIDMyOC40MywyMjcuNzkgMzI4LjUxLDIyNy43NCAzMjguNTcsMjI3LjcxIDMyOC42MiwyMjcuNjggMzI4LjY4LDIyNy42NSAzMjguNzYsMjI3LjYxIDMyOC44MiwyMjcuNTggMzI4Ljg3LDIyNy41NiAzMjguOTQsMjI3LjUzIDMyOC45OSwyMjcuNTEgMzI5LjA3LDIyNy40OCAzMjkuMTEsMjI3LjQ2IDMyOS4yLDIyNy40MyAzMjkuMjQsMjI3LjQxIDMyOS4zMywyMjcuMzkgMzI5LjM3LDIyNy4zNyAzMjkuNDYsMjI3LjM0IDMyOS41MSwyMjcuMzMgMzI5LjYxLDIyNy4zIDMyOS42MywyMjcuMyAzMjkuNzMsMjI3LjI3IDMyOS43OCwyMjcuMjUgMzI5Ljg5LDIyNy4yMyAzMjkuOTIsMjI3LjIyIDMzMC4wNCwyMjcuMTkgMzMwLjA2LDIyNy4xOSAzMzAuMTksMjI3LjE2IDMzMC4yLDIyNy4xNiAzMzAuMzIsMjI3LjEzIDMzMC40NCwyMjcuMTEgMzMwLjQzLDIyNy4xMSAzMzAuNjUsMjI3LjA2IDMzMC42MiwyMjcuMDcgMzMwLjgzLDIyNy4wMiAzMzAuODIsMjI3LjAyIDMzMS4wMSwyMjYuOTggMzMwLjk4LDIyNi45OCAzMzEuMTYsMjI2Ljk0IDMzMS4xMywyMjYuOTUgMzMxLjI5LDIyNi45IDMzMS4yNSwyMjYuOTEgMzMxLjQxLDIyNi44NiAzMzEuMzYsMjI2Ljg4IDMzMS41LDIyNi44MyAzMzEuNDUsMjI2Ljg1IDMzMS41OCwyMjYuOCAzMzEuNTMsMjI2LjgyIDMzMS42NSwyMjYuNzcgMzMxLjU5LDIyNi44IDMzMS43LDIyNi43NSAzMzEuNjIsMjI2Ljc5IDMzMS43MywyMjYuNzMgMzMxLjY3LDIyNi43NyAzMzEuNzYsMjI2LjcxIDMzMS42NywyMjYuNzcgMzMxLjc2LDIyNi43MSAzMzEuNywyMjYuNzUgMzMxLjc4LDIyNi42OSAzMzEuNywyMjYuNzUgMzMxLjc4LDIyNi42OSAzMzEuNjgsMjI2Ljc3IDMzMS44MiwyMjYuNjUgMzMxLjcyLDIyNi43NSAzMzEuODYsMjI2LjYxIDMzMS43OCwyMjYuNjkgMzMxLjkxLDIyNi41NCAzMzEuODgsMjI2LjU3IDMzMS45NSwyMjYuNDkgMzMxLjk0LDIyNi41IDMzMi4wMSwyMjYuNDEgMzMyLjAxLDIyNi40MiAzMzIuMDgsMjI2LjMzIDMzMi4wNywyMjYuMzMgMzMyLjE1LDIyNi4yNCAzMzIuMTYsMjI2LjIzIDMzMi4yNCwyMjYuMTMgMzMyLjI1LDIyNi4xMSAzMzIuMzQsMjI2IDMzMi4zNSwyMjUuOTkgMzMyLjQ1LDIyNS44NyAzMzIuNDYsMjI1Ljg2IDMzMi41NiwyMjUuNzMgMzMyLjU3LDIyNS43MiAzMzIuNjksMjI1LjU5IDMzMi43MSwyMjUuNTYgMzMyLjgzLDIyNS40MyAzMzIuMzgsMjI2LjkgMzMyLjM2LDIyNi43OCAzMzIuMzYsMjI2LjczIDMzMi4zNCwyMjYuNjEgMzMyLjM0LDIyNi41NCAzMzIuMzIsMjI2LjMyIDMzMi4zMiwyMjYuMjEgMzMyLjMxLDIyNS45OSAzMzIuMzIsMjI1Ljg3IDMzMi4zMywyMjUuNjYgMzM1LjM5LDIyNy4xNiAzMzUuMywyMjcuMjMgMzM0LjIzLDIyNy42OCAzMzQuMDEsMjI3LjcgMzMzLjkzLDIyNy43IDMzMy43MiwyMjcuNzEgMzMzLjYzLDIyNy43MSAzMzMuNDIsMjI3LjcgMzMzLjM0LDIyNy43IDMzMy4xMywyMjcuNjkgMzMzLjA1LDIyNy42OCAzMzIuODQsMjI3LjY2IDMzMi43NiwyMjcuNjUgMzMyLjU2LDIyNy42MiAzMzIuNDcsMjI3LjYxIDMzMi4yNywyMjcuNTcgMzMyLjE5LDIyNy41NSAzMzEuOTksMjI3LjUgMzMxLjkxLDIyNy40OCAzMzEuNzIsMjI3LjQyIDMzMS42NCwyMjcuNCAzMzEuNDQsMjI3LjM0IDMzMS4zNywyMjcuMzEgMzMxLjE4LDIyNy4yNCAzMzEuMTEsMjI3LjIxIDMzMC45MiwyMjcuMTMgMzMwLjg1LDIyNy4wOSAzMzAuNjYsMjI3IDMzMC42LDIyNi45NyAzMzAuNDIsMjI2Ljg4IDMzMC4zNSwyMjYuODQgMzMwLjE3LDIyNi43MyAzMzAuMTEsMjI2LjcgMzI5LjkzLDIyNi41OCAzMzIuMzMsMjI2LjI0IDMzMi4zMiwyMjYuMjUgMzMyLjI0LDIyNi4zNCAzMzIuMjIsMjI2LjM2IDMzMi4yNiwyMjYuMzIgMzMyLjIzLDIyNi4zNCAzMzIuMiwyMjYuMzggMzMyLjE1LDIyNi40MyAzMzIuMSwyMjYuNDggMzMyLjA0LDIyNi41NSAzMzEuOTcsMjI2LjYzIDMzMS44OSwyMjYuNzEgMzMxLjg5LDIyNi43MSAzMzEuODEsMjI2LjggMzMxLjgsMjI2LjgxIDMzMS43MSwyMjYuOTEgMzMxLjcxLDIyNi45IDMzMS42MSwyMjcuMDEgMzMxLjUsMjI3LjEzIDMzMS41LDIyNy4xMyAzMzEuMzksMjI3LjI2IDMzMS4yNywyMjcuMzkgMzMxLjE0LDIyNy41MyAzMzEsMjI3LjY4IDMzMS4wMSwyMjcuNjcgMzMwLjg3LDIyNy44MiAzMzAuNzMsMjI3Ljk4IDMzMC41OCwyMjguMTUgMzMwLjU5LDIyOC4xNCAzMzAuNDQsMjI4LjMxIDMzMC4yOCwyMjguNDkgMzMwLjEyLDIyOC42NyAzMzAuMTIsMjI4LjY3IDMyOS45NiwyMjguODUgMzI5Ljk2LDIyOC44NSAzMjkuNjMsMjI5LjIzIDMyOS42MywyMjkuMjMgMzI5LjI5LDIyOS42MyAzMjkuMywyMjkuNjIgMzI4Ljk0LDIzMC4wNCAzMjguOTUsMjMwLjAzIDMyOC42LDIzMC40NSAzMjguNTYsMjMwLjQ5IDMyOC4zMiwyMzAuNzcgMzI4LjIyLDIzMC44NyAzMjcuOTgsMjMxLjEgMzI3Ljg2LDIzMS4yIDMyNy42MiwyMzEuNCAzMjcuNDgsMjMxLjUxIDMyNy4yNCwyMzEuNjcgMzI3LjA3LDIzMS43NyAzMjYuODQsMjMxLjg5IDMyNi42NCwyMzEuOTggMzI2LjQsMjMyLjA4IDMyNi4xOCwyMzIuMTUgMzI1Ljk0LDIzMi4yMSAzMjUuNywyMzIuMjUgMzI1LjQ3LDIzMi4yNyAzMjUuMjIsMjMyLjI4IDMyNC45OSwyMzIuMjggMzI0Ljc1LDIzMi4yNiAzMjQuNTIsMjMyLjIyIDMyNC4yOSwyMzIuMTcgMzI0LjA2LDIzMi4xIDMyMy44NywyMzIuMDMgMzIzLjY0LDIzMS45NCAzMjMuNDcsMjMxLjg2IDMyMy4yNCwyMzEuNzQgMzIzLjEsMjMxLjY1IDMyMi44OCwyMzEuNSAzMjIuNzYsMjMxLjQxIDMyMi41NCwyMzEuMjQgMzIyLjQ0LDIzMS4xNiAzMjIuMjMsMjMwLjk2IDMyMi4xNSwyMzAuODggMzIxLjkzLDIzMC42NiAzMjEuODYsMjMwLjU5IDMyMS42NSwyMzAuMzUgMzIxLjYsMjMwLjI4IDMyMS4zOSwyMzAuMDEgMzIxLjM0LDIyOS45NSAzMjEuMTQsMjI5LjY3IDMyMS4xLDIyOS42MSAzMjAuODksMjI5LjMxIDMyMC44NiwyMjkuMjYgMzIwLjY2LDIyOC45NCAzMjAuNjMsMjI4Ljg5IDMyMC40MywyMjguNTUgMzIwLjQxLDIyOC41MSAzMjAuMjIsMjI4LjE1IDMyMC4yLDIyOC4xMSAzMjAuMDEsMjI3Ljc0IDMxOS45OSwyMjcuNzEgMzE5LjgsMjI3LjMyIDMxOS43OCwyMjcuMjkgMzE5LjYsMjI2LjkgMzE5LjU4LDIyNi44NiAzMTkuNCwyMjYuNDUgMzE5LjM5LDIyNi40MSAzMTkuMDMsMjI1LjU2IDMxOS4wMSwyMjUuNTIgMzE4LjY4LDIyNC42MyAzMTguNjYsMjI0LjU5IDMxOC4zNCwyMjMuNjcgMzE4LjMyLDIyMy42NCAzMTguMDIsMjIyLjcgMzE4LjAxLDIyMi42NyAzMTcuNzEsMjIxLjczIDMxNy43LDIyMS43IDMxNy40MywyMjAuNzUgMzE3LjQyLDIyMC43MiAzMTcuMTYsMjE5Ljc4IDMxNy4xNSwyMTkuNzUgMzE2LjkyLDIxOC44MiAzMTYuOTEsMjE4LjggMzE2LjY5LDIxNy45IDMxNi42OCwyMTcuODcgMzE2LjQ4LDIxNi45OSAzMTYuNDcsMjE2Ljk3IDMxNi4yOSwyMTYuMTMgMzE2LjI5LDIxNi4xMSAzMTYuMiwyMTUuNzEgMzE2LjIsMjE1LjcgMzE2LjEyLDIxNS4zMSAzMTYuMTIsMjE1LjMgMzE2LjA1LDIxNC45MiAzMTYuMDUsMjE0LjkxIDMxNS45OCwyMTQuNTUgMzE1Ljk3LDIxNC41MyAzMTUuOTEsMjE0LjE4IDMxNS45MSwyMTQuMTcgMzE1Ljg1LDIxMy44NCAzMTUuODUsMjEzLjgzIDMxNS44LDIxMy41MSAzMTUuOCwyMTMuNSAzMTUuNzUsMjEzLjIgMzE1Ljc1LDIxMy4xOSAzMTUuNzEsMjEyLjkyIDMxNS43LDIxMi44OSAzMTUuNjcsMjEyLjY0IDMxNS42NywyMTIuNjIgMzE1LjY0LDIxMi4zOSAzMTUuNjMsMjEyLjM1IDMxNS42MSwyMTIuMTQgMzE1LjYxLDIxMi4xMiAzMTUuNTksMjExLjkzIDMxNS41OSwyMTEuODggMzE1LjU4LDIxMS43MiAzMTUuNTgsMjExLjY2IDMxNS41NSwyMTAuOTggMzE1LjU1LDIxMC45MiAzMTUuNTUsMjEwLjI3IDMxNS41NSwyMTAuMiAzMTUuNTgsMjA5LjU4IDMxNS41OCwyMDkuNSAzMTUuNjMsMjA4LjkxIDMxNS42NCwyMDguODQgMzE1LjcsMjA4LjI4IDMxNS43MiwyMDguMiAzMTUuOCwyMDcuNjYgMzE1LjgyLDIwNy41OCAzMTUuOTMsMjA3LjA3IDMxNS45NSwyMDYuOTggMzE2LjA4LDIwNi41IDMxNi4xMSwyMDYuNDEgMzE2LjI1LDIwNS45NSAzMTYuMjksMjA1Ljg2IDMxNi40NSwyMDUuNDMgMzE2LjQ5LDIwNS4zNCAzMTYuNjcsMjA0LjkzIDMxNi43MiwyMDQuODQgMzE2LjkxLDIwNC40NiAzMTYuOTcsMjA0LjM2IDMxNy4xOCwyMDQuMDEgMzE3LjI0LDIwMy45MSAzMTcuNDcsMjAzLjU4IDMxNy41NCwyMDMuNDkgMzE3Ljc4LDIwMy4xOCAzMTcuODUsMjAzLjA5IDMxOC4xMSwyMDIuODEgMzE4LjE5LDIwMi43MiAzMTguNDYsMjAyLjQ1IDMxOC41NCwyMDIuMzggMzE4LjgyLDIwMi4xMyAzMTguOSwyMDIuMDYgMzE5LjE5LDIwMS44NCAzMTkuMjgsMjAxLjc3IDMxOS41OCwyMDEuNTcgMzE5LjY4LDIwMS41MSAzMTkuOTksMjAxLjMyIDMyMC4wNywyMDEuMjcgMzIwLjM5LDIwMS4xIDMyMC40OCwyMDEuMDYgMzIwLjgxLDIwMC45IDMyMC44OSwyMDAuODcgMzIxLjIyLDIwMC43MyAzMjEuMzEsMjAwLjcgMzIxLjY1LDIwMC41OCAzMjEuNzMsMjAwLjU1IDMyMi4wOCwyMDAuNDUgMzIyLjE1LDIwMC40MyAzMjIuNSwyMDAuMzQgMzIyLjU4LDIwMC4zMiAzMjIuOTMsMjAwLjI1IDMyMywyMDAuMjMgMzIzLjM2LDIwMC4xNyAzMjMuNDMsMjAwLjE2IDMyMy43OSwyMDAuMTEgMzIzLjg1LDIwMC4xMSAzMjQuMjEsMjAwLjA3IDMyNC4yNywyMDAuMDYgMzI0LjY0LDIwMC4wNCAzMjQuNzIsMjAwLjAzIDMyNS40NSwyMDAuMDIgMzI1LjU1LDIwMC4wMiAzMjYuMjgsMjAwLjA0IDMyNi4zNiwyMDAuMDQgMzI3LjA4LDIwMC4wOSAzMjcuMTYsMjAwLjEgMzI3Ljg2LDIwMC4xOCAzMjcuOTMsMjAwLjE5IDMyOC42MSwyMDAuMjkgMzI4LjY3LDIwMC4zIDMyOS4zMiwyMDAuNDMgMzI5LjM4LDIwMC40NCAzMjkuOTksMjAwLjU3IDMzMC4wNCwyMDAuNTggMzMwLjYyLDIwMC43MiAzMzAuNjUsMjAwLjczIDMzMC45MywyMDAuOCAzMzAuOTUsMjAwLjgxIDMzMS4yMSwyMDAuODggMzMxLjIzLDIwMC44OSAzMzEuNDcsMjAwLjk2IDMzMS41LDIwMC45NyAzMzEuNzMsMjAxLjA0IDMzMS43NSwyMDEuMDQgMzMxLjk3LDIwMS4xMSAzMzEuOTgsMjAxLjExIDMzMi4xOSwyMDEuMTggMzMyLjIsMjAxLjE5IDMzMi4zOSwyMDEuMjUgMzMyLjQxLDIwMS4yNSAzMzIuNTgsMjAxLjMxIDMzMi41OSwyMDEuMzIgMzMyLjc1LDIwMS4zNyAzMzIuNzYsMjAxLjM4IDMzMi45LDIwMS40MiAzMzIuOTIsMjAxLjQzIDMzMy4wMywyMDEuNDggMzMzLjEzLDIwMS41MSAzMzMuMTUsMjAxLjUyIDMzMy4yMywyMDEuNTUgMzMzLjI1LDIwMS41NiAzMzMuMzEsMjAxLjU4IDMzMy4zMywyMDEuNTkgMzMzLjM2LDIwMS42IDMzMy4zLDIwMS41OCAzMzMuMzIsMjAxLjU5IDMzMS41OCwyMDEuODIgMzMxLjgzLDIwMS42NCAzMzEuODksMjAxLjYgMzMyLjE1LDIwMS40MiAzMzIuMjEsMjAxLjM4IDMzMi40OCwyMDEuMjIgMzMyLjU1LDIwMS4xOCAzMzIuODMsMjAxLjAzIDMzMi45LDIwMC45OSAzMzMuMTksMjAwLjg1IDMzMy4yNywyMDAuODEgMzMzLjU3LDIwMC42OCAzMzMuNjQsMjAwLjY1IDMzMy45NSwyMDAuNTMgMzM0LjAyLDIwMC41IDMzNC4zNCwyMDAuMzkgMzM0LjQyLDIwMC4zNyAzMzQuNzUsMjAwLjI3IDMzNC44MywyMDAuMjUgMzM1LjE4LDIwMC4xNyAzMzUuMjUsMjAwLjE1IDMzNS42MSwyMDAuMDggMzM1LjY4LDIwMC4wNyAzMzYuMDUsMjAwLjAxIDMzNi4xMiwyMDAgMzM2LjUsMTk5Ljk1IDMzNi41OCwxOTkuOTUgMzM2Ljk3LDE5OS45MiAzMzcuMDQsMTk5LjkxIDMzNy40NCwxOTkuODkgMzM3LjUxLDE5OS44OSAzMzcuOTMsMTk5Ljg5IDMzNy45OCwxOTkuODkgMzM4LjQ0LDE5OS45IDMzOC40OCwxOTkuOTEgMzM4LjkyLDE5OS45MyAzMzguOTcsMTk5LjkzIDMzOS40LDE5OS45NiAzMzkuNDQsMTk5Ljk2IDMzOS44NiwyMDAgMzM5LjksMjAwLjAxIDM0MC4zMSwyMDAuMDYgMzQwLjM2LDIwMC4wNiAzNDAuNzUsMjAwLjEyIDM0MC44LDIwMC4xMyAzNDEuMTgsMjAwLjE5IDM0MS4yMywyMDAuMiAzNDEuNiwyMDAuMjcgMzQxLjAyLDIwMC4yNSAzNDEuMDcsMjAwLjI1IDM0MC41NSwyMDAuMzkgMzQwLjU2LDIwMC4zOCAzNDAuNjMsMjAwLjM2IDM0MC42NSwyMDAuMzUgMzQwLjcsMjAwLjMzIDM0MC43NCwyMDAuMzEgMzQwLjc1LDIwMC4zMSAzNDAuODEsMjAwLjI5IDM0MC44NSwyMDAuMjcgMzQwLjk5LDIwMC4yMyAzNDEuMDIsMjAwLjIyIDM0MS4yLDIwMC4xNiAzNDEuMjMsMjAwLjE2IDM0MS40NSwyMDAuMDkgMzQxLjQ5LDIwMC4wOCAzNDEuNzUsMjAwLjAxIDM0MS43OSwyMDAgMzQyLjA5LDE5OS45MyAzNDIuMTMsMTk5LjkyIDM0Mi40NiwxOTkuODQgMzQyLjUsMTk5Ljg0IDM0Mi44NywxOTkuNzYgMzQyLjkxLDE5OS43NSAzNDMuMzEsMTk5LjY4IDM0My4zNiwxOTkuNjcgMzQzLjc4LDE5OS42MSAzNDMuODMsMTk5LjYgMzQ0LjI5LDE5OS41NCAzNDQuMzQsMTk5LjU0IDM0NC44MiwxOTkuNDkgMzQ0Ljg3LDE5OS40OCAzNDUuMzcsMTk5LjQ1IDM0NS40MywxOTkuNDUgMzQ1Ljk1LDE5OS40MyAzNDYuMDEsMTk5LjQzIDM0Ni41NSwxOTkuNDIgMzQ2LjYyLDE5OS40MiAzNDcuMTcsMTk5LjQ0IDM0Ny4yNCwxOTkuNDQgMzQ3LjgsMTk5LjQ4IDM0Ny44OCwxOTkuNDkgMzQ4LjQ1LDE5OS41NSAzNDguNTMsMTk5LjU2IDM0OS4xMSwxOTkuNjUgMzQ5LjIsMTk5LjY3IDM0OS43OSwxOTkuNzkgMzQ5Ljg3LDE5OS44MSAzNTAuNDcsMTk5Ljk2IDM1MC41NiwxOTkuOTggMzUxLjE1LDIwMC4xNyAzNTEuMjUsMjAwLjIgMzUxLjg0LDIwMC40MiAzNTEuOTQsMjAwLjQ2IDM1Mi41MiwyMDAuNzIgMzUyLjYyLDIwMC43NyAzNTMuMjEsMjAxLjA2IDM1My4zMSwyMDEuMTIgMzUzLjg4LDIwMS40NiAzNTMuOTYsMjAxLjUxIDM1NC4yNCwyMDEuNyAzNTQuMjksMjAxLjczIDM1NC41NywyMDEuOTMgMzU0LjYyLDIwMS45NyAzNTQuODksMjAyLjE4IDM1NC45NCwyMDIuMjIgMzU1LjIxLDIwMi40NCAzNTUuMjYsMjAyLjQ4IDM1NS41MywyMDIuNzIgMzU1LjU4LDIwMi43NiAzNTUuODQsMjAzLjAxIDM1NS44OSwyMDMuMDUgMzU2LjE1LDIwMy4zMiAzNTYuMTksMjAzLjM2IDM1Ni40NSwyMDMuNjMgMzU2LjQ5LDIwMy42OCAzNTYuNzQsMjAzLjk3IDM1Ni43OCwyMDQuMDIgMzU3LjAzLDIwNC4zMiAzNTcuMTMsMjA0LjQ2IDM1Ny4yOSwyMDQuNzEgMzU3LjQxLDIwNC45MiAzNTcuNTYsMjA1LjIxIDM1Ny42NCwyMDUuNCAzNTcuNzYsMjA1LjczIDM1Ny44MSwyMDUuOSAzNTcuOSwyMDYuMjcgMzU3LjkzLDIwNi40MSAzNTgsMjA2LjgxIDM1OC4wMiwyMDYuOTMgMzU4LjA3LDIwNy4zNyAzNTguMDgsMjA3LjQ4IDM1OC4xLDIwNy45NSAzNTguMTEsMjA4LjA0IDM1OC4xMSwyMDguNTQgMzU4LjExLDIwOC42MiAzNTguMDksMjA5LjE2IDM1OC4wOSwyMDkuMjMgMzU4LjA1LDIwOS43OSAzNTguMDQsMjA5Ljg2IDM1Ny45OCwyMTAuNDUgMzU3Ljk3LDIxMC41MSAzNTcuODgsMjExLjEyIDM1Ny44OCwyMTEuMTcgMzU3Ljc3LDIxMS44MSAzNTcuNzYsMjExLjg2IDM1Ny42MywyMTIuNTIgMzU3LjYyLDIxMi41NiAzNTcuNDcsMjEzLjI0IDM1Ny40NiwyMTMuMjggMzU3LjI5LDIxMy45OCAzNTcuMjgsMjE0LjAyIDM1Ny4wOSwyMTQuNzMgMzU3LjA4LDIxNC43NyAzNTYuODYsMjE1LjUgMzU2Ljg1LDIxNS41MyAzNTYuNjIsMjE2LjI3IDM1Ni42MSwyMTYuMzEgMzU2LjM1LDIxNy4wNiAzNTYuMzQsMjE3LjA5IDM1Ni4wNywyMTcuODUgMzU2LjA1LDIxNy44OCAzNTUuNzYsMjE4LjY1IDM1NS43NSwyMTguNjggMzU1LjQzLDIxOS40NSAzNTUuNDIsMjE5LjQ5IDM1NS4wOCwyMjAuMjYgMzU1LjA3LDIyMC4yOSAzNTQuNzEsMjIxLjA3IDM1NC43LDIyMS4xIDM1NC4zMywyMjEuODggMzU0LjMxLDIyMS45MSAzNTMuOTIsMjIyLjY4IDM1My45LDIyMi43MiAzNTMuNDksMjIzLjQ5IDM1My40NywyMjMuNTIgMzUzLjA0LDIyNC4yOSAzNTMuMDIsMjI0LjMyIDM1Mi41NywyMjUuMDggMzUyLjU1LDIyNS4xMiAzNTIuMDksMjI1Ljg3IDM1Mi4wNiwyMjUuOSAzNTEuNTgsMjI2LjY0IDM1MS44NiwyMjUuMzIgMzUxLjg2LDIyNS4zMyAzNTEuOCwyMjUuMDcgMzUxLjgsMjI1LjA5IDM1MS43OSwyMjUuMDYgMzUxLjgsMjI1LjA4IDM1MS43NiwyMjQuOTggMzUxLjc3LDIyNS4wMSAzNTEuNzQsMjI0LjkyIDM1MS43NSwyMjQuOTYgMzUxLjcsMjI0Ljg1IDM1MS43MiwyMjQuODkgMzUxLjY2LDIyNC43OCAzNTEuNjksMjI0LjgzIDM1MS42MiwyMjQuNzMgMzUxLjY2LDIyNC43OSAzNTEuNTksMjI0LjcgMzUxLjYzLDIyNC43NSAzNTEuNTUsMjI0LjY1IDM1MS42LDIyNC43MSAzNTEuNTEsMjI0LjYyIDM1MS41OCwyMjQuNjggMzUxLjQ4LDIyNC42IDM1MS41NiwyMjQuNjYgMzUxLjQ2LDIyNC41OSAzNTEuNTUsMjI0LjY1IDM1MS40NSwyMjQuNTggMzUxLjU1LDIyNC42NCAzNTEuNDQsMjI0LjU4IDM1MS41NSwyMjQuNjQgMzUxLjQ2LDIyNC41OSAzNTEuNTgsMjI0LjY1IDM1MS40OCwyMjQuNjEgMzUxLjYyLDIyNC42NiAzNTEuNTIsMjI0LjYzIDM1MS42NywyMjQuNjggMzUxLjU5LDIyNC42NSAzNTEuNzYsMjI0LjcgMzUxLjY3LDIyNC42OCAzNTEuODYsMjI0LjcxIDM1MS43OSwyMjQuNyAzNTEuODksMjI0LjcyIDM1MS44NSwyMjQuNzEgMzUxLjk1LDIyNC43MyAzNTEuOTIsMjI0LjcyIDM1Mi4wMywyMjQuNzQgMzUyLDIyNC43MyAzNTIuMTEsMjI0Ljc1IDM1Mi4wNywyMjQuNzQgMzUyLjE5LDIyNC43NSAzNTIuMTUsMjI0Ljc1IDM1Mi4yNywyMjQuNzYgMzUyLjI0LDIyNC43NSAzNTIuMzcsMjI0Ljc2IDM1Mi4zMywyMjQuNzYgMzUyLjQ3LDIyNC43NiAzNTIuNDQsMjI0Ljc2IDM1Mi41OCwyMjQuNzYgMzUyLjU0LDIyNC43NiAzNTIuNjgsMjI0Ljc2IDM1Mi42NiwyMjQuNzYgMzUyLjgxLDIyNC43NiAzNTIuNzgsMjI0Ljc2IDM1Mi45NCwyMjQuNzUgMzUyLjkxLDIyNC43NiAzNTMuMDcsMjI0Ljc1IDM1My4wNCwyMjQuNzUgMzUzLjIxLDIyNC43NCAzNTMuMTgsMjI0Ljc0IDM1My4zNSwyMjQuNzIgMzUzLjMzLDIyNC43MyAzNTMuNTEsMjI0LjcxIDM1My40OCwyMjQuNzEgMzUzLjY3LDIyNC42OSAzNTMuNjQsMjI0LjY5IDM1My44MywyMjQuNjcgMzUzLjgxLDIyNC42NyAzNTQuMDEsMjI0LjY0IDM1My45OCwyMjQuNjUgMzU0LjE5LDIyNC42MiAzNTQuMTcsMjI0LjYyIDM1NC4zOCwyMjQuNTkgMzU0LjM2LDIyNC41OSAzNTQuNTgsMjI0LjU1IDM1NC41NSwyMjQuNTYgMzU0Ljc3LDIyNC41MSAzNTQuNzYsMjI0LjUyIDM1NC45OSwyMjQuNDcgMzU1LDIyNC40NyAzNTUuMSwyMjQuNDUgMzU1LjEyLDIyNC40NCAzNTUuMjEsMjI0LjQzIDM1NS4yNywyMjQuNDIgMzU1LjM2LDIyNC40IDM1NS40MSwyMjQuNCAzNTUuNSwyMjQuMzkgMzU1LjU1LDIyNC4zOCAzNTUuNjMsMjI0LjM4IDM1NS42OSwyMjQuMzcgMzU1Ljc2LDIyNC4zNyAzNTUuODIsMjI0LjM2IDM1NS44OCwyMjQuMzYgMzU1Ljk2LDIyNC4zNiAzNTYuMDMsMjI0LjM2IDM1Ni4xMiwyMjQuMzYgMzU2LjE4LDIyNC4zNyAzNTYuMjYsMjI0LjM4IDM1Ni4zMiwyMjQuMzggMzU2LjQxLDIyNC4zOSAzNTYuNDcsMjI0LjQgMzU2LjYsMjI0LjQzIDM1Ni42NSwyMjQuNDQgMzU2Ljg1LDIyNC41IDM1Ni45MywyMjQuNTIgMzU3LjI0LDIyNC42NyAzNTcuMzEsMjI0LjcxIDM1Ny42NiwyMjQuOTggMzU3LjcxLDIyNS4wMiAzNTguMDMsMjI1LjQzIDM1OC4wNiwyMjUuNDkgMzU4LjI0LDIyNS45NCAzNTguMjYsMjI2IDM1OC4zMiwyMjYuNDcgMzU4LjMyLDIyNi41NCAzNTguMjksMjI2Ljg4IDM1OC4yNywyMjYuOTUgMzU4LjIsMjI3LjIyIDM1OC4xNywyMjcuMzEgMzU4LjA5LDIyNy41MSAzNTguMDUsMjI3LjU5IDM1Ny45NiwyMjcuNzUgMzU3LjkxLDIyNy44NCAzNTcuODQsMjI3Ljk1IDM1Ny43NywyMjguMDQgMzU3LjY5LDIyOC4xNCAzNTcuNjEsMjI4LjI0IDM1Ny41NSwyMjguMzEgMzU3LjQ2LDIyOC40MSAzNTcuNCwyMjguNDcgMzU3LjMsMjI4LjU4IDM1Ny4yNCwyMjguNjMgMzU3LjEzLDIyOC43NCAzNTcuMDgsMjI4Ljc4IDM1Ni45NiwyMjguODkgMzU2LjksMjI4LjkzIDM1Ni43NywyMjkuMDQgMzU2LjczLDIyOS4wOCAzNTYuNTgsMjI5LjE5IDM1Ni41NSwyMjkuMjIgMzU2LjM5LDIyOS4zMyAzNTYuMzUsMjI5LjM2IDM1Ni4xOCwyMjkuNDcgMzU2LjE0LDIyOS41IDM1NS45NywyMjkuNjEgMzU1LjkzLDIyOS42MyAzNTUuNzUsMjI5Ljc0IDM1NS43MiwyMjkuNzYgMzU1LjUzLDIyOS44NyAzNTUuNDksMjI5LjkgMzU1LjI5LDIzMCAzNTUuMjUsMjMwLjAyIDM1NS4wNSwyMzAuMTIgMzU1LjAxLDIzMC4xNSAzNTQuOCwyMzAuMjQgMzU0Ljc0LDIzMC4yNyAzNTQuNTQsMjMwLjM2IDM1NC40NywyMzAuMzkgMzU0LjI1LDIzMC40NyAzNTQuMTgsMjMwLjUgMzUzLjk1LDIzMC41OCAzNTMuODksMjMwLjYgMzUzLjY0LDIzMC42NyAzNTMuNTksMjMwLjY4IDM1My4zMywyMzAuNzUgMzUzLjI4LDIzMC43NiAzNTMuMDIsMjMwLjgyIDM1Mi45OCwyMzAuODMgMzUyLjcxLDIzMC44OSAzNTIuNjYsMjMwLjkgMzUyLjM4LDIzMC45NSAzNTIuMzQsMjMwLjk1IDM1Mi4wNywyMzEgMzUyLjAyLDIzMSAzNTEuNzQsMjMxLjA0IDM1MS43LDIzMS4wNCAzNTEuNDIsMjMxLjA3IDM1MS4zOCwyMzEuMDggMzUxLjEsMjMxLjEgMzUxLjA1LDIzMS4xIDM1MC43OCwyMzEuMTIgMzUwLjczLDIzMS4xMiAzNTAuNDYsMjMxLjEzIDM1MC40MSwyMzEuMTMgMzUwLjE1LDIzMS4xMyAzNTAuMDksMjMxLjEzIDM0OS44MywyMzEuMTIgMzQ5LjcxLDIzMS4xMSAzNDkuMjcsMjMxLjA3IDM0OS4wNywyMzEuMDQgMzQ4LjkyLDIzMS4wMSAzNDguOTMsMjMxLjAxIDM0OC43OSwyMzAuOTggMzQ4LjgzLDIzMC45OSAzNDguNjksMjMwLjk3IDM0OC43MywyMzAuOTcgMzQ4LjYsMjMwLjk1IDM0OC42NywyMzAuOTYgMzQ4LjU1LDIzMC45NSAzNDguNjEsMjMwLjk1IDM0OC41LDIzMC45NCAzNDguNTksMjMwLjk1IDM0OC40OSwyMzAuOTUgMzQ4LjYsMjMwLjk1IDM0OC41MSwyMzAuOTUgMzQ4LjY0LDIzMC45NCAzNDguNTUsMjMwLjk1IDM0OC43MiwyMzAuOTMgMzQ4LjY0LDIzMC45NCAzNDguODEsMjMwLjkgMzQ4Ljc0LDIzMC45MiAzNDguOTUsMjMwLjg0IDM0OC44OCwyMzAuODcgMzQ5LjA2LDIzMC43OCAzNDksMjMwLjgyIDM0OS4yMiwyMzAuNjcgMzQ5LjE2LDIzMC43MiAzNDkuMzQsMjMwLjU2IDM0OS4yOSwyMzAuNjEgMzQ5LjQzLDIzMC40NCAzNDkuMzksMjMwLjUgMzQ5LjUsMjMwLjM1IDM0OS40NiwyMzAuNDEgMzQ5LjU1LDIzMC4yNiAzNDkuNTEsMjMwLjMzIDM0OS41NiwyMzAuMjEgMzQ5LjUzLDIzMC4yOSAzNDkuNTcsMjMwLjE4IDM0OS41NCwyMzAuMjcgMzQ5LjU3LDIzMC4xOCAzNDkuNTQsMjMwLjI4IDM0OS41NiwyMzAuMiAzNDkuNTMsMjMwLjMxIDM0OS41NSwyMzAuMjUgMzQ5LjUyLDIzMC4zNyAzNDkuNTMsMjMwLjMyIDM0OS41MSwyMzAuNDUgMzQ5LjUyLDIzMC40MiAzNDkuNDksMjMwLjU2IDM0OS41LDIzMC41NCAzNDkuNDgsMjMwLjY4IDM0OS40OCwyMzAuNjUgMzQ5LjQ2LDIzMC44MSAzNDkuNDYsMjMwLjggMzQ5LjQ0LDIzMC45NyAzNDkuNDIsMjMxLjE1IDM0OS40MiwyMzEuMTMgMzQ5LjQsMjMxLjMyIDM0OS40LDIzMS4zMyAzNDkuMzcsMjMxLjU0IDM0OS4zNSwyMzEuNzUgMzQ1LjY3LDIzMS4zMiAzNDUuNywyMzEuMSAiIGNsaXAtcGF0aD0idXJsKCNTVkdJRF82XykiIGlkPSJwb2x5Z29uNjA0MTQiLz4mI3hhOwkJPHBhdGggc3R5bGU9ImZpbGw6IzMzNjc5MSIgZD0ibSAzNTUuMzUsMjI2LjI5IGMgLTQuOTksMS4wMiAtNS4zMiwtMC42NiAtNS4zMiwtMC42NiA1LjI2LC03LjgxIDcuNDYsLTE3LjcxIDUuNTYsLTIwLjE0IC01LjE4LC02LjYxIC0xNC4xNCwtMy40OSAtMTQuMjksLTMuNCBsIC0wLjA1LDAuMDEgYyAtMC45OSwtMC4yIC0yLjA5LC0wLjMzIC0zLjMyLC0wLjM0IC0yLjI2LC0wLjA0IC0zLjk2LDAuNTkgLTUuMjYsMS41NyAwLDAgLTE1Ljk4LC02LjU4IC0xNS4yNCw4LjI4IDAuMTYsMy4xNiA0LjUzLDIzLjkzIDkuNzUsMTcuNjYgMS45MSwtMi4yOSAzLjc1LC00LjI0IDMuNzUsLTQuMjQgMC45MiwwLjYxIDIuMDEsMC45MiAzLjE2LDAuODEgbCAwLjA5LC0wLjA4IGMgLTAuMDIsMC4yOSAtMC4wMSwwLjU2IDAuMDQsMC45IC0xLjM0LDEuNSAtMC45NCwxLjc2IC0zLjY0LDIuMzIgLTIuNzIsMC41NiAtMS4xMiwxLjU2IC0wLjA4LDEuODIgMS4yNywwLjMxIDQuMTksMC43NyA2LjE3LC0yIGwgLTAuMDgsMC4zMSBjIDAuNTMsMC40MiAwLjksMi43NSAwLjg0LDQuODUgLTAuMDYsMi4xMSAtMC4xLDMuNTUgMC4zMSw0LjY4IDAuNDIsMS4xMyAwLjgzLDMuNjcgNC4zNiwyLjkxIDIuOTUsLTAuNjQgNC40OSwtMi4yNyA0LjcsLTUuMDEgMC4xNSwtMS45NCAwLjQ5LC0xLjY2IDAuNTEsLTMuMzkgbCAwLjI3LC0wLjgzIGMgMC4zMSwtMi42MyAwLjA1LC0zLjQ4IDEuODcsLTMuMDkgbCAwLjQ0LDAuMDQgYyAxLjM0LDAuMDYgMy4wOSwtMC4yMSA0LjEyLC0wLjcgMi4yMSwtMS4wMiAzLjUzLC0yLjc0IDEuMzQsLTIuMjggeiIgY2xpcC1wYXRoPSJ1cmwoI1NWR0lEXzZfKSIgaWQ9InBhdGg2MDQxNiIgaW5rc2NhcGU6Y29ubmVjdG9yLWN1cnZhdHVyZT0iMCIvPiYjeGE7CQkmI3hhOwkJCTxwYXRoIHN0eWxlPSJmaWxsOm5vbmU7c3Ryb2tlOiNmZmZmZmY7c3Ryb2tlLXdpZHRoOjEuMjM1OTk5OTQ7c3Ryb2tlLWxpbmVjYXA6cm91bmQ7c3Ryb2tlLWxpbmVqb2luOnJvdW5kO3N0cm9rZS1taXRlcmxpbWl0OjEwIiBkPSJtIDMzNi44OCwyMjcuOCBjIC0wLjE0LDQuOSAwLjA0LDkuODQgMC41MSwxMS4wNCAwLjQ4LDEuMiAxLjUxLDMuNTQgNS4wNCwyLjc4IDIuOTUsLTAuNjMgNC4wMiwtMS44NSA0LjQ5LC00LjU2IDAuMzQsLTEuOTkgMSwtNy41MSAxLjA5LC04LjY1IiBjbGlwLXBhdGg9InVybCgjU1ZHSURfNl8pIiBpZD0icGF0aDYwNDE4IiBpbmtzY2FwZTpjb25uZWN0b3ItY3VydmF0dXJlPSIwIi8+JiN4YTsJCSYjeGE7CQkJPHBhdGggc3R5bGU9ImZpbGw6bm9uZTtzdHJva2U6I2ZmZmZmZjtzdHJva2Utd2lkdGg6MS4yMzU5OTk5NDtzdHJva2UtbGluZWNhcDpyb3VuZDtzdHJva2UtbGluZWpvaW46cm91bmQ7c3Ryb2tlLW1pdGVybGltaXQ6MTAiIGQ9Im0gMzMyLjY0LDIwMy4yMSBjIDAsMCAtMTYsLTYuNTQgLTE1LjI1LDguMzMgMC4xNiwzLjE3IDQuNTMsMjMuOTQgOS43NSwxNy42NiAxLjkxLC0yLjI5IDMuNjQsLTQuMDkgMy42NCwtNC4wOSIgY2xpcC1wYXRoPSJ1cmwoI1NWR0lEXzZfKSIgaWQ9InBhdGg2MDQyMCIgaW5rc2NhcGU6Y29ubmVjdG9yLWN1cnZhdHVyZT0iMCIvPiYjeGE7CQkmI3hhOwkJCTxwYXRoIHN0eWxlPSJmaWxsOm5vbmU7c3Ryb2tlOiNmZmZmZmY7c3Ryb2tlLXdpZHRoOjEuMjM1OTk5OTQ7c3Ryb2tlLWxpbmVjYXA6cm91bmQ7c3Ryb2tlLWxpbmVqb2luOnJvdW5kO3N0cm9rZS1taXRlcmxpbWl0OjEwIiBkPSJtIDM0MS4yOCwyMDIuMDIgYyAtMC41NSwwLjE3IDguOSwtMy40NiAxNC4yNywzLjQgMS45LDIuNDIgLTAuMywxMi4zNCAtNS41NiwyMC4xNCIgY2xpcC1wYXRoPSJ1cmwoI1NWR0lEXzZfKSIgaWQ9InBhdGg2MDQyMiIgaW5rc2NhcGU6Y29ubmVjdG9yLWN1cnZhdHVyZT0iMCIvPiYjeGE7CQkmI3hhOwkJCTxwYXRoIHN0eWxlPSJmaWxsOm5vbmU7c3Ryb2tlOiNmZmZmZmY7c3Ryb2tlLXdpZHRoOjEuMjM1OTk5OTQ7c3Ryb2tlLWxpbmVjYXA6cm91bmQ7c3Ryb2tlLWxpbmVqb2luOmJldmVsO3N0cm9rZS1taXRlcmxpbWl0OjEwIiBkPSJtIDM0OS45OSwyMjUuNTYgYyAwLDAgMC4zNCwxLjY5IDUuMzIsMC42NiAyLjE4LC0wLjQ1IDAuODcsMS4yNyAtMS4zNSwyLjI5IC0xLjgxLDAuODQgLTUuODksMS4wNiAtNS45NSwtMC4xMSAtMC4xNywtMyAyLjE1LC0yLjA4IDEuOTgsLTIuODQgLTAuMTUsLTAuNjggLTEuMTksLTEuMzQgLTEuODcsLTMgLTAuNiwtMS40NSAtOC4yLC0xMi41NyAyLjExLC0xMC45MiAwLjM3LC0wLjA4IC0yLjY5LC05LjggLTEyLjM0LC05Ljk2IC05LjY0LC0wLjE2IC05LjMzLDExLjg2IC05LjMzLDExLjg2IiBjbGlwLXBhdGg9InVybCgjU1ZHSURfNl8pIiBpZD0icGF0aDYwNDI0IiBpbmtzY2FwZTpjb25uZWN0b3ItY3VydmF0dXJlPSIwIi8+JiN4YTsJCSYjeGE7CQkJPHBhdGggc3R5bGU9ImZpbGw6bm9uZTtzdHJva2U6I2ZmZmZmZjtzdHJva2Utd2lkdGg6MS4yMzU5OTk5NDtzdHJva2UtbGluZWNhcDpyb3VuZDtzdHJva2UtbGluZWpvaW46cm91bmQ7c3Ryb2tlLW1pdGVybGltaXQ6MTAiIGQ9Im0gMzM0LjE4LDIyNi41OSBjIC0xLjM0LDEuNSAtMC45NCwxLjc2IC0zLjY0LDIuMzIgLTIuNzIsMC41NiAtMS4xMiwxLjU2IC0wLjA4LDEuODIgMS4yNywwLjMxIDQuMTksMC43NiA2LjE3LC0yLjAxIDAuNiwtMC44NCAtMC4wMSwtMi4xOSAtMC44MywtMi41MyAtMC40LC0wLjE2IC0wLjkzLC0wLjM3IC0xLjYyLDAuNCB6IiBjbGlwLXBhdGg9InVybCgjU1ZHSURfNl8pIiBpZD0icGF0aDYwNDI2IiBpbmtzY2FwZTpjb25uZWN0b3ItY3VydmF0dXJlPSIwIi8+JiN4YTsJCSYjeGE7CQkJPHBhdGggc3R5bGU9ImZpbGw6bm9uZTtzdHJva2U6I2ZmZmZmZjtzdHJva2Utd2lkdGg6MS4yMzU5OTk5NDtzdHJva2UtbGluZWNhcDpyb3VuZDtzdHJva2UtbGluZWpvaW46cm91bmQ7c3Ryb2tlLW1pdGVybGltaXQ6MTAiIGQ9Im0gMzM0LjA5LDIyNi41NiBjIC0wLjE0LC0wLjg5IDAuMjksLTEuOTQgMC43NCwtMy4xNyAwLjY5LC0xLjg0IDIuMjcsLTMuNjggMSwtOS41NCAtMC45NCwtNC4zNiAtNy4yNywtMC45MSAtNy4yNywtMC4zMSAtMC4wMSwwLjU5IDAuMjksMi45OSAtMC4xMSw1Ljc5IC0wLjUxLDMuNjYgMi4zMyw2Ljc1IDUuNTksNi40NCIgY2xpcC1wYXRoPSJ1cmwoI1NWR0lEXzZfKSIgaWQ9InBhdGg2MDQyOCIgaW5rc2NhcGU6Y29ubmVjdG9yLWN1cnZhdHVyZT0iMCIvPiYjeGE7CQk8cGF0aCBzdHlsZT0iZmlsbDojZmZmZmZmIiBkPSJtIDMzMi41OCwyMTMuNDYgYyAtMC4wMywwLjIgMC4zNywwLjc0IDAuODksMC44MSAwLjUyLDAuMDggMC45NiwtMC4zNCAwLjk5LC0wLjU1IDAuMDIsLTAuMiAtMC4zNywtMC40MyAtMC44OSwtMC41IC0wLjUxLC0wLjA3IC0wLjk2LDAuMDMgLTAuOTksMC4yNCB6IiBjbGlwLXBhdGg9InVybCgjU1ZHSURfNl8pIiBpZD0icGF0aDYwNDMwIiBpbmtzY2FwZTpjb25uZWN0b3ItY3VydmF0dXJlPSIwIi8+JiN4YTsJCTxwYXRoIHN0eWxlPSJmaWxsOiNmZmZmZmYiIGQ9Im0gMzMyLjQsMjEzLjM2IDAuMDIsLTAuMDQgMC4wMiwtMC4wMyAwLjAzLC0wLjA0IDAuMDMsLTAuMDMgMC4wMiwtMC4wMiAwLjA0LC0wLjAzIDAuMDIsLTAuMDEgMC4wNCwtMC4wMyAwLjAyLC0wLjAxIDAuMDUsLTAuMDIgMC4wMiwtMC4wMSAwLjA2LC0wLjAyIGggMC4wMSBsIDAuMDYsLTAuMDIgaCAwLjAxIGwgMC4wNywtMC4wMSBoIDAuMDEgbCAwLjA4LC0wLjAxIGggMC4wMSBsIDAuMDgsLTAuMDEgaCAwLjAxIDAuMDggMC4wMSAwLjE4IDAuMDIgbCAwLjE5LDAuMDIgaCAwLjAyIGwgMC4xOSwwLjAzIGggMC4wMSBsIDAuMDksMC4wMiBoIDAuMDEgbCAwLjA4LDAuMDIgSCAzMzQgbCAwLjA4LDAuMDMgaCAwLjAxIGwgMC4wOCwwLjAzIGggMC4wMSBsIDAuMDcsMC4wMyBoIDAuMDEgbCAwLjA2LDAuMDMgMC4wMSwwLjAxIDAuMDYsMC4wMyAwLjAxLDAuMDEgMC4wNSwwLjA0IDAuMDIsMC4wMSAwLjA0LDAuMDQgMC4wMiwwLjAxIDAuMDQsMC4wNCAwLjAyLDAuMDIgMC4wMywwLjA0IDAuMDIsMC4wMyAwLjAyLDAuMDQgMC4wMSwwLjA0IDAuMDEsMC4wNCAwLjAxLDAuMDUgdiAwLjA0IGwgLTAuMDEsMC4wNiAtMC4wMSwwLjA0IC0wLjAxLDAuMDMgLTAuMDIsMC4wNCAtMC4wMSwwLjAyIC0wLjAzLDAuMDUgLTAuMDEsMC4wMiAtMC4wNCwwLjA1IC0wLjAxLDAuMDEgLTAuMDQsMC4wNSAtMC4wMSwwLjAxIC0wLjA1LDAuMDUgLTAuMDEsMC4wMSAtMC4wNiwwLjA1IC0wLjAxLDAuMDEgLTAuMDYsMC4wNSAtMC4wMSwwLjAxIC0wLjA3LDAuMDQgLTAuMDEsMC4wMSAtMC4wOCwwLjA0IC0wLjAyLDAuMDEgLTAuMDgsMC4wMyAtMC4wMSwwLjAxIC0wLjA4LDAuMDMgaCAtMC4wMiBsIC0wLjA5LDAuMDIgaCAtMC4wMiBsIC0wLjA5LDAuMDEgaCAtMC4wMiAtMC4wOSAtMC4wMiBsIC0wLjEsLTAuMDEgaCAtMC4wMiBsIC0wLjEsLTAuMDIgaCAtMC4wMiBsIC0wLjA5LC0wLjAzIC0wLjAyLC0wLjAxIC0wLjA5LC0wLjA0IC0wLjAyLC0wLjAxIC0wLjA5LC0wLjA0IC0wLjAxLC0wLjAxIC0wLjA4LC0wLjA1IC0wLjAxLC0wLjAxIC0wLjA4LC0wLjA2IC0wLjAxLC0wLjAxIC0wLjA3LC0wLjA2IC0wLjAxLC0wLjAxIC0wLjA2LC0wLjA2IC0wLjAxLC0wLjAxIC0wLjA2LC0wLjA2IC0wLjAxLC0wLjAxIC0wLjA1LC0wLjA2IC0wLjAxLC0wLjAxIC0wLjA0LC0wLjA2IC0wLjAxLC0wLjAxIC0wLjAzLC0wLjA2IC0wLjAxLC0wLjAxIC0wLjAzLC0wLjA2IC0wLjAxLC0wLjAyIC0wLjAyLC0wLjA1IC0wLjAxLC0wLjAzIC0wLjAxLC0wLjA1IHYgLTAuMDQgLTAuMDQgbCAwLjAxLC0wLjA1IHogbSAwLjM4LDAuMTUgMC4wMSwtMC4wNSB2IDAuMDQgLTAuMDQgbCAwLjAxLDAuMDUgLTAuMDEsLTAuMDMgMC4wMiwwLjA1IC0wLjAxLC0wLjAyIDAuMDMsMC4wNiAtMC4wMSwtMC4wMSAwLjAzLDAuMDYgLTAuMDEsLTAuMDEgMC4wNCwwLjA2IC0wLjAxLC0wLjAxIDAuMDUsMC4wNiAtMC4wMSwtMC4wMSAwLjA2LDAuMDYgLTAuMDEsLTAuMDEgMC4wNiwwLjA2IC0wLjAxLC0wLjAxIDAuMDcsMC4wNiAtMC4wMSwtMC4wMSAwLjA4LDAuMDYgLTAuMDEsLTAuMDEgMC4wOCwwLjA1IC0wLjAxLC0wLjAxIDAuMDgsMC4wNCAtMC4wMiwtMC4wMSAwLjA5LDAuMDQgLTAuMDIsLTAuMDEgMC4wOSwwLjAzIGggLTAuMDIgbCAwLjEsMC4wMiBoIC0wLjAyIGwgMC4xLDAuMDEgaCAtMC4wMiAwLjA5IC0wLjAyIGwgMC4wOSwtMC4wMSBoIC0wLjAyIGwgMC4wOSwtMC4wMiBoIC0wLjAyIGwgMC4wOCwtMC4wMyBoIC0wLjAxIGwgMC4wOCwtMC4wMyAtMC4wMiwwLjAxIDAuMDgsLTAuMDQgLTAuMDEsMC4wMSAwLjA3LC0wLjA0IC0wLjAxLDAuMDEgMC4wNiwtMC4wNSAtMC4wMSwwLjAxIDAuMDYsLTAuMDUgLTAuMDEsMC4wMSAwLjA1LC0wLjA1IC0wLjAxLDAuMDEgMC4wNCwtMC4wNSAtMC4wMSwwLjAxIDAuMDQsLTAuMDUgLTAuMDEsMC4wMiAwLjAzLC0wLjA1IC0wLjAxLDAuMDIgMC4wMiwtMC4wNCAtMC4wMSwwLjAzIDAuMDEsLTAuMDQgLTAuMDEsMC4wNiB2IC0wLjA0IGwgMC4wMSwwLjA1IC0wLjAxLC0wLjA0IDAuMDEsMC4wNCAtMC4wMiwtMC4wNCAwLjAyLDAuMDMgLTAuMDMsLTAuMDQgMC4wMiwwLjAyIC0wLjA0LC0wLjA0IDAuMDIsMC4wMSAtMC4wNCwtMC4wNCAwLjAyLDAuMDEgLTAuMDUsLTAuMDQgMC4wMSwwLjAxIC0wLjA2LC0wLjAzIDAuMDEsMC4wMSAtMC4wNiwtMC4wMyAwLjAxLDAuMDEgLTAuMDcsLTAuMDMgaCAwLjAxIGwgLTAuMDgsLTAuMDMgaCAwLjAxIGwgLTAuMDgsLTAuMDMgaCAwLjAxIGwgLTAuMDksLTAuMDIgaCAwLjAxIGwgLTAuMDksLTAuMDIgaCAwLjAxIGwgLTAuMTksLTAuMDMgaCAwLjAyIGwgLTAuMTksLTAuMDIgaCAwLjAyIC0wLjE4IDAuMDEgLTAuMDggMC4wMSBsIC0wLjA4LDAuMDEgaCAwLjAxIGwgLTAuMDgsMC4wMSBoIDAuMDEgbCAtMC4wNywwLjAxIGggMC4wMSBsIC0wLjA3LDAuMDIgaCAwLjAxIGwgLTAuMDYsMC4wMiAwLjAyLC0wLjAxIC0wLjA1LDAuMDIgMC4wMiwtMC4wMSAtMC4wNCwwLjAzIDAuMDIsLTAuMDEgLTAuMDQsMC4wMyAwLjAyLC0wLjAyIC0wLjAzLDAuMDMgMC4wMywtMC4wNCB2IDAuMDMgbCAwLjAxLC0wLjA0IHoiIGNsaXAtcGF0aD0idXJsKCNTVkdJRF82XykiIGlkPSJwYXRoNjA0MzIiIGlua3NjYXBlOmNvbm5lY3Rvci1jdXJ2YXR1cmU9IjAiLz4mI3hhOwkJPHBhdGggc3R5bGU9ImZpbGw6I2ZmZmZmZiIgZD0ibSAzNDguMzcsMjEzLjA0IGMgMC4wMywwLjIgLTAuMzcsMC43NCAtMC44OSwwLjgxIC0wLjUyLDAuMDcgLTAuOTYsLTAuMzUgLTAuOTksLTAuNTUgLTAuMDMsLTAuMiAwLjM3LC0wLjQzIDAuODksLTAuNSAwLjUyLC0wLjA2IDAuOTcsMC4wNCAwLjk5LDAuMjQgeiIgY2xpcC1wYXRoPSJ1cmwoI1NWR0lEXzZfKSIgaWQ9InBhdGg2MDQzNCIgaW5rc2NhcGU6Y29ubmVjdG9yLWN1cnZhdHVyZT0iMCIvPiYjeGE7CQk8cGF0aCBzdHlsZT0iZmlsbDojZmZmZmZmIiBkPSJtIDM0OC4yNiwyMTMuMDMgMC4wMSwwLjAyIC0wLjAyLC0wLjAzIDAuMDEsMC4wMSAtMC4wMiwtMC4wMiAwLjAxLDAuMDEgLTAuMDQsLTAuMDMgMC4wMSwwLjAxIC0wLjA0LC0wLjAzIGggMC4wMSBsIC0wLjA1LC0wLjAyIGggMC4wMSBsIC0wLjA2LC0wLjAyIGggMC4wMSBsIC0wLjA2LC0wLjAyIGggMC4wMSBsIC0wLjA3LC0wLjAxIGggMC4wMSBsIC0wLjA4LC0wLjAxIHYgMCBsIC0wLjA4LC0wLjAxIHYgMCBoIC0wLjA4IDAuMDEgLTAuMTggMC4wMSBsIC0wLjE5LDAuMDIgaCAwLjAxIGwgLTAuMTksMC4wMyBoIDAuMDEgbCAtMC4wOSwwLjAyIHYgMCBsIC0wLjA4LDAuMDIgdiAwIGwgLTAuMDgsMC4wMyB2IDAgbCAtMC4wOCwwLjAzIGggMC4wMSBsIC0wLjA3LDAuMDMgaCAwLjAxIGwgLTAuMDYsMC4wMyBoIDAuMDEgbCAtMC4wNiwwLjAzIGggMC4wMSBsIC0wLjA1LDAuMDQgMC4wMSwtMC4wMSAtMC4wNCwwLjA0IDAuMDEsLTAuMDEgLTAuMDMsMC4wNCAwLjAxLC0wLjAxIC0wLjAzLDAuMDQgMC4wMSwtMC4wMSAtMC4wMiwwLjA0IDAuMDEsLTAuMDIgLTAuMDEsMC4wNCB2IC0wLjAzIDAuMDQgLTAuMDIgbCAwLjAxLDAuMDQgLTAuMDEsLTAuMDIgMC4wMiwwLjA0IC0wLjAxLC0wLjAxIDAuMDMsMC4wNSB2IC0wLjAxIGwgMC4wNCwwLjA1IC0wLjAxLC0wLjAxIDAuMDQsMC4wNSB2IC0wLjAxIGwgMC4wNSwwLjA1IHYgMCBsIDAuMDYsMC4wNSBoIC0wLjAxIGwgMC4wNiwwLjA1IGggLTAuMDEgbCAwLjA3LDAuMDQgaCAtMC4wMSBsIDAuMDcsMC4wNCBIIDM0NyBsIDAuMDgsMC4wMyBoIC0wLjAxIGwgMC4wOCwwLjAzIGggLTAuMDEgbCAwLjA5LDAuMDIgaCAtMC4wMSBsIDAuMDksMC4wMSBoIC0wLjAxIDAuMDkgLTAuMDEgbCAwLjEsLTAuMDEgaCAtMC4wMSBsIDAuMSwtMC4wMiBoIC0wLjAxIGwgMC4wOSwtMC4wMyBoIC0wLjAxIGwgMC4wOSwtMC4wNCBoIC0wLjAxIGwgMC4wOSwtMC4wNCBoIC0wLjAxIGwgMC4wOCwtMC4wNSBoIC0wLjAxIGwgMC4wOCwtMC4wNiBoIC0wLjAxIGwgMC4wNywtMC4wNiB2IDAuMDEgbCAwLjA2LC0wLjA2IHYgMCBsIDAuMDYsLTAuMDYgdiAwLjAxIGwgMC4wNSwtMC4wNyB2IDAuMDEgbCAwLjA0LC0wLjA2IHYgMCBsIDAuMDQsLTAuMDYgdiAwLjAxIGwgMC4wMywtMC4wNiB2IDAuMDEgbCAwLjAyLC0wLjA1IHYgMC4wMSBsIDAuMDEsLTAuMDUgdiAwLjAyIC0wLjA0IDAuMDIgeiBtIDAuMjEsLTAuMDIgdiAwLjAyIDAuMDQgMC4wMiBsIC0wLjAxLDAuMDUgdiAwLjAxIGwgLTAuMDIsMC4wNSB2IDAuMDEgbCAtMC4wMywwLjA2IC0wLjAxLDAuMDEgLTAuMDQsMC4wNiB2IDAgbCAtMC4wNCwwLjA2IHYgMC4wMSBsIC0wLjA1LDAuMDYgdiAwLjAxIGwgLTAuMDYsMC4wNiB2IDAgbCAtMC4wNiwwLjA2IHYgMCBsIC0wLjA3LDAuMDYgaCAtMC4wMSBsIC0wLjA4LDAuMDYgdiAwIGwgLTAuMDgsMC4wNSBoIC0wLjAxIGwgLTAuMDgsMC4wNCBoIC0wLjAxIGwgLTAuMDksMC4wNCBoIC0wLjAxIGwgLTAuMDksMC4wMyBoIC0wLjAxIGwgLTAuMSwwLjAyIGggLTAuMDEgbCAtMC4xLDAuMDEgaCAtMC4wMSAtMC4wOSAtMC4wMSBsIC0wLjA5LC0wLjAxIGggLTAuMDEgbCAtMC4wOSwtMC4wMiBoIC0wLjAxIEwgMzQ3LDIxMy45IGggLTAuMDEgbCAtMC4wOCwtMC4wMyBoIC0wLjAxIGwgLTAuMDgsLTAuMDQgaCAtMC4wMSBsIC0wLjA3LC0wLjA0IGggLTAuMDEgbCAtMC4wNiwtMC4wNSBoIC0wLjAxIGwgLTAuMDYsLTAuMDUgdiAwIGwgLTAuMDUsLTAuMDUgdiAtMC4wMSBsIC0wLjA0LC0wLjA1IHYgLTAuMDEgbCAtMC4wNCwtMC4wNSB2IC0wLjAxIGwgLTAuMDMsLTAuMDUgLTAuMDEsLTAuMDEgLTAuMDIsLTAuMDQgLTAuMDEsLTAuMDIgLTAuMDEsLTAuMDQgdiAtMC4wMiAtMC4wNCAtMC4wMyBsIDAuMDEsLTAuMDQgMC4wMSwtMC4wMiAwLjAyLC0wLjA0IDAuMDEsLTAuMDEgMC4wMywtMC4wNCAwLjAxLC0wLjAxIDAuMDMsLTAuMDQgMC4wMSwtMC4wMSAwLjA0LC0wLjA0IDAuMDEsLTAuMDEgMC4wNSwtMC4wNCBoIDAuMDEgbCAwLjA2LC0wLjAzIGggMC4wMSBsIDAuMDYsLTAuMDMgdiAwIGwgMC4wNywtMC4wMyB2IDAgbCAwLjA4LC0wLjAzIHYgMCBsIDAuMDgsLTAuMDMgdiAwIGwgMC4wOSwtMC4wMiB2IDAgbCAwLjA5LC0wLjAyIGggMC4wMSBsIDAuMTksLTAuMDMgaCAwLjAxIGwgMC4xOSwtMC4wMiBoIDAuMDEgMC4xOCAwLjAxIDAuMDggdiAwIGwgMC4wOCwwLjAxIHYgMCBsIDAuMDgsMC4wMSBoIDAuMDEgbCAwLjA3LDAuMDEgaCAwLjAxIGwgMC4wNiwwLjAyIGggMC4wMSBsIDAuMDYsMC4wMiBoIDAuMDEgbCAwLjA1LDAuMDIgaCAwLjAxIGwgMC4wNCwwLjAzIDAuMDEsMC4wMSAwLjA0LDAuMDMgMC4wMSwwLjAxIDAuMDMsMC4wMyAwLjAxLDAuMDIgMC4wMiwwLjAzIDAuMDEsMC4wMiB6IiBjbGlwLXBhdGg9InVybCgjU1ZHSURfNl8pIiBpZD0icGF0aDYwNDM2IiBpbmtzY2FwZTpjb25uZWN0b3ItY3VydmF0dXJlPSIwIi8+JiN4YTsJCSYjeGE7CQkJPHBhdGggc3R5bGU9ImZpbGw6bm9uZTtzdHJva2U6I2ZmZmZmZjtzdHJva2Utd2lkdGg6MS4yMzU5OTk5NDtzdHJva2UtbGluZWNhcDpyb3VuZDtzdHJva2UtbGluZWpvaW46cm91bmQ7c3Ryb2tlLW1pdGVybGltaXQ6MTAiIGQ9Im0gMzUwLjIzLDIxMS42NCBjIDAuMDgsMS41OSAtMC4zNCwyLjY2IC0wLjQsNC4zNSAtMC4wOCwyLjQ1IDEuMTcsNS4yNiAtMC43MSw4LjA2IiBjbGlwLXBhdGg9InVybCgjU1ZHSURfNl8pIiBpZD0icGF0aDYwNDM4IiBpbmtzY2FwZTpjb25uZWN0b3ItY3VydmF0dXJlPSIwIi8+JiN4YTsJPC9nPiYjeGE7PC9nPiYjeGE7PC9zdmc+;" parent="1" vertex="1">
          <mxGeometry x="424.31" y="590" width="68.41" height="70" as="geometry" />
        </mxCell>
        <mxCell id="zlhoYKVswHlVtqf08jpZ-20" value="" style="sketch=0;aspect=fixed;html=1;points=[];align=center;image;fontSize=12;image=img/lib/mscae/Cache_Redis_Product.svg;" parent="1" vertex="1">
          <mxGeometry x="524.31" y="592.8" width="80" height="67.2" as="geometry" />
        </mxCell>
        <mxCell id="zlhoYKVswHlVtqf08jpZ-21" value="" style="shape=image;verticalLabelPosition=bottom;labelBackgroundColor=#ffffff;verticalAlign=top;aspect=fixed;imageAspect=0;image=data:image/svg+xml,PHN2ZyB4bWxuczpkYz0iaHR0cDovL3B1cmwub3JnL2RjL2VsZW1lbnRzLzEuMS8iIHhtbG5zOmNjPSJodHRwOi8vY3JlYXRpdmVjb21tb25zLm9yZy9ucyMiIHhtbG5zOnJkZj0iaHR0cDovL3d3dy53My5vcmcvMTk5OS8wMi8yMi1yZGYtc3ludGF4LW5zIyIgeG1sbnM6c3ZnPSJodHRwOi8vd3d3LnczLm9yZy8yMDAwL3N2ZyIgeG1sbnM9Imh0dHA6Ly93d3cudzMub3JnLzIwMDAvc3ZnIiB4bWxuczp4bGluaz0iaHR0cDovL3d3dy53My5vcmcvMTk5OS94bGluayIgeG1sbnM6c29kaXBvZGk9Imh0dHA6Ly9zb2RpcG9kaS5zb3VyY2Vmb3JnZS5uZXQvRFREL3NvZGlwb2RpLTAuZHRkIiB4bWxuczppbmtzY2FwZT0iaHR0cDovL3d3dy5pbmtzY2FwZS5vcmcvbmFtZXNwYWNlcy9pbmtzY2FwZSIgdmVyc2lvbj0iMS4xIiBpZD0iTGF5ZXJfMSIgeD0iMHB4IiB5PSIwcHgiIHZpZXdCb3g9IjAgMCAzNS45Mzk5OTUgMzUuOTUwMDAxIiB4bWw6c3BhY2U9InByZXNlcnZlIiBzb2RpcG9kaTpkb2NuYW1lPSJzYXBfc2VfcmFiYml0bXEuc3ZnIiB3aWR0aD0iMzUuOTM5OTk1IiBoZWlnaHQ9IjM1Ljk1MDAwMSIgaW5rc2NhcGU6dmVyc2lvbj0iMC45Mi4zICgyNDA1NTQ2LCAyMDE4LTAzLTExKSI+PG1ldGFkYXRhIGlkPSJtZXRhZGF0YTYwODc3Ij48cmRmOlJERj48Y2M6V29yayByZGY6YWJvdXQ9IiI+PGRjOmZvcm1hdD5pbWFnZS9zdmcreG1sPC9kYzpmb3JtYXQ+PGRjOnR5cGUgcmRmOnJlc291cmNlPSJodHRwOi8vcHVybC5vcmcvZGMvZGNtaXR5cGUvU3RpbGxJbWFnZSIvPjxkYzp0aXRsZS8+PC9jYzpXb3JrPjwvcmRmOlJERj48L21ldGFkYXRhPjxkZWZzIGlkPSJkZWZzNjA4NzUiLz48c29kaXBvZGk6bmFtZWR2aWV3IHBhZ2Vjb2xvcj0iI2ZmZmZmZiIgYm9yZGVyY29sb3I9IiM2NjY2NjYiIGJvcmRlcm9wYWNpdHk9IjEiIG9iamVjdHRvbGVyYW5jZT0iMTAiIGdyaWR0b2xlcmFuY2U9IjEwIiBndWlkZXRvbGVyYW5jZT0iMTAiIGlua3NjYXBlOnBhZ2VvcGFjaXR5PSIwIiBpbmtzY2FwZTpwYWdlc2hhZG93PSIyIiBpbmtzY2FwZTp3aW5kb3ctd2lkdGg9IjE5MjAiIGlua3NjYXBlOndpbmRvdy1oZWlnaHQ9IjEwMTciIGlkPSJuYW1lZHZpZXc2MDg3MyIgc2hvd2dyaWQ9ImZhbHNlIiBmaXQtbWFyZ2luLXRvcD0iMCIgZml0LW1hcmdpbi1sZWZ0PSIwIiBmaXQtbWFyZ2luLXJpZ2h0PSIwIiBmaXQtbWFyZ2luLWJvdHRvbT0iMCIgaW5rc2NhcGU6em9vbT0iMS4wMzAzMDMiIGlua3NjYXBlOmN4PSItMjUuMjI1MDA2IiBpbmtzY2FwZTpjeT0iLTE5Mi4wNCIgaW5rc2NhcGU6d2luZG93LXg9Ii04IiBpbmtzY2FwZTp3aW5kb3cteT0iLTgiIGlua3NjYXBlOndpbmRvdy1tYXhpbWl6ZWQ9IjEiIGlua3NjYXBlOmN1cnJlbnQtbGF5ZXI9IkxheWVyXzEiLz4mI3hhOyYjeGE7PGcgaWQ9Imc2MDg3MCIgdHJhbnNmb3JtPSJ0cmFuc2xhdGUoLTMyMi42MDAwMSwtMTkyLjc2KSI+JiN4YTsJPGRlZnMgaWQ9ImRlZnM2MDg1NSI+JiN4YTsJCTxyZWN0IGlkPSJTVkdJRF8zXyIgeD0iMzIyLjYwMDAxIiB5PSIxOTIuNzU5OTkiIHdpZHRoPSIzNi44MiIgaGVpZ2h0PSIzNi44MiIvPiYjeGE7CTwvZGVmcz4mI3hhOwk8Y2xpcFBhdGggaWQ9IlNWR0lEXzRfIj4mI3hhOwkJPHVzZSB4bGluazpocmVmPSIjU1ZHSURfM18iIHN0eWxlPSJvdmVyZmxvdzp2aXNpYmxlIiBpZD0idXNlNjA4NTciIHg9IjAiIHk9IjAiIHdpZHRoPSIxMDAlIiBoZWlnaHQ9IjEwMCUiLz4mI3hhOwk8L2NsaXBQYXRoPiYjeGE7CTxnIGNsaXAtcGF0aD0idXJsKCNTVkdJRF80XykiIGlkPSJnNjA4NjgiPiYjeGE7CQk8ZGVmcyBpZD0iZGVmczYwODYxIj4mI3hhOwkJCTxyZWN0IGlkPSJTVkdJRF81XyIgeD0iMzIyLjYwMDAxIiB5PSIxOTIuNzU5OTkiIHdpZHRoPSIzNi44MiIgaGVpZ2h0PSIzNi44MiIvPiYjeGE7CQk8L2RlZnM+JiN4YTsJCTxjbGlwUGF0aCBpZD0iU1ZHSURfNl8iPiYjeGE7CQkJPHVzZSB4bGluazpocmVmPSIjU1ZHSURfNV8iIHN0eWxlPSJvdmVyZmxvdzp2aXNpYmxlIiBpZD0idXNlNjA4NjMiIHg9IjAiIHk9IjAiIHdpZHRoPSIxMDAlIiBoZWlnaHQ9IjEwMCUiLz4mI3hhOwkJPC9jbGlwUGF0aD4mI3hhOwkJPHBhdGggc3R5bGU9ImZpbGw6I2ViNjAyMiIgZD0ibSAzNTEuMzUsMjE5LjM2IGMgMCwxLjIgLTAuOTYsMi4xNiAtMi4xNiwyLjE2IGggLTIuODggYyAtMS4yLDAgLTIuMTYsLTAuOTYgLTIuMTYsLTIuMTYgdiAtMi44OCBjIDAsLTEuMiAwLjk2LC0yLjE2IDIuMTYsLTIuMTYgaCAyLjg4IGMgMS4yLDAgMi4xNiwwLjk2IDIuMTYsMi4xNiB6IG0gNS43NSwtMTIuMjIgaCAtMTEuNSBjIC0wLjc4LDAgLTEuNDQsLTAuNjYgLTEuNDQsLTEuNDQgdiAtMTEuNSBjIDAsLTAuNzggLTAuNjYsLTEuNDQgLTEuNDQsLTEuNDQgaCAtNC4zMSBjIC0wLjc4LDAgLTEuNDQsMC42NiAtMS40NCwxLjQ0IHYgMTEuNSBjIDAsMC43OCAtMC42NiwxLjQ0IC0xLjQ0LDEuNDQgaCAtNC4zMSBjIC0wLjc4LDAgLTEuNDQsLTAuNjYgLTEuNDQsLTEuNDQgdiAtMTEuNSBjIDAsLTAuNzggLTAuNjYsLTEuNDQgLTEuNDQsLTEuNDQgaCAtNC4zMSBjIC0wLjc4LDAgLTEuNDQsMC42NiAtMS40NCwxLjQ0IHYgMzMuMDcgYyAwLDAuNzggMC42NiwxLjQ0IDEuNDQsMS40NCBoIDMzLjA3IGMgMC43OCwwIDEuNDQsLTAuNjYgMS40NCwtMS40NCB2IC0xOC42OSBjIDAsLTAuNzkgLTAuNjYsLTEuNDQgLTEuNDQsLTEuNDQiIGNsaXAtcGF0aD0idXJsKCNTVkdJRF82XykiIGlkPSJwYXRoNjA4NjYiIGlua3NjYXBlOmNvbm5lY3Rvci1jdXJ2YXR1cmU9IjAiLz4mI3hhOwk8L2c+JiN4YTs8L2c+JiN4YTs8L3N2Zz4=;" parent="1" vertex="1">
          <mxGeometry x="691.29" y="592.8" width="67.2" height="67.2" as="geometry" />
        </mxCell>
        <mxCell id="zlhoYKVswHlVtqf08jpZ-28" style="edgeStyle=orthogonalEdgeStyle;rounded=0;orthogonalLoop=1;jettySize=auto;html=1;entryX=0;entryY=0.5;entryDx=0;entryDy=0;" parent="1" source="zlhoYKVswHlVtqf08jpZ-27" target="zlhoYKVswHlVtqf08jpZ-16" edge="1">
          <mxGeometry relative="1" as="geometry">
            <Array as="points">
              <mxPoint x="350" y="460" />
              <mxPoint x="324" y="460" />
              <mxPoint x="324" y="620" />
            </Array>
          </mxGeometry>
        </mxCell>
        <mxCell id="zlhoYKVswHlVtqf08jpZ-29" style="edgeStyle=orthogonalEdgeStyle;rounded=0;orthogonalLoop=1;jettySize=auto;html=1;dashed=1;" parent="1" source="zlhoYKVswHlVtqf08jpZ-27" target="zlhoYKVswHlVtqf08jpZ-1" edge="1">
          <mxGeometry relative="1" as="geometry" />
        </mxCell>
        <mxCell id="zlhoYKVswHlVtqf08jpZ-27" value="Epsilon" style="sketch=0;aspect=fixed;pointerEvents=1;shadow=0;dashed=0;html=1;strokeColor=none;labelPosition=center;verticalLabelPosition=middle;verticalAlign=middle;align=center;fillColor=#00188D;shape=mxgraph.mscae.enterprise.application_blank" parent="1" vertex="1">
          <mxGeometry x="349.27" y="280" width="69.77" height="60" as="geometry" />
        </mxCell>
        <mxCell id="zlhoYKVswHlVtqf08jpZ-31" style="edgeStyle=orthogonalEdgeStyle;rounded=0;orthogonalLoop=1;jettySize=auto;html=1;" parent="1" source="zlhoYKVswHlVtqf08jpZ-30" target="zlhoYKVswHlVtqf08jpZ-19" edge="1">
          <mxGeometry relative="1" as="geometry" />
        </mxCell>
        <mxCell id="zlhoYKVswHlVtqf08jpZ-32" style="edgeStyle=orthogonalEdgeStyle;rounded=0;orthogonalLoop=1;jettySize=auto;html=1;" parent="1" source="zlhoYKVswHlVtqf08jpZ-30" target="zlhoYKVswHlVtqf08jpZ-20" edge="1">
          <mxGeometry relative="1" as="geometry" />
        </mxCell>
        <mxCell id="LNJo_GOO3jLuJofgwiUO-13" style="edgeStyle=orthogonalEdgeStyle;rounded=0;orthogonalLoop=1;jettySize=auto;html=1;dashed=1;exitX=1.009;exitY=0.443;exitDx=0;exitDy=0;exitPerimeter=0;" edge="1" parent="1" source="zlhoYKVswHlVtqf08jpZ-30">
          <mxGeometry relative="1" as="geometry">
            <mxPoint x="424.30999999999995" y="269.9985714285714" as="sourcePoint" />
            <mxPoint x="175" y="370" as="targetPoint" />
          </mxGeometry>
        </mxCell>
        <mxCell id="zlhoYKVswHlVtqf08jpZ-30" value="Sigma" style="sketch=0;aspect=fixed;pointerEvents=1;shadow=0;dashed=0;html=1;strokeColor=none;labelPosition=center;verticalLabelPosition=middle;verticalAlign=middle;align=center;fillColor=#00188D;shape=mxgraph.mscae.enterprise.application_blank" parent="1" vertex="1">
          <mxGeometry x="424.31" y="280" width="69.77" height="60" as="geometry" />
        </mxCell>
        <mxCell id="zlhoYKVswHlVtqf08jpZ-35" style="edgeStyle=orthogonalEdgeStyle;rounded=0;orthogonalLoop=1;jettySize=auto;html=1;" parent="1" source="zlhoYKVswHlVtqf08jpZ-34" target="zlhoYKVswHlVtqf08jpZ-21" edge="1">
          <mxGeometry relative="1" as="geometry" />
        </mxCell>
        <mxCell id="zlhoYKVswHlVtqf08jpZ-36" style="edgeStyle=orthogonalEdgeStyle;rounded=0;orthogonalLoop=1;jettySize=auto;html=1;entryX=0.5;entryY=0;entryDx=0;entryDy=0;dashed=1;" parent="1" source="zlhoYKVswHlVtqf08jpZ-34" target="zlhoYKVswHlVtqf08jpZ-1" edge="1">
          <mxGeometry relative="1" as="geometry">
            <Array as="points">
              <mxPoint x="725" y="240" />
              <mxPoint x="175" y="240" />
            </Array>
          </mxGeometry>
        </mxCell>
        <mxCell id="zlhoYKVswHlVtqf08jpZ-34" value="Mu" style="sketch=0;aspect=fixed;pointerEvents=1;shadow=0;dashed=0;html=1;strokeColor=none;labelPosition=center;verticalLabelPosition=middle;verticalAlign=middle;align=center;fillColor=#00188D;shape=mxgraph.mscae.enterprise.application_blank" parent="1" vertex="1">
          <mxGeometry x="690" y="280" width="69.77" height="60" as="geometry" />
        </mxCell>
        <mxCell id="zlhoYKVswHlVtqf08jpZ-39" style="edgeStyle=orthogonalEdgeStyle;rounded=0;orthogonalLoop=1;jettySize=auto;html=1;fillColor=#ffe6cc;strokeColor=#d79b00;" parent="1" source="zlhoYKVswHlVtqf08jpZ-37" target="zlhoYKVswHlVtqf08jpZ-34" edge="1">
          <mxGeometry relative="1" as="geometry" />
        </mxCell>
        <mxCell id="zlhoYKVswHlVtqf08jpZ-41" style="edgeStyle=orthogonalEdgeStyle;rounded=0;orthogonalLoop=1;jettySize=auto;html=1;entryX=0.5;entryY=0;entryDx=0;entryDy=0;dashed=1;" parent="1" source="zlhoYKVswHlVtqf08jpZ-37" target="zlhoYKVswHlVtqf08jpZ-1" edge="1">
          <mxGeometry relative="1" as="geometry">
            <Array as="points">
              <mxPoint x="175" y="180" />
            </Array>
          </mxGeometry>
        </mxCell>
        <mxCell id="LNJo_GOO3jLuJofgwiUO-6" style="edgeStyle=orthogonalEdgeStyle;rounded=0;orthogonalLoop=1;jettySize=auto;html=1;fillColor=#ffe6cc;strokeColor=#d79b00;" edge="1" parent="1" source="zlhoYKVswHlVtqf08jpZ-37" target="LNJo_GOO3jLuJofgwiUO-2">
          <mxGeometry relative="1" as="geometry" />
        </mxCell>
        <mxCell id="LNJo_GOO3jLuJofgwiUO-14" style="edgeStyle=orthogonalEdgeStyle;rounded=0;orthogonalLoop=1;jettySize=auto;html=1;fillColor=#ffe6cc;strokeColor=#d79b00;" edge="1" parent="1" source="zlhoYKVswHlVtqf08jpZ-37" target="zlhoYKVswHlVtqf08jpZ-27">
          <mxGeometry relative="1" as="geometry" />
        </mxCell>
        <mxCell id="zlhoYKVswHlVtqf08jpZ-37" value="Alpha" style="sketch=0;aspect=fixed;pointerEvents=1;shadow=0;dashed=0;html=1;strokeColor=none;labelPosition=center;verticalLabelPosition=middle;verticalAlign=middle;align=center;fillColor=#00188D;shape=mxgraph.mscae.enterprise.application_blank" parent="1" vertex="1">
          <mxGeometry x="529.42" y="170" width="69.77" height="60" as="geometry" />
        </mxCell>
        <mxCell id="zlhoYKVswHlVtqf08jpZ-47" style="edgeStyle=orthogonalEdgeStyle;rounded=0;orthogonalLoop=1;jettySize=auto;html=1;fillColor=#d5e8d4;strokeColor=#82b366;" parent="1" source="zlhoYKVswHlVtqf08jpZ-43" target="zlhoYKVswHlVtqf08jpZ-37" edge="1">
          <mxGeometry relative="1" as="geometry" />
        </mxCell>
        <mxCell id="LNJo_GOO3jLuJofgwiUO-8" style="edgeStyle=orthogonalEdgeStyle;rounded=0;orthogonalLoop=1;jettySize=auto;html=1;fillColor=#d5e8d4;strokeColor=#82b366;" edge="1" parent="1" source="zlhoYKVswHlVtqf08jpZ-43" target="LNJo_GOO3jLuJofgwiUO-2">
          <mxGeometry relative="1" as="geometry" />
        </mxCell>
        <mxCell id="LNJo_GOO3jLuJofgwiUO-17" style="edgeStyle=orthogonalEdgeStyle;rounded=0;orthogonalLoop=1;jettySize=auto;html=1;fillColor=#d5e8d4;strokeColor=#82b366;" edge="1" parent="1" source="zlhoYKVswHlVtqf08jpZ-43" target="zlhoYKVswHlVtqf08jpZ-30">
          <mxGeometry relative="1" as="geometry" />
        </mxCell>
        <mxCell id="zlhoYKVswHlVtqf08jpZ-43" value="Omicron" style="aspect=fixed;html=1;points=[];align=center;image;fontSize=12;image=img/lib/azure2/networking/Application_Gateways.svg;shadow=0;fillColor=#6600CC;" parent="1" vertex="1">
          <mxGeometry x="450" y="20" width="64" height="64" as="geometry" />
        </mxCell>
        <mxCell id="LNJo_GOO3jLuJofgwiUO-5" style="edgeStyle=orthogonalEdgeStyle;rounded=0;orthogonalLoop=1;jettySize=auto;html=1;" edge="1" parent="1" source="LNJo_GOO3jLuJofgwiUO-2" target="LNJo_GOO3jLuJofgwiUO-4">
          <mxGeometry relative="1" as="geometry" />
        </mxCell>
        <mxCell id="LNJo_GOO3jLuJofgwiUO-12" style="edgeStyle=orthogonalEdgeStyle;rounded=0;orthogonalLoop=1;jettySize=auto;html=1;exitX=0;exitY=0;exitDx=0;exitDy=0;exitPerimeter=0;dashed=1;" edge="1" parent="1" source="LNJo_GOO3jLuJofgwiUO-2">
          <mxGeometry relative="1" as="geometry">
            <mxPoint x="650" y="240" as="sourcePoint" />
            <mxPoint x="175" y="370" as="targetPoint" />
          </mxGeometry>
        </mxCell>
        <mxCell id="LNJo_GOO3jLuJofgwiUO-2" value="Nu" style="sketch=0;aspect=fixed;pointerEvents=1;shadow=0;dashed=0;html=1;strokeColor=none;labelPosition=center;verticalLabelPosition=middle;verticalAlign=middle;align=center;fillColor=#00188D;shape=mxgraph.mscae.enterprise.application_blank" vertex="1" parent="1">
          <mxGeometry x="580" y="280" width="69.77" height="60" as="geometry" />
        </mxCell>
        <mxCell id="LNJo_GOO3jLuJofgwiUO-4" value="" style="shape=image;verticalLabelPosition=bottom;labelBackgroundColor=default;verticalAlign=top;aspect=fixed;imageAspect=0;image=data:image/png,iVBORw0KGgoAAAANSUhEUgAAAgAAAAIACAYAAAD0eNT6AABOMElEQVR42u3debgdZZku/PupWsPemUPIQEggzEPIYAMJqGgQCZMg2p3YMgl6FFsG227tPnZ7+kt7PN3H0320Tx89tmMItrYGJwQbGZSNA3MQGQQZZZ4hEEKSvVc99/dHssPOztpzVb21at2/6+IyWatWvU8ts/a69/tUvQWIiIiIiIiIiIiIiIiIiIiIiIiIiIiIiIiIiIiIiIiIiIiIiIiIiIiIiIiIiIiIiIiIyKid/p8nTHr/j9759tB1iEhYUegCRCRftaS23CM7P3QdIhKWAoBIuyEWEDzp/ZeeMjt0KSISjgKASJtxYLYBlcTsnNC1iEg4CgAibcYMuwGAAR9YtWqVfgaItCl9+EXaDTFr25/2uuvA648LXY6IhKEAINJGVqxdUQNwUO/fN/W89rFVq/RzQKQd6YMv0kbG1bccDmBc79+dvuj6vZa+O3RdIpI/BQCRNhIBb+n7d4IdAD6zYu2KOHRtIpIvBQCRNkLDjj1/ogLigFc2Pnpa6NpEJF8KACJt4n0/PHUfwHaYAQC59X8Mn16xdn4tdI0ikh8FAJE2YTE/CMD6PkbblgCAea9snPi+0DWKSH4UAETawIcuO3kcgLP7P26IvPfPNK46cu2RnaFrFZF8KACItIEet48CmNn/cTPb1Oevsye+xg+GrlVE8qEAIFJyH7rs5F0Z2V83e64SRy/t+Ih/atnaZRNC1ywi2VMAECm5LbBPg5jc7Lkorry64yM2vb5p83mhaxaR7CkAiJTY2ZeecqzRPjzQ87FVNvd/jORfL1u9eEro2kUkWwoAIiV12uUnTYXZ19HvzP++KlHUaPLw1Bo6/jx0/SKSLQUAkRJatWpVVPPKGgBzB9sujivNfwYY//KEbxw1PfRxiEh2FABESujhP/rNZwGcPNR2cRRVB3hqQsO2/GXo4xCR7CgAiJTM2Zee8n4DPj6cbSPY+IGeM7MLTlx9+Kzh7EdEWo8CgEiJnH3Zqacisn8b7vaR2cRBnh7XsOiToY9JRLKhACBSEu+77NTlIL8DojrsF0U2dYgtPnz86iPmhT42EUmfAoBICbzvslOXG3kpgPqIXkhMMrOeQbaouVGzACIlpAAg0uLed+kpp2z78u8YxcstjqIXh9jmnOWrjzww9HGKSLoUAERa2DmXnnIGzL6P0X35AwDiKFo/xCZVmP/f0McqIulSABBpUef8+J0fo9nFBlTGsp8Y8cZhbPb2Y9cseVfoYxaR9CgAiLSgs3/8zr8m8DkMssrfcFlc6R7WdrT/rdsFi5SHAoBIKyHs7B+f8nkA/zOtXUagD3PTvSZt9H8M/RaISDrG/NuDiORj1bXLKn94dcrXQL4vzf2+unnjr155bcObh7k5YXbSVe+78YrQ74eIjI1mAERawIcuO3ncIxsm/TjtL38AMNhwZwC2bk5+7Zg1S6aFfk9EZGwUAEQK7kNrV0zuZnQVYSdksX8z4whfMjtm9FVQM4girUwBQKTAzv7hqVO6O7uvBPCmrMaIRvVTgO9avuaIvwn2xojImCkAiBTUaZefNBUxrgKxNMtxDDbK3+T56eMuWnJSiPdGRMZOAUCkgM78wbtm1LzSBfDwrMeKLB7tVH5E2DeP//phB+T77ohIGhQARArmv1x6ysyo4j8DsDCP8WijnQEAAEz1OL5Ctw0WaT0KACIFcvZPTpzVMPu5AYfkNaYB8Rh3sVfDosuXrV02Ia+aRWTsFABECuKsy07eA179FYCD8xw3go01AADAodXXNn3n0C8fOvxbEYtIUAoAIgVwzo/eOTdC9HMQ++Q9ttmYZwC27gc4aVq98h/Lrl02pnsTiEg+FABEAvvAT969JyNcF+LLHwBgluZv7X9cf2TTV1et0s8WkaLTh1QkoLMuO3mPJGn8HMBeoWqwdFoA2xE4+/q9lmqhIJGCUwAQCeSsy07eI6JdC9jeYSthqgFg6y7x/uVrlv5L2OMSkcEoAIgE8IGfvHvPiFFX+C9/AJbuDEAfFy6/aOl/D314ItKcAoBIzj7wk3fvmSTJtQg47d9PliftfWr5RUf8begDFJGdKQCI5KiAX/4AUz0JsNkAn1l+0dJPhj5MEdmRAoBITs7+4anzkiTpQpG+/AGYZToD0OsfjltzxF+HPlYReZ0CgEgOzv7hqfMQ81oA80LX0h/JXBbvIfmPx61Zcn7o4xWRrRQARDJ29mXv2I8Rf4kCfvkDACLktXqfkfavy9cs/UjoQxYRBQCRTJ192Tv2A+NrzTAndC0DMVqeK/cZiC8ct3rJh0Mft0i7UwAQychpl580dUvi/wpgauhaBkOglvOQRrMvHrd66Zmhj12knSkAiGSBsKS7sdo9Ob6RdN8WupzB2NbLAJnzsBENq4+7aOkfhz5+kXalACCSgff88PiPA3gnAPTQ30z6r0PXNBiD9QQYNibw7eWrlx4b+vhF2pECgEjKVvzg+DcD/Ie+j3WzZ0rougZlDBEAAKAGw/eWX7T00NBvgUi7UQAQSdGKtSdMj+DfQb/V9dw5H8AfQtc3ELOoEXD4SQb89O0XH3FQ6PdBpJ0oAIikZNWqVVFU9W8Ctnuz553+cOgaB+SWhByewK6R86oTv/bGPUO/FSLtQgFAJCX3Lrjx70AcN9DzPd6YHbrGAUUIOQPQa06jkvz0mDVLpoUuRKQdKACIpGDl9487msZPDbaN0w8g8WDoWpsxCzsD0MeBMe0/T/7yoeNCFyJSdgoAImO0Yu2Js8zwbQBD3lbX6Y+GrrcZI4sSAABgSXdH9aJVq/TzSSRL+oCJjMGya5dVokqyFsCs4Wzf8EYhVwS0yIrQAtiO5Irr5y39bOg6RMpMAUBkDGa+VPsHAEcNd3uH70fw/tB176Q4LYC+Pr78oiMuDF2ESFkpAIiM0p9+/7iTAPv4SF9HJo+Hrn3nouChSxigsM8fu2bJu0JXIVJGCgAio7Bi7dv3gGENABvpa7s9mRe6/v4MKOIMAABERvv349YcuSR0ISJlowAgMkIf+vKh1bgSf4fAqC5XI7kXyN+HPo6+CnQVQDPjSL/0hH9fWsjzJ0RalQKAyAitn77r5wkcOZZ9JOCToY+jL4MVtAWw3aykgUt1eaBIehQAREZg5Q+PW2nAeWPdT7d374P878A3MGPRAwAA/NGWemUNOPK2i4jsTAFAZJhO+96x+xnx1VR2RuxB4J7Qx/S6qBUCAAD8ybEXL/lk6CJEykABQGQYzl69rCOJo+8CmJTWPp3+TOjj6mUo9DkAO9ZK+8yxq5esCF2HSKtTABAZhk2T6/8PxBvS3GdP0rMvCtIGiIyFqGOYzMy+cfyapQtDFyLSyhQARIbwnh8sPx3AOWnvl+BcAneHPr6tolYKAAAwwYlLdeMgkdFTABAZxHt+sPwQwL6S1f4TT54PfYzbtMo5AH3NixnpngEio6QPjsgAVqxdNgGwtQAyu/Ssxxv7owBfvpEV/jLAAfAd1887QicFioyCAoDIAOJK7UsADsp2FM4meVfoY0XUylfW8dPHrT7y+NBViLQaBQCRJt7zw+POJ+yMPMZKPHkx9PEaW3UGAAAQ0fxbyy9eslfoQkRaiQKASD/v+f7xh4P457zGa6BxEAKvxW9WjKsRxmAXuP3gyLVHdoYuRKRVKACI9HHa5SdNBfhdAPW8xiQxk+SdIY+71b/9t1k86TX/p9BFiLQKBQCRXoQlWxrfgCH3qeQEjZdDHnoUWSkyAIHzlq9ecmroOkRagQKAyDYrf3TcJ2A4NcTYjcQPJtAIdvDeyicB9mP2jRO/9sY9Q5chUnQKACIA3vP9E44w4jOhxic4HeAdwd6Acv0kmJpUkn9fdu2ySuhCRIqsXB97kVE48wfLZ8CS7wGohqzD6RtCjR21/kmAOyDw5uojm/5b6DpEikwBQNraqlWrom5E3wRs99C19CQ9hwDoDjE2aSXqAWxlwKeOvejwY0LXIVJUCgDS1u5ddON/A7g8dB0AQGAaA7UBIivHSYA7HRaiNbpfgEhzCgDStt71nWP272k0loWuo6+GJ6+FGZmlmwHYZveY9rXQRYgUkQKAtC2P/B8aTN4C4Heha+mVMFkAYEve49LisgYAADj12DVLc1nVUaSVKABIWzp17duWAHg3gKg7STaFrqcXyakO/23e45b52x8AjPjC2y8+dI/QdYgUiQKAtCXC/xnbvvecyaEA7g1dUy93z30GIC5vC6DX5Nir3wBLn3VEhk0BQNrOyZcc/U7Ajur7WEJ/JnRdvXo8WQwg11kJt/L/KCB4zPKLjjg/dB0iRVH+T71IHyvWrogj4n/0f7zhyX4ozJL4nEgw1zaAtcvPAuP/Ou6iw+eHLkOkCNrjQy+yzRa+8H4AO30BkJwNsjgnAyZJ3ssCt8vUeAcZfX3F2hVx6EJEQlMAkLaxYu2RnWb8u4Geb4AvhK5xey3sWQxgY17jtc0MwNaDXfrya49cGLoMkdDa50MvbW+Ldf4lgDkDPZ8kXpg2AGET3JHbokCG8q0EOMQRf+aEi964T+gqREJSAJC2cPK3l+1q5CcG24bw3QjeFbrWXgka+YURY7v9LBiXIPmqrgqQdtZuH3ppU1Fsfwdg0lDbJc6XQtf6ei2NxQTzaQOwDS4D2NnRyy9aek7oIkRCaccPvbSZk9e+ZS8YPjScbZ3JgQA8dM0AQGAciVyuBrCo3VoAvQeOz71tzZHBbwQlEoICgJRehPgfAdSHs62TMwjeHbrmXg1P8vpibtez4ifH8H8NXYRICAoAUmonf+eYwwGsHMlrEk8K0wZwNt5A4ytZj9N+JwH2OXbi3ctXH3Fy6DpE8qYAIKUWRf6PGOE17gl5IIAkdO0AQKCDzOEWwSz9UsCDM3xh+cULx4cuQyRPCgBSWu/87tEnAjhmpK8jOQNFuhogSaqZD2JteRJgH9wD3vlfQ1chkqc2/9BLWa1atSqC7bzk73C58+XQx9CrQV9MZH11QttdBtjMXy1ffeSBoYsQyYs+9FJKv5n/i/cBWDza1/cwmY+CtAEA1kFkOyPRnpcB9leD+f8NXYRIXvShl9JZtnpZB8hVY9kHyWkE7wx9LL16vDGsqxhGzbQgzjZvX77miPeELkIkDwoAUjqTx+GjAPYY634S9w2hj6WXM3kDweezG0EzANuRnzvl62+aGLoMkazpQy+lctK33jwVZn+Vxr4S+nwAed+VrykCVRIZ3q1Q5wD0MXtz3Phk6CJEsqYPvZRKtVr9FIBd0tgXyV2A/G7IM5SG94zLat/W9lcB9Me/0M2CpOz0oZfSOPU/ls0jcF6a+0zQyO2WvEPWQl9sQCZtAFIzADuyegONfwhdhUiW9KGX0mBkn8Ewl/wdroZzAQrSBgBQSejZtAHa9V4AgzDYyuNWLzkqdB0iWVEAkFJ413eOXgTDe9PeL51TiHxuyDMcDW9MyGTH3rb3Ahic4f+sWqWfk1JO+octpcCI/4SM/j07k02hj69XQl8Ew9Np79dMPwuaIewN1++15MzQdYhkQR96aXmnfPeYowk7Nqv9NxJfAKA79HFuEyfO36e/W50EOCDa/zj5y4dmdgKmSCj60EtLW7VqVRSZ/3OWYxCc7AVaFCjxxuQMjlEtgIHtvqVe+WjoIkTSpgAgLe22g7pOI/BHWY+TuG8Ofazba2GyEMAT6e61ze8GOLS/PmbNkmmhixBJkwKAtKwVa1fUYPb3eYyVeHIIitMGiAi/P9U9mk4CHMLkCqNUFpgSKQoFAGlZW/D8+QbsndNwk4t0NUC3J6ksdrQdFQCGQvDC5d84fG7oOkTSogAgLenUHy6bYsDf5Dlmw5OizADAPVlAMrU2gOkkwOHoQBR9KnQRImnRh15aknfbJwHk2pP1rb33opwLYM5U2wCaARieD7z94iMOCl2ESBoUAKTlvGPt23Y3w/l5j0tiIokCXQ2QpBaAqJ8FwxWb+6rQRYikQR96aTkx8BkAQa7LTtx7Qh//9lrgh9DweBr7Ms0ADJvBVhy/ZunC0HWIjJUCgLSUk36w7BCAwVZmazBZCLAoKwManWm1AXQZ4PBZQv5t6CJExkoBQFpLd8+HSD4QrgBOAK0wtwju8Z7pae3LDAx9PK3CYH/y9tVHLghdh8hYKABIy1i2elkHYWc2PJlM4plQdTTYSEK/F72cPt8Mj6SzNyvMcbWAKDLP9SoUkbQpAEjLGFfvOQXEFICzGt7zWKg6ehJfVKQ2gDN5OKV9KQCMzMrlFx92SOgiREZLAUBahkXR+/r89TDQ7wtSh2G8E8VpAzSSVNoAphmAkYrAyidDFyEyWgoA0hJO+fbSmSSX930soT8Zqp6ESWH65Ql8PpBCG4CaARgx8j3Hf/2wA0KXITIaCgDSEnpQPQNApe9jCblPqHoSciGIjaHfl15OPjTmnUQ6CXAUYq/EukeAtCQFAGkJZjhrp8eAuQTvDVIQOY5WnFsE97B7xlj3YaYWwKgQZ+oeAdKKFACk8E74j7e8AUDThVcaSRLuagD3YO9Jf+6cD+IPY9kHWaADai1Vi+LcV6YUGSsFACk+41kDPUVwbyDM1HVCL1YbAD6mqwEMkWYARongh5etXjwldB0iI6EAIIW27NplFSP/dKDnDZgL+j1BiiPHuRXoagBvzBrL6w3UDMDoTapHHeeGLkJkJBQApNA6n2qcAGDQL7Ye53Oh6ks8KcxnyOkHATbqkwHJSAFgDEh+bNnqZR2h6xAZrsL88BJpJmpy8l9/Bt8PgdoA9GQRiQ0hxm4mcR/15YAWaQZgjGbW7LXTQxchMlwKAFJYJ33rzVMJnDzUdgRm0/m7EDU60GEo0NUA6N5t1C/WVQApsI+BurGStAYFACksj+1PAdSHtS2T50PVmTgrY99LOug8EMSDo3mtBZpFKZn5x645/G2hixAZDgUAKSwj3zfcbR3cHwhzGVuDjUUwvBJi7ObvhT86qhcSagGkwBhdELoGkeFQAJBCOvE7b94fwJIRvGQ3EneHqJVA3RPeFWLsZnq8MXs0rzPoJMBUGE5++zcO3zt0GSJDUQCQQtr22/+Ieqnu/mKoehMk1VBj7/Q+0A+gjbwNQKNaAOmIoij6s9BFiAxFAUAKZ9UqRISdMdLXOXgQAt3SNnEvVhsgGXkbIIJaACn6L8svXjg+dBEig1EAkMK58YCjjgawxyheOsMZbCq+Ri/O1QAN9Iy4DUC1ANI0hewYcYgVyZMCgBROhOGf/NefM3k5VN0NJrVQY+/0PjgPIPDASF5jpnUA0mS080LXIDIYBQAplOUXLx9vwLtGvQP3+QjXBlgMw0shxm6G9MdG9AIznQOQrgXHr1lyZOgiRAaiACCFUq1s/BMCE0b7eppNI4NNxVc98SALEjXTkzTmjGR7g2kGIGUJ7YOhaxAZiAKAFApho57+75XQg52M52Rh1oJ3+H403DeS6kPXXDYG/KnuEihFpQAghXHit964JwxvHet+nMkhABohjqHBZJGhOG0AT/yJ4W5rjBQA0tdZi+qnhS5CpBkFACmOKDoTKfybNNguTg91m95KQg+yIFEzPWzsOdxtLdJlgJkgdJtgKSQFACmS1O6k5kw2hjqIhrMz1Nj9kb43OLw2AHUSYFYWHr/68MNDFyHSnwKAFMI7vv3GIwEcmNb+CCwA2BPiWJzJIgNfCDF203rQGF4bgLoZUFZo9qHQNYj0pwAgheBRNOaT/3ZATCERrA1AoEBXA/iw2gCRKQBkhbCVJ3/50HGh6xDpSwFAgluxdn6NtD9Je7/uyaZQx9STJKO+lDH19wG+N8B7h9yQagFkaNLmevzO0EWI9KUAIMG95lPfaeC0tPebGBcA6A5xTAl9IWDPhxi7aT3Op4bahtAMQJYMdmboGkT6UgCQ4EikO/2/jRGT6cGuBogdfk+gsXfSw555Q21jCgBZW37i6sNnhS5CpJcCgAS1/OI3zgCwPKv9J/TNoY7Nk2RiqLH7I7kXYYMGEovUAshY3BPFWhNACkMBQIKq1KIzAFSz2j+NiwBsCXFsDfpCAs+GGLsZZ/L0YM/r2z97RqoNIIWhACBhEWdlvP+JCZPfBjq6CPChT77LSbd374NBvudNtwPOw+Lj1yxdGLoIEUABQAI66TtvPATAoqzHcWeQZYEBoMd9cqixd0LsQWDgNoAuA8wFaakteCUyFgoAEkwDOBt5rNlPLgAQ5JJAd18A4JkQYw9Qz4C16E4A+SD4XhAWug4RBQAJ4pg1S6Z54n/uTH6d+WCGie4MdTVAlDhHcEe+bPWwMWAbwDQDkJe5y795xJLQRYgoAEgQUTVeDiBOyLcSvCXr8RxJEupYG55MCTV2f6TvAQ7UBtD3f14s8ZWhaxBRAJAwiBN6/+jucebDORchUBuA8EMAPD3mHaWkwaTplQmalc4PzVbqDZfQFAAkd6tWIQK4/dp/BxcZmG2f3DDeyVBXA5izOG2AhjdvA0TQOgA5mrN89ZFHhi5C2psCgOTul/u+8VAAM/s8FDvx+6zHdSTBvuAa3pgaauz+CM6l4e7QdbQ7M7UBJCwFAMldFPGE/o8l5KSsx93WBtgY4pidPATAkyHGblpP4s/t/KhmpPNEw8qts2EiYegfn+SPOwcAwhci+8vlxiVMQl0NYE4+EGjsnfSw5wD0awNEsc4CzNjLAO8G8Gt3dHnif/j1nCPUBpBgKqELkPZy3Nojd/EeHt7kqcjh90aIZo54pyPgdIst83MOm2p4Mq0WF+MjR3I2yDthtqD3MdPvA2noBvAMiOcAvuoJDOR4OqcDmANgft+NiWQlgOwvhRVpohg/jaRtsMeXA82/gZ2YEmU9C00sBrgBsNxv1OP0gwk+YbDd8x67mQR8Pu4z7W8w9QCGhwCegONpwjeSAGjj4T6DxO4A5m77bxj8j1etwsdWrYKWYZbcKQBIvszeNtBEM+kLYNETALL8guxI3G+Lo/iNIY6exINmmR7fsDW854A4rjt6W4EWaGqkuLoJPGrEM+7eAEE6poLcB1t/m5/z+qaj7Z7Y7tfNPOxI4FbNAkjuFAAkVyTeOsjTkQMPRNkGABAM9kXX8MautTizmx+OiJOzCdxhwEIAiCNryx4AwfUGe4rEiyAbdNbgnEFiHoB9t/2Xmci4AmoDSACa8pPcHPfNQ3fzqDromfAGu7MSxQuGu89R2lKtVLrB/NsAAFiv1J6wHX57DKdqla5KXFkGAO5c9/T6Zw4NXVNGegA8AuIZGDa5JxVLbJyTe4LI9LyTofGJo55at4faAJI3zQBIbhhV3jrkNuAhALJuA9TdcWtkeFOAt8FIf9AsKkQA6GZyQAUVBxAZ0Bm6nhS8jK2XW65nwm6SNdCm0H0e+v02z8Jc9GC7/2L24UcAt1wfuhJpLwoAkhvChgwAAIzg/VmfKJcwqUUW5p9/I/EZtUoxZtsN3I2GdUYcysjGh65nBJU/S/cnDNhMmm890953JzEdQL9bMBfli36QowH/GIACgORKAUDyQ7x1OE2nxDm9kvXlAOQiAOsBTMn7bXD4QQQeL0oboLvRPbFeqb0csf8XZ3CbQTwC4Hknu5mwDnAa3PYAOAPAjNAFpsWIUwD8Zeg6pL3oHADJxQlrj5re6Ol5BsP7N8dqXHkMxB5Z1hRH8a8ii94c4v2oxZXrIouGMyOSi8iiuzri6qwnXnxmKoCcT5LkFgCPA/bs9mn710/Ca5srEyzyg6/54G33jH1PIsOjGQDJRdLd/VbYsK8zN7o/bBZlGgCc7Mh83YEBFKkNsPW98EM2Jd0PRLDYwUzuW0BwvRGPEPYSSHdnFe6zQNsHQO9/bcsTOwWAAoDkRgFAcmJvGcnWTp8eZ3xVGumLiOglg+V+o55tbYDHbNgLxmSP5L40exYcW898+xc97SWAxoTj6JyFrS2PRTturUnI7SI7GcBnQ5ch7UMBQHJBw4gW3nHg4Jh4BIY9Myyr6uTdsVmQNgDpD5lFhQkAAGCgD/frf+sXvT0Gcn1C0JwTSOwOciYCnFvR6ow48pivLp35sw/elPU9MUQAKABIDpatXtYBbB7xtf1ufDiCZRkA4EnSGQeaii9aG2CrKAGSvg8QxOMAniLxGsiIzl3g3INbv+SnvL6hjFFE+gkALgpdiLQHBQDJXFzvfgOI2khfl7jPiqKMzwEzLCLwggHT8n5finY1wNa3gw+QuN+dkblPhWNPjmhtexkLI98BBQDJSdF+/ZASMufS0b2SBwJ4KOPyKu7+u7zfk+1HSGZ9fCPS6PF53p0sQ8PfQscCApNC19RmjlmxdkXbXPkgYSkASOYMvmS0r3Xy0azrIz3YAjiNJJkeauxmzMZ4BqCM1ZSXXn7w8LHvRmRoCgCSOTMbfQAAd8u6PoKLSD6f77vSe3xbrwYIMXZzpgAQGBkvD12DtAcFAMnUMWuWTCOw92hfT/oByH6aPCaSkG2Ah0ON3Z/RdEOa0MhjQ5cg7UEBQDIVVWwpxnixt8MzbwMkCYP1uovVBlALoACOePuXDy3assxSQgoAki2LDhvrLhzM9MZAW+vEQhDP5vKe7HR8BWoDmGYACqBC4OjQRUj5KQBIpkh/w9j3gf3M7IGMS42cyb05vS1NjrEYbQDTDEBB2NtDVyDlpwAgmTJEC9PYj9Mfz7pWpwebdi1KG8AtUgAohhEtnS0yGgoAkplTvv6miQD3SmNfDXqmNwYCAAILCAZZhrUobQCjZgAK4pBlXz5019BFSLkpAEhmNo/zBUjrbi/k3gDuz7jkiO6/z/p9GYgXYFEgM63oWxAWA0HuUSHtQwFAMsOEqUz/93LyiaxrTtxzvzPg62M3grcB9O1fIGZHhS5Byk0BQDJjhpQDgM/LvmgcAvqTmY/T9Ph4cOg2QARdBVAY1HkAki0FAMkMkW4AIDiPhqyn6K1BZn3FwYBCtwGoFkCRvEHrAUiWFAAkG4QBnJ/6bj15KvPa3XO/M2CvArQBFACKI4bxiNBFSHkpAEgm3vbtN+4B2JS095sQeyHjLykaDnYi8/MNmgnfBtC9AIqEHP19NESGogAgmajQD85mz9wTQNYL9hiRtG0bQIrEdGdAyYwCgGTCYQdktm9mf60+Ewabig/ZBjC1AIpGMwCSGQUAyYQZMwsACbgPMm8D8GDmcBOiZra1ATJf+XCg4QONK83NXP7Fw+eGLkLKSQFAMkEgswAA+lwCmd++1wOuz+/kgyHG1QxA8XgMtQEkEwoAkgnLMgAAAP35rI/B3WdmPcZAgrUBIp0EWDRuCgCSDQUASd2ytcsmANgtyzEa5H7I/rfVAwE8kvEYTQVrA+heAAVEBQDJhAKApK7Ws+kApHUPgAFxNoG7sz6WJEn+kPUYAx5hkKsBMv6/TUYj1QW1RHopAEjqnFG20//bkP5C5scCz3QmYzANNnK/G5yZWgBFY8D05V9aOCN0HVI+CgCSusi4fx7jJMR+yP6s9f0JBLku3z3/NgB1EmAhNSqVQ0LXIOWjACCpI7FPPiP5bDD7NoAnjWAr8+XdBtCtAIrJ3BQAJHUKAJI+w7y8hnL4i1mPkQC753U8/TU83zaAaSngQiKhACCpUwCQLMzLa6AEPBBAkuUYBu7rodoAOV8N4JoBKCQzzQBI+hQAJFUr1s6vAZid24DkTIB3ZT9MEq4NgPwWBYoQKQEU0yFb77Apkh4FAEnVK1sm7YGc/105uT7rMRJnuDZAkt+iQDStA1BQE4/7yqGzQhch5aIAIKlKIs7Le0ynHwS1AVI7UimmBHmdXCvtQgFAUmU5ngDYi8AM0u7IfJw2aANEmgEoLtreoUuQclEAkFSR2DPEuM5kQ9ZjtEMbQLcCLC5uvQumSGoUACRVxvxnAADA6fMBNDI9tjZoA0TUZQAFpgAgqVIAkHQZ9wgzLqbRoTbAWMcwnQNQXJECgKRKAUBSZvldAtiPG1/NeoyytwEi6ByAwjLoHABJlQKApC3YzXPIZD6AnizHCN8G4BOZDmL6kVBcnHHk547sDF2FlIc+7ZKaZauXTQEwPtT4BKYR/G3m4wRtA+CBjPevGYACG9/RCBawpXwUACQ1cXVTsOn/XgQ3ZT1G2dsAUlyJUQFAUqMAIKkxC9f/75U4FwDozvQ4y94GkMKKLFyLTcpHAUBSFD4AAJwCM7UBRkv3Ay40g2YAJD0KAJIe8wIEAMDdt2Q9RlnbALoIsNgY8CRbKR8FAEmN0Qrxw8mZLACQaQgI3AY4SG2AtlWIz5iUgwKApIcoxN3KCEwmWOZFgYyezaJAZqYWQJGZzQxdgpSHAoCkx2zX0CX0IlnqNkAPPZP3Wi2AgqNNDV2ClIcCgKTHOCN0Cb2cvgjA5kwPN2AbgPRM2gD69b/YaJwSugYpDwUASY05ijMDAEx0lvreAJm1AaS4DJgSugYpDwUASQdhNEwLXcaONTHTZYGB8rUB1AIoPLUAJDUKAJKKk7795ikAqqHr6CuxZBGATFcGLFsbgIoARVdftnpZR+gipBwUACQV3egpzPT/dsQElP1qADLVRYF0N8AW8NrGKaFLkHJQAJBUWBQVco36BryR9RhBFwXydNsAHmkGoOhqFZ8SugYpBwUASQUbLN4MAACSpW4DOD3VewNEHuIoZCQ80pUAkg4FAElHhF1Cl9AUMQEo+dUAKbcBpOCIyaFLkHJQAJB0kONDlzCQhEmS+RglagNIsZHWGboGKQcFAEkFDYX9oeRqAwwbzXQSQMEpAEhaFAAkFWbRuNA1DGI8gTLfIji1NoCZrgIoPtNlgJIKBQBJhXlxZwAAwOmZn95WhjaA6STAwrOo2J81aR0KAJKKIrcAAMDdFwHYmOUYZWgDUD8Ris9dMwCSCn3cJRVmLHILADCMJ3hn1sO0fBuAOgeg8EwtAEmHAoCkgkAtdA1DURtgaNTXfwtQAJB0KABIKghmfqndWLlxMdQGGKJ+KTqjF7rdJq1DAUBSYY7M77w3Zo5xLP29AaBbBJedWgCSEgUASYch8zX30+DM/jK3sG2AZGy3ZI70I6HoSJ2qKenQPyRJhVkLzAAAcPPFUBtg4NqpswBE2oUCgKSDUUvMAMAxjlQbYOBXB6paRHKnACCpoHlLzAAAAJH9Ynct2wbQOoAibUMBQFJhtO7QNQxXAl8Iqg0wQOEi0iYUACQVJDeErmH4xWI8TW2A5i/UQkAi7UIBQFJhhtYJAAASz/5kt5ZtA4hIW1AAkLS8ErqAkWCkNsAARWsGQKRNKABIKthiAQCOcV76WwSPqg2g0wALjhYppEkqFAAkFbQWCwAAQM/833+rtQFMMwCFZ/SWOeFWik0BQFIRJy10EuA2CXwxmO25Cy3XBtBJgIVHizaFrkHKQQFAUkG24AwA0OGGkt8ieGRtAOpCwBbAzaErkHJQAJBUJK0ZAABXG6Av/UBoAVQAkHTo8y6pWL85ackA0A5tAABPDnt7/UQoPDOoBSCp0MddUrHu3HU9AFrxN5MOGjJfFMi98Wig4zMnHxj2xroZUOEZolb8nEkBKQBImlp1FiDOegyyRdoAOgmw8NyoGQBJhQKApKklAwDJxQCzrn2/lmgDmH4kFJ7OAZCU6NMuaWq5SwEBAGQHYJlfDdAKbQCjawag6KgWgKRDAUBSQ2B96BpGKwErWY/REm0A/URoBS+HLkDKQR93SdOzoQsYLacvVhsAoM4BKLwK+WLoGqQcFAAkNQY8F7qGUSPrzGFRoKK3AQwKAEXHWqIAIKlQAJD0mLVuAADg7tWsxwjZBkjYGLoNYDoHoOh6oskKAJIKBQBJj7NlWwAA4MCiMrcBEueQbQC1AArvta5zunQSoKRCAUBSQ2vdcwC2HgDrZJsvCqSv/6LTb/+SGgUASY+19gwAADi8lvUYRW4DmGYAik4BQFKjACCpqSSVlj4HAACcXAzL/HLGwrYBLNIcQKGZAoCkRwFAUhNH1vIzAABqTtyV9SBFbQO47gVQbM6XQpcg5aEAIKn5yWm/Wg+gO3QdY0WWuw3QYGOXgZ4znQVQdE+FLkDKQwFA0mMgSvADauuiQMj6N61wiwI552OANoC+/QvO7InQJUh5KABIyuzB0BWkoEby7qwHKWQbwHQSYJEZ8XjoGqQ8FAAkVQSGfe/5InP3etZjFLENQK0EWGgGzQBIehQAJFWRlSQAGBejDdsABtfPhAJrODUDIKnRh11SRS9HAABQbcc2gFYCLDZyk2YAJDUKAJIqc7s/dA1pScCOrMcoWhsg0td/ka3vOu/uV0MXIeWhACCp2tDBBwF46DrSQPoiZr/wyn4EHw5xfAO0AfQzoaAInQAo6dKHXVJ1w8obNmEY951vEVU4f5f1IIknjwQ6PkvgO8zY0MhAtcgQjDoBUNKlACDpK8mJgADAsrcBkuQQAL13l9vS3dNTlvBWOrQwJ4xKeSkASOoMKM95APRFJF/IeJhgVwOQnObkzQDY8ORWArNC1CFDi8DSfK6kGBQAJHXulvm0eY6qZsj8eJg0Hgt1gI2ksX8Cv67hyZsAqAVQWLwvdAVSLpXQBUj5RGa3sUTfIw16Z8XiTMdwcHa2Iww69ixvNGYBAIEkUBkyhEbM34euQcpFMwCSupjJ7SjJlQAAQHJxmdsAO7LS/P9WMj0bEgt1sqiUlAKApO6KM256BUAZ7gnQq5JHGyDgokDb0V0BoIAIPLju3HU9oeuQclEAkEwQuC10DWlqkOOyHiPk1QDbReWZuSmTCFD/X1KnACCZMOA3oWtIE+mLDHg+42GCtwGMWgegkKgTACV9CgCSCTOWagYAQMWZ/aJAodsApM4BKKQoUgCQ1CkASCaSntIFADg4PusxgrcBjAoABUS3u0LXIOWjACCZ+Nn7bn4BQPCT2tLk9MWlbwOoAVBEniQb7wxdhJSPAoBkhijdLEDsln0bIOSiQIApAhQMgft0F0DJggKAZCay6PrQNaTN3SdmPgY4O9TxUScBFk5k5TqhVopDAUAyY8R1oWtIm5MLATyX8TDB2gBmugywcKgAINlQAJDMbJldv43AhtB1pCwmeU/WgwRrA+j3/+IxUwCQTCgASGa6ju5qGFi+NgBZ2jaAOgDF06DfHroGKScFAMmY/SJ0BWlz+EIDn8l4mCBtAM3/F85jXeeuy/rKE2lTCgCSrRKeBwAgdiLzO7OFaANEmgIolLKtqCnFogAgmZpS23ALgNdC15E2RzmvBiAs7yFlMOQ1oUuQ8lIAkExdsvLubsBuDF1H2pxcZFa+NoDrJ0IwBDaAfBbEYyAeo9sLseF7oeuS8qqELkDagOE6EG8LXUbKIqfda8DMLAdh0ngMcWXv3A4qUQcgc+SzpD0OYjO3/r2D5FzApgOY+PqlGLzpyj9b91TocqW8FAAkc1GSXOtR9Peh60hb4j65EmX7K7ODs+M8D0oLAaalB8TTpD9NRq+RjEBMIbCPATMAzthx8yatF9P0v2RLAUAyt2XOuBuqT25aD9iU0LWkifCFQPQMsp0F2M+BhyIgl1kAJ3USwMh0g3iMxLN0dBOogZyCrf9/zQVsbt/FFUby5hL2s9AHJ+WmACCZ6zq6q3Hst4+8BuSfhK4lZRGJe83K0wawkX1HtZP1AJ6i40V3bwDROJKzAOxuwD7Y+l9qCLw2Lnm5dGtoSLEoAEguzHEFDWULAEjgkysZn0ubbxug7b//15N4DM71pBHgBBBzCMwAMGXrJoasr5cw4JdXXPjAltBvhpSbAoDkorvW+M9qT0yU7BuG9IWw8rQBvD2uA2yAeIrEc3S8StBATAG5F8ymYPsXfbjzIQhq+l8ypwAguehaecvTb//WEb8x4I9C15KyKKH/PraoFG2AkrUANtPxCIAX6d5NWB3ErgT2MGAutv7X5+CLc+j0SCcASuYUACRP/4nyBQAAnJL1CHm1AUi24koArwB4go71fU7EmwFgHoADtm7y+pd7cb7mB/TCL1689behi5DyUwCQ3ESRXUHnp0LXkTYnD4nNngY4K8Nh9iP4oMFSPdmsPxa7BbC9P++k956IZ8AcAAeFLi41ZtdglW7LINlTAJDcTI7n3LTeH3sBwLTQtaQsIpLfG6IsAwASTx6rRJVMA0ABWgAk8IQRT7v7RtJiuE1FxDkgpiDHE/GCvQFw9f8lFwoAkptLVl6SLP/W0p8QdlboWtLmzqlx1pPnxJ6ZH0ieLYBtK+LteCIe9oZhDoA527OIMeT5eLmjV9T/l1woAEi+GF0CY/kCALggBp4AsHtWYxDci/T7zKL9MzsQy+CaxoG/6HdeEa+Mv9KPzIO/uODmh0MXIe1BAUByNbn2ylXreya+BGBq6FpSZg48EGUYAADA3Z+K4+wCAMeyEqC+6FOg5X8lPwoAkqtLVt7dfey3jrwc4Jmha0kbmUyFZXuufgLunekIHGQGwLARjofcsQFED7feO7ADtKkEZjdd415f9CNjuvxP8qMAIPlzfg8RShcAnFwQAU+aYXZWYxgwl+C9BjswoyH6B4BXvIHbufWyuv0ALNihmp3+JGPQQHdDAUBy04rX/EqLq0ybeiWAl0PXkQEj/P6sB/EkeSarfZO+fYKBzt8mPXiN5FsAHAgg1xsTth3DDV0fu3196DKkfSgASO6uOPGKLQQuD11HFpy+S9ZjENwPGZ0XT7MIADzB3UmCgzJe20D6MPKnoWuQ9qIAIEFEZt8LXUMWCByCrVcDZDnGbAd/l8W+zRmDeAXu0w2oZXkcsiODKQBIrhQAJIjuLfWfYusSrmVjpD+Q9SBMkucz2W9kkSf4DWEzxr43GYGnf37eut+ELkLaiwKABNF1TtdmAJeEriMLCZj5SocOHgh46svFmuM1kvOyrl92ciWsnZY7kiJQAJBgIvc1oWvIAsn5yLgNAGCmO+5Ke6eNHu4K5LDioOyI+FHoEqT9KABIMFeecfOvDHgwdB0ZyKUN4M71qe+U3pF13bKTV7f01K4MXYS0HwUACcdAml0cuowsJMSuWY9B8wMBJGnu0wkFgNzx8hv+4oZNoauQ9qMAIEEltDVA+W59SvjBAB7PeJgZBO9Ms2wjOjOuWfoxRqW8IkaKTwFAgvr56dc/QuC60HVkwJyeeXsjcd+Q4u42EzneDVBA4LXq5m5d/idB6MMuwUVESU8GzL4N4EzmA2iktDtNQ+fv8qs+ccfG0EVIe1IAkOC6ax3fB/Bq6DrS5lvbAI9kOYbBdnEmd6SyM2JzHu+LvM7MSnkprLQGBQAJrmtl16sgvxW6jgwYwczv7U7na6kUawoAOXuhM1l/WegipH0pAEghRJH/39A1ZME9yXxFvcS4AED3WPdDcMz7kJGwb15x4QNbQlch7UsBQArhytNuuRvAr0LXkTYHDgbwaJZjGDHZ6b8d637opgCQI/PkotA1SHtTAJDCMPCLoWvIgpMPZT6Gewpf3uzJ4/0QgMDN1174mzGHNpGxUACQwnjh1cb3ATwZuo60kZ55G4DkQmBsPXzS07qaQIYQgV8PXYOIAoAUxrpz1/UAVrofjA4eDGZ7NQAMEwmO6TdKMt1VBWVAm9jja0MXIaIAIMUSRf8GoHRT0Z7D1QCJJ2P9AlcAyMd3uz52+/rQRYgoAEihXP3eXz8JoHSXRjl8ZtZjkFwEYNSLyjhZuiWZiyhy+1LoGkQABQApoMj9X0LXkDaSB2XeBgDGO8dwbwB9/edh3c8vvPXm0EWIAAoAUkBXnnnzL0FcH7qOtLnlsCgQR38eH8Fc3492RNj/CV2DSC8FACkki+yfQteQtsR9VtZjOLHQOco2QOKW+5vSXp6z8RO09K8UhgKAFNJV773hUgC/C11HungggKzXBBgH91HdG4CAAkCWjF/pOqdLyy1LYSgASDEZCMPnQ5eRNoKZrgoIAG7JqD7XdMT5vyNto4Gk+m+hixDpSwFACqsyZeo3UbKFgRL33bIeg8RiAq+M+HVOBYDs/KjrwpseD12ESF8KAFJYV5x4xRYaS3WTIIIHIPs2QJ1MRnE1ACsh3pN2YLR/CV2DSH8KAFJojS2d/4ZR/DZbZJ5DGyAhayOui6iGeUfKjrdce8Gtvw5dhUh/CgBSaF3ndK0H8IXQdaTJyczbACAXE3xphK9RAMiAGf5n6BpEmlEAkMLr6e74J4DrQ9eRFtIPAPhgxsNUnbx7RHU56wHfllIi8NCu0/e5NHQdIs0oAEjhdZ3TtR7Ev4auI00kHst+DO8c4fYd4d6R0vrnS1ZeonssSCEpAEhLYK3xOQAjm9IuMCdnZz0GyUUknx/+C0wBIF0v1Df1XBy6CJGBKABIS7hm5bqXYeU5k9rh+4PM+mqAitPvGe7GCakAkCbaF676xB2jvjmTSNYUAKRl9FTqnwPwXOg60uLw7BcFcp84zE1pxIhaBjKojQmTL4YuQmQwCgDSMrpWdr0K4F9C15EWB3fPfBDDQhDPDmPLzQC1FHBKjPzKLy/8TWnCqpSTAoC0lJ5qx7+iJLMAJPYDM78aIHIm9w5dC7VGfXp6Yi9Pu0rKSwFAWkrXyq5XafjvoetIi1v2VwMk5JShtjEzBYCUELb6mo+uy7y9IzJWCgDSchq7dXwJxLBPbisyZ5J9GwBcAPDpwbYwYFPo96IkEiaNfw5dhMhwKABIy+k6uqsB2N+GriMNJPYzswcyHsaSJPn9oHWA3aHfi1Iw+49ffPT2+0OXITIcCgDSkq4+44Yf0uyXoetIg9Mzv0scyV0Hfd7RE/p9KAEiwmdDFyEyXAoA0rJi4uMAGLqOsUrc98h6DBoOduKJAZ8HFQDGjD/o+rNb7wpdhchwKQBIy7ry9BtuBvmd0HWMFcG9Act62tiIZMBWAwm1AMaAgMcRPh26DpGRUACQlhbH9jcAtoSuY6wIf2LsexmckzMGHJ+aARij7/zsI7fdEboIkZFQAJCW9tP33vgHlGBxoIQ+N/NByIMAPNLsKUvcQ78HLSwxlufSVGkfCgDS8jpe7fk0BvhiaxUk9wGQ+dnjSZL8odnjrlUAx+KbXResG3KxJZGiUQCQlnfZueteA+wToesYK2eSfRsAvlvTxxPqZ8EoEOiuRJF++5eWpA+9lMLVp99wCYArQtcxFgm5Zw7D7O/ATnchZMJq6ONvRRH5xWs+ckvWd3UUyYQCgJQIP4rWPiFwLwD3ZT0Im9yF0BPXrYBHbn1klf8RugiR0VIAkNK4+vSb7gfwv0PXMRYOPpn5GMnO6w64c1zoY281RvvHn51/8wuh6xAZLQUAKZVXq/YZAA+HrmO03H1e9qNwb4A7rglATgh97C3m8Qk1fiF0ESJjoQAgpXLDyhs2mdlfhK5jtAjOYw5tgCR5fd0BA15w94mhj72lkJ/cevKpSOtSAJDSueq0G35kwPdD1zFaZA5tACTznH5zj/fc2J30dJLQDMCw2Q1d59/2rdBViIyVAoCUUnc1OR/Ai6HrGA1nksPVALZn4skSEEeQ1K2Ah4mA0+yjsNa/B4WIAoCUUtfKW542oiVbAQT2ApjbwjKR2Suhj7lVGPjV68675ZbQdYikQQFASuuqM25cY8RPQ9cxGk5/OrexgI2hj7dFvISqfSp0ESJpUQCQUnOvnEtgQ+g6Rlz31qWBcxrMN4c+3lZA4G+7zl33fOg6RNKiACClds1Zv3rUyE+GrmOkCMwF82kD0HUr4KEQuHnGjL2/EroOkTQpAEjpvemBm74E8Beh6xgpt5zaAEQS+lgLrmEWnXvJykv0PkmpKABI6a1aBY88+gCAV0PXMhLu2BvI/mxzOnVG+yAM+Keu8265PXQdImlTAJC2cOWZNzwAw8dC1zESBPcAkHkbgA7dCnhgf6hu6tF6/1JKCgDSNq4+7cavAbgkdB0jQfKZrMdIyDj0cRYU4dEHr/rEHbpKQkpJAUDaSo/1fASwp0LXMVwJuA+ybQN4BCgANGP4cteFt1wTugyRrCgASFvpOm3d86CfjRx662kgfS4ybAN0suO+Dq8pAOzsDz0dHX8VugiRLCkASNu5+oybrgL4/0LXMVxOfzarfe8dz35pDma2RBjKCwEH7Zxff+DXLbd+hMhIKABIW+rp7vw4DHeFrmM4EmR3NcAkTOipVWo9oY+xYL7QdcGtXaGLEMmaAoC0pa5zujaD0ZkAir8KHn0uiHuy2PU4dKITVV3fvg2B++qbev4mdB0ieVAAkLZ19enX3w6zPw9dx3A4/Lks9jvBOiqdcc1DH19B9ETAWTrrX9qFAoC0tatPu+HLgH0zdB1DSeD7IoM2QB21jprVQh9eIRD822vPX3dT6DpE8qIAIG2vp1r/SFZT7Kkhdifwu7R3W0V1Us1qWgiIvG7GjH0+F7oMkTwpAEjb61rZ9ap5tBLAa6FrGQzJ1NsAMWxaPaq2+8+BlypuZ2mtf2k37f7BFwEAXHXW9XfB8NHQdQwmoe+PFNsAEaJug02pWrWd1wEgwLOu+ei6R0MXIpI3BQCRba4+7cavGXhx6DoGxtkA7k5rbxPQ+QIAqyKuhj6yYIjPdp1/2+WhyxAJQQFApK9k00cMuCN0GQNx8Pm09jXeOl4EgEpUqYc+riDI6/DCxP8WugyRUBQARPq46qw7NjYQnQIgk8vuxirx9NoAEzl+IwBUEE8JfVwBPFMFT+ta1dUIXYhIKAoAIv38/PTrHwHtvQAK+OXA2UypDTApHr8FAGKLZhisnZYDTiLytKsv+M2ToQsRCUkBQKSJq8+44WcGFPJmMKS/kMZ+xnN87wJA9c6oI5V9tgID/urnF9z289B1iISmACAygKtOv/HzNH4jdB39JUQqbYCJUef2z//keHxq5xYU3LeuPX+drvcXgQKAyKAaWzrPA3Bz6Dp25LuRY7+RUadXO3r/PLky8ZXQR5WD2ydW8aHQRYgUhQKAyCC6zunaXCH/GMAzoWvpi0heHOs+qlYf3/vnXeJJxb8p0ti84Izffdm56wq92JNInhQARIZwxRk3PY7I34ECrRToW9sAY7qJT4x4194/T44nlPkkwC10vusXF9z8cOhCRIpEAUBkGK5+78230ngWxvilmxaCu4GjvxoggjUiYFrv3yfGE8q6GBBB/pfrLrztl6ELESkaBQCRYbrmtJu+D+KToevo5eajbgOMt85nAWxfAnh8XB8X+ngyYfibrgtu+/fQZYgUkQKAyAhcfcaN/4vE/wtdBwAkzgMxyhmJiex8qe/fq6hOG81+ioywr3Sdt+5/hq5DpKgUAERGaGpt7oUECrB+PGcCuHM0r5wUTdzQ9++xRbNji7eEPqL02E/t+Qnnha5CpMgUAERG6JKVlyTjNsenwfDb0LU4ff1oXjeZE7r7PRRPqUx6PPTxpIK4q1Lln2qZX5HBKQCIjMKPP/DrDWxUTgEQdDlZhx8AYMT3sZ9kE3Z6bFY8reUXAyLwpEfRidecu+7l0LWIFJ0CgMgoXXPWrx6NLFkOYMzX5I8WiVkgR7wo0AR07HTW/6zatFZfC+CFCNHyX5x3y2OhCxFpBQoAImNw5Wm33G0RTgSwMVQNjpG3Aep9FgHqtWtlUitfCrghcjvx2vNvSeVGSSLtQAFAZIyueu+NNxE4FUD3WPc1Gk4chBG2AaqIp/Z/bFI8aUaI+seKQLeRK35+4a0FW7JZpNgUAERScM3pN15D2jkIsFAQwRkwDvtqAIMxQrTTl33For0qFrdaGyAxs9OvveC2K0MXItJqFABEUnLNGTd8G+SFIcZ257BPeuuw2ksA6k2eiqdXp7XScrk02Ie6zrv1e6ELEWlFCgAiKbr6jJu+COAf8h7X6cNuA0zE+OcGem6PyowX8q59tAz4+LXn31q42zWLtAoFAJGUXX3ajZ8C+MU8xyQwgxzeokATbdyAt/6d3TGjJW4KZMD/d+356z4Xug6RVqYAIJI2A68+7aYLAPxbnsMSPqw2wFSbOGCff9fK5Ol51jwqhn++9vx1nw5dhkirUwAQyYKBV59240cAfC2vIZ1+MIbRBpiA8QOeqFhBZd+KVYJd0jgUIz/fdd66T4SuQ6QMFABEsmLglOrcDxvw7TyGIzAdw2gDTOWk+iBPV3avzXgwt/doROxfrr3gtr8IXYVIWSgAiGTokpWXJJOrc88i8N08xkvgrwy1zTirD3rnv73ru7001D7yZsRXu867VV/+IilSABDJ2CUrL0leerXnTBh+nPVYTp8PYJCb4JhXEM8dbB+7V2d15v4mDcKAL117/rpzYWiJExRFWoUCgEgO1p27rqcyZepKAFdkPNQ0YOBFgSZj/JMAOgbbwYS48wCDjfgGQ1kg+I1rn193vr78RdKnACCSkytOvGLLlOqGU2H4YZbjJM4NAz03y3Z9YqjXG2zyzOq0+0O8R/0K+fp1z9/2QazKf3VFkXagACCSo0tW3t09pTJ3BYh/z2oMgodggDbA7GjGsJb63b9zj2cCvUVbGb7e9dy6D+nLXyQ7CgAiObtk5SXJlNrcs2FYk8X+Ce5Cxx3NnpuOyROHs4951VnjAr5FX9OXv0j2FABEArhk5SXJm+678f00ZrOUrfmrOz0EQweq84bz8l0mTH9lQjwu92WBDfhS13n68hfJQxy6AJF21dUFPvS9Jy7b5845UwEsTXPfBCZGFlXRJ+RP4oTHD4r2mjnUa+v1zl/U4vrRUyoTbrl348Pz8no/CPtK13nrPqIT/kTyoRkAkZC2rhj45wQ+n+ZuCe4Cw2/7PjY3nvHYkOVY9GytUj8MAPadsPeCam6rAvLL151364f15S+SHwUAkdAMvOb0G/8CwH8F0vsCTJw7fHnP5czGUK/pqHb+DsA4ADBilzdNPWxd1odP4HNd5932Z/ryF8mXAoBIQVx9+o2fNdgHMczb+g6F9EMA9PT+fZdo8rShXhNXqrP6/v3QyfP3iiyzNQEI2t9fd/66v9SXv0j+FABECuSq02/4OsE/BrBprPsiuAvBmwEgtqi7iso+g20fRdFDZjiw72MxorlvmDD/lgwONaHx3K4Lbl2Vwb5FZBgUAEQK5prTb7o0cj8O4Pqx7itx34/kC9Oxy4MABrsJEOq1jkebPX7UtEMnpXyIGy3CO68777avprxfERkBBQCRArryzJt/aUl8FIBHx7IfgjMc/MOeNuvZobatxLWm9wioWe3gfcbvecdQrx+mxyziW6/9yLqfpP+uichIKACIFNRVZ11/V+Q9RwB261j24/RDd+Ou1cG2qUTVewAM2CJYPu1Nw1pBcFCGX9binsOu/chtmZ9YKCJDUwAQKbArz1z3lCUblxns0tHuI4Ilk6Lx8wfbplavD7r078R4/OEz6rs+ONoaCPvKhgqOuerP7hhyJkJE8qGFgEQK7sEfPtPz4Pcf/+6+d84BgGUjff3caLc7943m7DnIJuyoj6sBGKzXb7vVZ9z92w33DLafZjYb7Nyu82/9709d/pRW9xMpEM0AiLQCA686/cZVhF2AEV4meFC018uDPV+pVO8AsPtQ+9lz4u7JsbPe8svhjkvgPieWXHv+rdksdywiY6IAINJCrjn9hi+APBHAy8N9zWybNuiXezWuD7mvOK7eVqnWjzpq+pKjztl75S8MNsRv83aZ9SRLf3HBujtDv2ci0pwCgEiLufqMm66KLHkTgIeH2naijXsyRjzY9f+NOK4cPNg+Iouf7uwctxe2tQz3Gr/HW/7igA/dXLXqq002T0D7+67nbz2162O3rw/9XonIwBQARFrQlafdcrc3/HCAvxhsu4OjvR8Y7PlqXP2NGXYdbJvOceMfBjC172OTaxOP+OuDznt0cm3Ck30efg4eHd91wa2rdDc/keJTABBpUT97380vVKbustzAiwfaZt9ozrjB9lGtdWwZ7Pkoip40s6Z3KqzFlYM/sfD8uxbvuuA2AL+q0hd3XXjLNaHfFxEZHl0FINLCHvjWA8mD33/i0n3unLMJwNsAWO9zVcSbDovnTwfQdA0AM9vcUevYFbABVwis1ztui6J4r2bP1Wodv+qojTt60bRDXtrS/Yc3fuP9P1sf+v0QkeHTDIBIqzPw6tNv/KyR7wHwWu/D86I5d2Hbnf2aqVSqvwFs0GV+47g6s+mQUfRErdZxOACY4xOrVl7SHfptEJGRUQAQKYmrzrjpe0D0JgCPA8CB8Z6Drt5Xr3TYYM9HFj1qZgc2e66zPuEP2HpvgZ+/4fAT/jP0sYvIyCkAiJTI1adff3vSsCMI3DYdU/YeaDsz22BRtGiwfdU7Oh8a4LWvRHG0BEDi9D8PfcwiMjoKACIl8/P33fDEIeMOPCZCNG2gbWrV2h0AOgfbTxxXZjd7vBJXHwBQNeDrhx12kq7zF2lRCgAiJfQv77poPWBdAz1frXQMemtgi+KHAOzf/DnbRGBDpaf6d6GPU0RGTwFApKRobNqbN7MXzGzw6f96x4C3ISZZiYh/XHDE2we9gZCIFJsCgEhJRYwvb/Z4rVq/GwNcGtirEsd7DPRco5F0rt/Q8fnQxyciY6MAIFJSK1d+4mEC9/Z/vFrtmDzY66I4vg+wAU8gpPt1Rx999KBXGIhI8SkAiJTbDm2AKI6eNGDBYC+o1zqeHOx5o/049EGJyNgpAIiUGM12CAD1uOM+DPG5r1Sar/y3zcu7zLBB7z8gIq1BAUCkxGJu+iWAV7b9lZVadbdBt48r95C254AbkFfMn79Sq/6JlIACgEiJrVy5qtuAawCgVuv8FWgHDLZ9rVZ/dpCnk2q943KISClUQhcgIlmz/4yjeO96tX74EBsyjuP9BnpyXOek6y2OXwh9NCKSDs0AiJRcZ+ekn44fN34vAB2DbRdXKncD1nT1v1ql/qsojo6K3XXtv0hJKACIlNzJJ//ZEySG7NvXavUBf7uvdXRMA4Bu8qnQxyMi6VAAEGkHZncP/jQ8iipNzw+wKHoUsIMA+MaN454PfSgikg4FAJH2MOhNe+K4cocBs5o9V69uvyvg80cffXQj9IGISDoUAETagLndNdjztWrHKwM9V6lW52z749Ohj0NE0qMAINIOyMFmABKL4oObPRFF8X0A9gUAGHUCoEiJKACItIFur94FgM2ei+Pqb82wa7Pn6tXO7csCG00BQKREFABE2sA73/mBDQAeafZcR72+caDXxdV4Xu+fXS0AkVJRABBpHzudB2CGHoviQ5ptHMfVuwGb1/v3iGoBiJSJAoBIm7AmVwLEldrtAKY2275Wrz/X9++MIgUAkRJRABBpE46drwSoVmsDLRDklbiyb98HLDG1AERKRAFApH30mwGwLZU4XtBswziu3kliTt/HPNIywCJlogAg0iZmzsS9wOtLAler1dtJTGq2bUe9vr7/Y5VKpBkAkRJRABBpE4cddm4PgPt6/16r1TnApg2Ld1oXIPn971/WnQBFSkQBQKSNcFsboFqt3WQWLW22TbVSuwO06f0efm7lypVJ6PpFJD2V0AWISH7M7K5qpXpjvd75BgDWbJtqtcm6ANQJgCJloxkAkTbS2Tn+jnq983AA9eZbWHdUabIugJYBFikdBQCRNhLH1ZcAxAM9X6lWbwebrAtgWgVQpGwUAETaiBmfG+z5Wq3e0/R1WgVQpHQUAETaSBxHzw/0nJm9ZogWN3uOphsBiZSNAoBIGznyyBUvAWg0e65Sqd5uZuObPRdF1SdC1y4i6VIAEGkjZkYALzZ7rlatN70qoLNz/HUTOicYRKRUFABE2g3R5DwA22BRvLj/o3GlenelUn2rmysAiJSMAoBIuzHsdB5ArVb7LYDO/o931DteHNY+RaTlKACItB3bKQBUax3N1gVomEXze18UumoRSZcCgEjb2fFSQDN7yWCL+m9VqdZvN7Ndtm2jACBSMgoAIm3GsGMLoFbruBNArf92tWq9u8+rFABESkYBQKTNeL8WQKVSm9h/m8hscxxHfWcFFABESkYBQKT9bA8AFkXPmtnC/htUq/XfANi+JoC5rgIQKRsFAJH2s/0cgHqldg+a3BugUq3FI9qjiLQcBQCRNmPbLgM0s9cq1Y59dn7eXo6iaNFOrxKRUlEAEGkzJJ8DwI7OCbfDMKf/89Va7S70u12wm84BECkbBQCRNuO++bnOceOvi6P4jc2er1Y7xu38qGYARMpGAUCkzRx99Dmb46j6lmbPWWTPRU1OCjQtBSxSOgoAIm2GpGGAz36t1tn0pEDoMkCR0lEAEGkzXV1dA57hX6tWd2n2eL3SmYSuW0TSpQAg0mbmzNnUNABEUeUJwObv/Hj82LjxE2aHrltE0qUAINJmXn45aRoAarXaA2gy1T9u3IQHSdtlyB2LSEtRABARAEClUtu9/2NmaMRR7SAjp4auT0TSpQAg0nZ26+n/SBxX7jfDvv0fr1U6bjPDTJpmAETKRgFApM0cdthhPQDY97Farf5ks23rneO3bkdoBkCkZBQARNpTn1v9gpVKde/+G0RR9Exk0R8BAEwBQKRsFABE2lOj9w+1av1mAHP7b9DZMfEeANVtf1ULQKRkFABE2tODW//HvF6vN/vtnrVqbd7rfzXNAIiUjAKASBty+ocAvFar16+HRfv3f75aqf+WwLzXH+H4+++/vz78EUSk6BQARNrQYYeddFPiWDHAb//o6Bi/sf9jkybFU0LXLSLp0freIm2MZPTQfTe9kcYVBP4UwAwze2XypF0rAHa4K6AlfvCus/e/J3TNIpIOBQARAQDceuut1UmTuo/r6Bi/rLM+/jwAHX2fd+BNM2fue33oOkUkHQoAIrKTl156eEqjO1kJ4MMA3gAAoJ08fdY+l4euTUTSoQAgIoN6/qmHljDyDxhwxa4z9/1R6HpEREREREREREREREREREREREREREREREREREREREREREREREREREREREREREREREREiuj/BxyWU7Y4GigvAAAAAElFTkSuQmCC;" vertex="1" parent="1">
          <mxGeometry x="610" y="591.2099999999999" width="70" height="70" as="geometry" />
        </mxCell>
        <mxCell id="LNJo_GOO3jLuJofgwiUO-7" style="edgeStyle=orthogonalEdgeStyle;rounded=0;orthogonalLoop=1;jettySize=auto;html=1;entryX=0.5;entryY=0;entryDx=0;entryDy=0;entryPerimeter=0;fillColor=#d5e8d4;strokeColor=#82b366;" edge="1" parent="1" source="zlhoYKVswHlVtqf08jpZ-43" target="zlhoYKVswHlVtqf08jpZ-34">
          <mxGeometry relative="1" as="geometry" />
        </mxCell>
        <mxCell id="LNJo_GOO3jLuJofgwiUO-16" style="edgeStyle=orthogonalEdgeStyle;rounded=0;orthogonalLoop=1;jettySize=auto;html=1;entryX=0.5;entryY=0;entryDx=0;entryDy=0;entryPerimeter=0;fillColor=#d5e8d4;strokeColor=#82b366;" edge="1" parent="1" source="zlhoYKVswHlVtqf08jpZ-43" target="zlhoYKVswHlVtqf08jpZ-27">
          <mxGeometry relative="1" as="geometry" />
        </mxCell>
      </root>
    </mxGraphModel>
  </diagram>
</mxfile>
